<svg id="Calque_1" data-name="Calque 1" xmlns="http://www.w3.org/2000/svg" viewBox="0 0 296.98 216.25"><defs><style>.cls-1{fill:#fcb63c;}.cls-1,.cls-2{stroke:#f37b37;stroke-linejoin:round;stroke-width:3px;}.cls-2{fill:#f8e995;stroke-linecap:round;}.cls-3{fill:#f37c38;stroke:#fff;stroke-miterlimit:10;stroke-width:1.5px;}</style></defs><title>Book_3</title><rect class="cls-1" x="1.5" y="64.13" width="293.98" height="150.62"/><path class="cls-2" d="M11.63,240.07s95.78-18.63,138,16.93V105.25c-42.17-35.56-138-16.94-138-16.94Z" transform="translate(-1.51 -42.25)"/><path class="cls-2" d="M287.53,240.07S191.75,221.44,149.58,257V105.25c42.17-35.56,137.95-16.94,137.95-16.94Z" transform="translate(-1.51 -42.25)"/><path class="cls-3" d="M142.61,43.4a1.55,1.55,0,0,0-1.1-.4c-3.26.26-28.76,19.63-50.43,50.21a222.44,222.44,0,0,0-21.27,37.27,130.11,130.11,0,0,0-11.62-11.27,131.47,131.47,0,0,0-22.68-15.59,1.18,1.18,0,0,0-1.28,2A97.89,97.89,0,0,1,56,128.72,97.84,97.84,0,0,1,69,157a1.2,1.2,0,0,0,1.12.86h0a1.19,1.19,0,0,0,1.13-.82A252.89,252.89,0,0,1,97.71,99.93a275.74,275.74,0,0,1,40.35-49.75C143,45.27,143.71,44.52,142.61,43.4Z" transform="translate(-1.51 -42.25)"/></svg>