<svg id="Calque_1" data-name="Calque 1" xmlns="http://www.w3.org/2000/svg" viewBox="0 0 295.04 274"><defs><style>.cls-1{fill:#f8e995;}.cls-2{fill:#f37b37;}.cls-3,.cls-5{fill:#fff;}.cls-3{stroke:#f37b37;stroke-linecap:round;stroke-linejoin:round;stroke-width:2px;}.cls-4{fill:#fcb63c;}</style></defs><title>Quiz_2</title><circle class="cls-1" cx="137" cy="137" r="135.52"/><path class="cls-2" d="M139.48,287c-75.54,0-137-61.46-137-137s61.46-137,137-137,137,61.46,137,137S215,287,139.48,287Zm0-271c-73.9,0-134,60.12-134,134s60.13,134,134,134,134-60.12,134-134S213.39,16,139.48,16Z" transform="translate(-2.48 -13)"/><path class="cls-3" d="M133.68,204.06v-4c0-13.66,2.79-29.17,28.24-51.83,21.1-18.93,23.58-32.89,23.58-46.85,0-17.07-11.17-39.41-40.65-39.41-26.68,0-40.65,15.82-45,41.27H84.34c.93-14.28,11.17-55.86,60.82-55.86C186.74,47.35,202,77.76,202,101s-7.45,37.85-30.41,58.33c-17.07,15.21-22.34,26.38-22.34,42.52v2.17Zm0,63.61V230.75H149.2v36.92Z" transform="translate(-2.48 -13)"/><polygon class="cls-4" points="210.33 9.05 210.33 143.78 252.19 96.01 294.05 143.78 294.05 9.05 210.33 9.05"/><polygon class="cls-2" points="210.33 9.05 210.33 143.78 252.19 96.01 294.05 143.78 294.05 9.05 210.33 9.05"/><path class="cls-5" d="M296.53,157.77a1,1,0,0,1-.74-.33l-41.12-46.93-41.11,46.93a1,1,0,0,1-1.74-.65V22.05a1,1,0,0,1,1-1h83.72a1,1,0,0,1,1,1V156.79a1,1,0,0,1-.64.92A1.07,1.07,0,0,1,296.53,157.77ZM254.67,108a1,1,0,0,1,.74.34l40.13,45.79V23H213.8V154.15l40.13-45.79A1,1,0,0,1,254.67,108Z" transform="translate(-2.48 -13)"/></svg>