<svg id="Calque_1" data-name="Calque 1" xmlns="http://www.w3.org/2000/svg" viewBox="0 0 296 296"><defs><style>.cls-1{fill:#f8e995;}.cls-2{fill:#f37b37;}.cls-3{fill:#fff;stroke:#f37b37;stroke-linecap:round;stroke-linejoin:round;stroke-width:2px;}</style></defs><title>Quiz_1</title><circle class="cls-1" cx="148" cy="148" r="146"/><path class="cls-2" d="M150,298C68.39,298,2,231.61,2,150S68.39,2,150,2,298,68.39,298,150,231.61,298,150,298ZM150,6C70.6,6,6,70.6,6,150S70.6,294,150,294,294,229.4,294,150,229.4,6,150,6Z" transform="translate(-2 -2)"/><path class="cls-3" d="M143.75,208.24V203.9c0-14.71,3-31.43,30.42-55.83,22.73-20.4,25.41-35.44,25.41-50.48,0-18.39-12-42.46-43.8-42.46C127,55.13,112,72.18,107.31,99.59H90.59c1-15.38,12-60.17,65.53-60.17,44.8,0,61.18,32.76,61.18,57.83s-8,40.79-32.77,62.85c-18.38,16.38-24.07,28.42-24.07,45.8v2.34Zm0,68.54V237h16.71v39.79Z" transform="translate(-2 -2)"/></svg>