<svg id="Calque_1" data-name="Calque 1" xmlns="http://www.w3.org/2000/svg" viewBox="0 0 291.5 296"><defs><style>.cls-1{fill:#f8e995;}.cls-2{fill:#f37b37;}.cls-3,.cls-4{fill:#fff;}.cls-3,.cls-6{stroke:#f37b37;}.cls-3,.cls-5{stroke-linecap:round;}.cls-3,.cls-5,.cls-6{stroke-linejoin:round;}.cls-3{stroke-width:2px;}.cls-5,.cls-6{fill:none;}.cls-5{stroke:#fff;stroke-width:4px;}.cls-6{stroke-width:1.5px;}</style></defs><title>Quiz_3</title><circle class="cls-1" cx="159.85" cy="164.35" r="129.24"/><path class="cls-2" d="M163.13,297h-.95A131.65,131.65,0,0,1,70.66,71.61,130.78,130.78,0,0,1,163.07,33.7h1a131.65,131.65,0,0,1,91.52,225.39A130.78,130.78,0,0,1,163.13,297Zm-.06-258.47A126.81,126.81,0,0,0,72.8,254.39a126.81,126.81,0,0,0,217.11-88.15h0A126.82,126.82,0,0,0,164,38.53Z" transform="translate(-3.25 -1)"/><path class="cls-3" d="M157.86,216.85V213c0-13,2.67-27.82,26.93-49.42,20.13-18.05,22.49-31.37,22.49-44.69,0-16.27-10.65-37.58-38.76-37.58-25.46,0-38.77,15.09-42.92,39.36H110.81c.88-13.61,10.65-53.27,58-53.27,39.66,0,54.16,29,54.16,51.2s-7.1,36.1-29,55.63c-16.28,14.51-21.31,25.16-21.31,40.55v2.07Zm0,60.67V242.3h14.8v35.22Z" transform="translate(-3.25 -1)"/><path class="cls-4" d="M5.25,100.54A162.28,162.28,0,0,1,40.9,139a162.25,162.25,0,0,1,21.23,46.79,415,415,0,0,1,44-93.3C142.4,35.52,182,4.75,180.36,3.07S135.62,32.12,98.6,83.61a359.85,359.85,0,0,0-36.19,63A211.31,211.31,0,0,0,41.75,126,211.41,211.41,0,0,0,5.25,100.54Z" transform="translate(-3.25 -1)"/><path class="cls-5" d="M5.25,100.54A162.28,162.28,0,0,1,40.9,139a162.25,162.25,0,0,1,21.23,46.79,415,415,0,0,1,44-93.3C142.4,35.52,182,4.75,180.36,3.07S135.62,32.12,98.6,83.61a359.85,359.85,0,0,0-36.19,63A211.31,211.31,0,0,0,41.75,126,211.41,211.41,0,0,0,5.25,100.54Z" transform="translate(-3.25 -1)"/><path class="cls-6" d="M5.25,100.54A162.28,162.28,0,0,1,40.9,139a162.25,162.25,0,0,1,21.23,46.79,415,415,0,0,1,44-93.3C142.4,35.52,182,4.75,180.36,3.07S135.62,32.12,98.6,83.61a359.85,359.85,0,0,0-36.19,63A211.31,211.31,0,0,0,41.75,126,211.41,211.41,0,0,0,5.25,100.54Z" transform="translate(-3.25 -1)"/></svg>