<svg id="Calque_1" data-name="Calque 1" xmlns="http://www.w3.org/2000/svg" viewBox="0 0 294.43 256"><defs><style>.cls-1{fill:#f37b37;}.cls-2{fill:#fff;}.cls-3{fill:none;stroke:#000;stroke-linecap:round;stroke-miterlimit:10;stroke-width:8px;}</style></defs><title>Volume_2</title><path class="cls-1" d="M54.31,78H13.46c-4.55,0-8.23,3.25-8.23,7.27V217.24c0,4,3.68,7.27,8.23,7.27H54.31c4.55,0,8.23-3.26,8.23-7.27V85.3C62.54,81.28,58.86,78,54.31,78Z" transform="translate(-2.79 -22)"/><path class="cls-2" d="M54.31,227H13.46c-5.89,0-10.67-4.36-10.67-9.71V85.3c0-5.35,4.78-9.71,10.67-9.71H54.31C60.2,75.59,65,80,65,85.3V217.24C65,222.59,60.2,227,54.31,227ZM13.46,80.47c-3.2,0-5.79,2.17-5.79,4.83V217.24c0,2.66,2.59,4.83,5.79,4.83H54.31c3.2,0,5.79-2.17,5.79-4.83V85.3c0-2.66-2.59-4.83-5.79-4.83Z" transform="translate(-2.79 -22)"/><path class="cls-1" d="M163.2,109.79q-.09-28.51-.17-57c0-16.08-15.67-26.12-28.2-18.12L71.59,75A7.23,7.23,0,0,0,68.11,81V216.59" transform="translate(-2.79 -22)"/><path class="cls-2" d="M70.55,216.59H65.67V81a9.66,9.66,0,0,1,4.61-8.12l63.24-40.33a19.57,19.57,0,0,1,20.13-.73c7.27,4,11.8,12,11.83,20.9l.16,57h-4.88l-.16-57c0-7.14-3.59-13.51-9.29-16.63a14.52,14.52,0,0,0-15.17.56L72.9,77a4.83,4.83,0,0,0-2.35,4Z" transform="translate(-2.79 -22)"/><path class="cls-1" d="M85.23,241.14l49.6,31.63c12.53,8,28.16-2,28.2-18.12l.29-98.5v-2.64" transform="translate(-2.79 -22)"/><path class="cls-2" d="M144.2,278a19.81,19.81,0,0,1-10.68-3.17L83.91,243.19l2.63-4.11,49.6,31.64a14.56,14.56,0,0,0,15.17.55c5.71-3.12,9.26-9.49,9.29-16.63l.28-98.5v-2.62l4.88,0v2.64l-.28,98.51c0,8.92-4.56,16.93-11.83,20.9A19.59,19.59,0,0,1,144.2,278Z" transform="translate(-2.79 -22)"/><path class="cls-1" d="M209.16,260.82A7.32,7.32,0,0,1,207,246.51c13.74-4.31,39.43-15.36,57.12-40.93,24.73-35.75,24.72-86,0-122.12a103,103,0,0,0-28.18-27.61A7.32,7.32,0,1,1,244,43.66a117.78,117.78,0,0,1,32.16,31.53c28.09,41.05,28.08,98.09,0,138.72-20.17,29.17-49.24,41.7-64.77,46.57A7.25,7.25,0,0,1,209.16,260.82Z" transform="translate(-2.79 -22)"/><path class="cls-3" d="M187.65,213.38" transform="translate(-2.79 -22)"/><path class="cls-1" d="M201.31,223.42a7.32,7.32,0,0,1-2.19-14.31c8.73-2.74,25-9.74,36.25-26,15.69-22.68,15.69-54.54,0-77.48a66.58,66.58,0,0,0-25-21.69A7.32,7.32,0,0,1,217,71a81,81,0,0,1,30.44,26.46c19.06,27.83,19.05,66.52,0,94.08-13.7,19.8-33.39,28.29-43.91,31.59A7.29,7.29,0,0,1,201.31,223.42Z" transform="translate(-2.79 -22)"/><path class="cls-1" d="M190.21,188.62A7.32,7.32,0,0,1,188,174.31a31.2,31.2,0,0,0,16.82-48c-5.17-7.57-12.79-10.9-16.87-12.22a7.32,7.32,0,1,1,4.49-13.93,47.18,47.18,0,0,1,24.47,17.88c10.64,15.54,10.63,37.15,0,52.54-7.66,11.09-18.64,15.82-24.5,17.66A7.29,7.29,0,0,1,190.21,188.62Z" transform="translate(-2.79 -22)"/><path class="cls-1" d="M52.11,264.52a7.32,7.32,0,0,1-5.48-12.17L248.12,24.47a7.32,7.32,0,1,1,11,9.7L57.59,262.05A7.31,7.31,0,0,1,52.11,264.52Z" transform="translate(-2.79 -22)"/></svg>