<svg id="Calque_1" data-name="Calque 1" xmlns="http://www.w3.org/2000/svg" viewBox="0 0 1042.41 305.69"><title>accessories</title><path d="M30.19,481C40.46,487.41,46.32,496.1,50,507.35c9.4,29.15,19.35,58.12,29,87.19,16.6,49.91,52.23,78.43,102.44,89.28,61.29,13.23,122.21,5.88,182.43-7.39,46.07-10.18,81.91-42.42,98.34-88.37,11.5-32.17,20.65-58.14,30.8-90.79,5.95-19.16,14.29-26.77,34.08-28.77a169,169,0,0,1,18.16-.43c28.92.23,37.82,8.32,45.71,36.27,8.62,30.59,15.46,62.12,29,90.85,20.81,44.19,48.62,64.51,97.06,80.68,37,12.33,71.83,17,110.89,17,29.93,0,63.49-4.51,91.25-14.2,36.39-12.69,64.55-35,78.31-72,12.77-34.32,23.92-69.23,36.62-103.57,2.61-7.1,7.71-14.9,13.94-18.66,10.26-6.23,13.18-14.49,13.18-25.12,0-6.46-.77-13-.15-19.35,1.31-13.16-4.83-19-17.3-21.2-50-8.74-99.66-20.66-150-26.32-101-11.36-200.42-6.48-295.93,34.75-37,16-77.26,15.29-114.69-.24-67.51-28-137.31-41.13-208.67-39-74.25-1.5-145.3,10.77-216,26.39-39.87,8.8-43.83,13.06-36.76,53.29C22.49,472.5,26.06,478.4,30.19,481Zm615.12-51.11c31.94-16.07,66.37-22.37,101.42-25.9,73.51-7.41,146-2,216.59,20.6,33,10.55,44.27,25.95,44.08,60.82-.25,45.5-7.59,89.72-28.55,130.91-10.61,20.86-27.26,34.54-48.66,43-32.41,12.84-66.34,16.74-102.64,17.33-41.39-.74-83.29-7.76-123.4-24.32-21.47-8.88-39.21-22.21-51.88-42-23.9-37.27-40.25-77.15-42-122C609.27,461.34,621.12,442,645.31,429.87ZM74.53,482.05c.78-31.46,11.72-46.32,41.44-56.71,52.83-18.45,107.82-23.18,163.88-24.85,46.69,1.55,93.75,4.78,138.7,21.51a200,200,0,0,1,18.74,8.41c24.39,12,36,32.07,34.27,58.84-3.35,52.25-21.45,99.09-56.19,138.46-17.39,19.7-42.19,27.77-66.76,34.81-60.69,17.39-121.55,19.37-182.69,2-34.75-9.87-58.62-31.08-71-65.11C81.08,561.48,73.52,522.43,74.53,482.05Z" transform="translate(-18.8 -387.16)"/></svg>