<svg id="Calque_1" data-name="Calque 1" xmlns="http://www.w3.org/2000/svg" viewBox="0 0 1054.36 147.86"><title>eyebrows</title><path d="M635.12,613.8s12.25-73.57,27.41-97.75c0,0,133.5-34.44,208.65-43.72,89.38-11,116.5-4.13,116.5-4.13s45,17.62,79.5,97.85c0,0-48.92-55.3-86.28-56.95C866.81,504,704.9,560,635.12,613.8Z" transform="translate(-12.82 -466.07)"/><path d="M635.12,613.8s-7-62.7,7.42-92.4H628.75S618.73,556.67,635.12,613.8Z" transform="translate(-12.82 -466.07)"/><path d="M444.88,613.93s-12.25-73.57-27.41-97.75c0,0-133.5-34.44-208.65-43.72-89.38-11-116.5-4.13-116.5-4.13s-45,17.62-79.5,97.85c0,0,48.92-55.3,86.28-56.95C213.19,504.17,375.1,560.08,444.88,613.93Z" transform="translate(-12.82 -466.07)"/><path d="M444.88,613.93s7.05-62.7-7.42-92.4h13.79S461.27,556.8,444.88,613.93Z" transform="translate(-12.82 -466.07)"/></svg>