<svg id="Calque_1" data-name="Calque 1" xmlns="http://www.w3.org/2000/svg" viewBox="0 0 1049.11 272.95"><title>facial_hair</title><path d="M540.12,457.56c-23.81-23.79-72.13-62.29-127.45-51.78-78.68,15-184.1,131.39-184.1,131.39S164.06,608,109,589.88s-33-99.92-33-99.92-87.33,26-51.93,111.72,184.1,79.46,238.39,70c52.88-9.2,178.19-34.07,277.72-134.27C639.66,637.63,765,662.5,817.85,671.7c54.28,9.44,203,15.74,238.38-70S1004.3,490,1004.3,490s22,81.82-33,99.92-119.58-52.71-119.58-52.71S746.25,420.73,667.58,405.78C612.25,395.27,563.93,433.77,540.12,457.56Z" transform="translate(-15.57 -404)"/></svg>