<svg id="Calque_1" data-name="Calque 1" xmlns="http://www.w3.org/2000/svg" viewBox="0 0 1018.42 628.17"><title>mouth</title><path d="M549,508c93.38,1.46,78.22-59.31,184-5.79,158.89,80.34,337.65,64.47,314.11,50.41-149-89-255.35-383-441.43-316-57.69,20.84-62.74,22.59-121.75-1.89C332.7,172,175.38,463.25,32.92,536.88,8.68,549.4,195.32,571.73,367.4,496.53,469.14,452.06,455.61,506.56,549,508Z" transform="translate(-30.79 -225.92)"/><path d="M540.32,620.38c26.39.4,94.58-9.36,138.73-21.66,52.19-14.53,125.55-13.18,189-12.2s140.71-1.08,179.2-20.29c23.3-11.66-177.13,293-510.51,287.79S13.1,538.87,32.31,549.72c23.55,13.37,125.93,38.75,184.46,33.17,63.15-6,135.24-4.58,186.93,11.56C447.46,608.11,513.89,620,540.32,620.38Z" transform="translate(-30.79 -225.92)"/></svg>