<svg id="katman_1" data-name="katman 1" xmlns="http://www.w3.org/2000/svg" viewBox="0 0 336.51 334.54"><defs><style>.cls-1{fill:#b2b2b2;}.cls-2{fill:#f4d7cc;}.cls-3{fill:#f3bbb3;}.cls-4{fill:#676767;}.cls-5{fill:#ffec98;}.cls-6{fill:#fbb82e;}.cls-7{fill:#fff;}.cls-8{fill:#ee7078;}.cls-9{fill:#fad099;}.cls-10{fill:#b2aad3;}.cls-11{fill:#6356a1;}.cls-12{fill:#9d9d9c;}.cls-13{fill:#f6ad8d;}.cls-14{fill:#ee762d;}.cls-15{fill:#604b46;}.cls-16{fill:#6a524d;}.cls-17{fill:#11385a;}.cls-18{fill:#0e2d4a;}</style></defs><title>Alif-Yaa Web-Site Design Proposal-3</title><path class="cls-1" d="M32.51,113.21s-1.17-10.48,8.54-12,12,7.76,12,7.76L65.5,228.32h76.87s8,1.55,8,10.09a10.83,10.83,0,0,1-7.18,10.68h-8.54l6.21,53s1.36,11.84-8.74,12-11.25-9.9-11.25-9.9l-7-54.15H76.37l-7.18,59.2s-5.24,6-10.67,4.86-8.74-8-8.74-8l6.6-56.3s-10.09-.19-11.06-11.06S32.51,113.21,32.51,113.21Z"/><path class="cls-2" d="M176.3,111.78a.87.87,0,0,1,1.12.51l12.6,34,0,0-1.72,10.07a.88.88,0,0,1-1.42.52L179,150.4h0l-12.59-34a.88.88,0,0,1,.51-1.13Z"/><path class="cls-3" d="M188.26,156.23l0,.16a.87.87,0,0,1-1.42.53L179,150.4h0l-4.37-11.8Z"/><path class="cls-4" d="M186.61,154.11a7.72,7.72,0,0,1,2.13-.47l-.47,2.76a.87.87,0,0,1-1.42.52l-2.16-1.78A7.8,7.8,0,0,1,186.61,154.11Z"/><path class="cls-5" d="M190,146.49a9.55,9.55,0,0,0-11,3.92l-12.59-34a.88.88,0,0,1,.51-1.13l9.43-3.48a.87.87,0,0,1,1.12.51l12.6,34,0,0Z"/><path class="cls-6" d="M166.87,115.26l4.4-1.62,12.24,33a9.18,9.18,0,0,0-4.56,3.73l-12.59-34A.88.88,0,0,1,166.87,115.26Z"/><rect class="cls-7" x="167.31" y="116.52" width="11.8" height="2.8" transform="translate(-30.17 67.48) rotate(-20.32)"/><path class="cls-8" d="M167.19,118.65l-.83-2.26a.88.88,0,0,1,.51-1.13l9.43-3.48a.87.87,0,0,1,1.12.51l.84,2.27Z"/><path class="cls-9" d="M160.23,188.14c-32.22-2.72-33.78-1.36-33.78-1.36l-3.68-51.05s9.9,9.12,26.59,9.7,27.76-.19,27.76-.19l0,.09a7.41,7.41,0,0,1,12.53-1.59c2.14-1.35,6.16-4.68,5.88-10.54-.39-8-7.77-10.87-7.77-10.87h-8l-.08-.16a6.92,6.92,0,0,1-5.79,2.75,7,7,0,0,1-5.32-2.17h-23a57.89,57.89,0,0,1-6.89-4.3c-1.65-1.45-13.3-11.06-13.3-11.06s-12-11.55-24.55-11.55-22,.87-22,.87-13.2,1.17-12.81,11.65,7.37,95.31,7.37,95.31-.19,15.14,21,15.52,60.36.2,60.36.2,7.26.2,7.19,3.3l-1.75,74.15s0,17.58,14.75,17.43,17.67-15.68,17.67-15.68l1.16-89.3S192.45,190.85,160.23,188.14Z"/><polygon class="cls-1" points="304.06 157.85 139.07 157.85 139.07 173 213.22 173 213.22 311.59 291.64 311.59 291.64 173 304.06 173 304.06 157.85"/><rect class="cls-10" x="230.3" y="140.19" width="61.34" height="16.31" rx="2.3"/><rect class="cls-11" x="241.69" y="123.69" width="59.79" height="15.14" rx="1.49"/><circle class="cls-9" cx="90.35" cy="56.79" r="32.03"/><polygon class="cls-12" points="213.22 173 291.64 173 291.64 199.4 213.22 191.89 213.22 173"/><path class="cls-13" d="M94.23,78.72A32,32,0,0,1,62.82,40.49,32,32,0,1,0,121.76,63,32,32,0,0,1,94.23,78.72Z"/><path class="cls-6" d="M160.13,145.64V122.75H145.67a57.89,57.89,0,0,1-6.89-4.3c-1.65-1.45-13.3-11.06-13.3-11.06s-12-11.55-24.55-11.55-22,.87-22,.87-13.2,1.17-12.81,11.65,7.37,95.31,7.37,95.31l53-16.89-3.68-51.05s9.9,9.12,26.59,9.7C153.29,145.57,156.9,145.63,160.13,145.64Z"/><rect class="cls-14" x="160.13" y="139.94" width="0.01" height="5.74"/><path class="cls-14" d="M160.13,139.94c-3.33,0-7.08-.07-11.16-.22-16.69-.58-26.59-9.7-26.59-9.7l2.73,37.75h.1l-2.31-32s9.9,9.12,26.59,9.7c3.87.14,7.44.2,10.64.21"/><path class="cls-12" d="M140.36,298.28c-.82,3.15-2.93,6.54-8.29,6.64-10.1.2-11.26-9.9-11.26-9.9l-7-54.15H76.36l-7.19,59.2s-5.24,6-10.67,4.86c-3.78-.82-6.53-4.35-7.85-6.42l-.89,7.58s3.3,6.79,8.74,8,10.67-4.86,10.67-4.86L76.36,250h37.46l7,54.16s1.16,10.09,11.26,9.9,8.73-12,8.73-12Z"/><path class="cls-12" d="M56.36,240.67s-10.09-.19-11.06-11.06c-.86-9.6-10.2-100.25-12.36-121.25a14.43,14.43,0,0,0-.45,4.78S44.33,227.86,45.3,238.73c.78,8.71,7.4,10.56,10,11Z"/><path class="cls-12" d="M143.13,239.9h-8.54l1.07,9.12h7.47a11.53,11.53,0,0,0,6.3-15.1A10.86,10.86,0,0,1,143.13,239.9Z"/><path class="cls-15" d="M116.49,38.47A32,32,0,1,0,87.21,88.73c-.36-.59-.72-1.17-1-1.79a32,32,0,0,1,4.32-35.75,14.93,14.93,0,1,0,26-12.72Z"/><path class="cls-16" d="M76.15,32.42a32,32,0,0,1,42.75,9.95c-.28-.57-.55-1.15-.87-1.7A32,32,0,1,0,62.68,72.92c.33.56.7,1.07,1,1.6A32,32,0,0,1,76.15,32.42Z"/><path class="cls-17" d="M73.37,203.61s-.19,15.14,21,15.53,60.37.19,60.37.19,7.26.2,7.18,3.3l-1.74,74.15s0,17.58,14.75,17.43,17.66-15.68,17.66-15.68l1.17-89.29s-1.36-18.44-33.58-21.16-33.78-1.36-33.78-1.36"/><path class="cls-18" d="M192.2,296.5s-2.92,15.52-17.67,15.68c-9.84.1-13.12-7.69-14.2-12.89l0,1.2s0,17.59,14.75,17.43,17.66-15.68,17.66-15.68L193.88,213a12.33,12.33,0,0,0-.56-2.46Z"/><path class="cls-18" d="M161.42,224.91l.11-4.31c.07-3.1-7.19-3.3-7.19-3.3s-39.21.19-60.36-.2c-16.52-.3-20-9.6-20.77-13.66.2,2.47.32,3.88.32,3.88s-.19,15.14,21,15.53,60.37.19,60.37.19S159.68,223.18,161.42,224.91Z"/><path class="cls-14" d="M152.19,144.13c-16.7-.58-26.6-9.71-26.6-9.71l.27,3.68a45.48,45.48,0,0,0,23.5,7.39c3.93.14,7.54.2,10.77.21v-1.38Q156.43,144.27,152.19,144.13Z"/><path class="cls-14" d="M76.29,202.36s-7-84.82-7.38-95.31a9.73,9.73,0,0,1,5-9.07c-3.7,1.4-8.08,4.33-7.85,10.43.38,10.49,7.37,95.31,7.37,95.31l53-16.89,0-.44Z"/></svg>