<svg id="katman_1" data-name="katman 1" xmlns="http://www.w3.org/2000/svg" viewBox="0 0 336.51 334.54"><defs><style>.cls-1{fill:#f3e6dd;}.cls-2{fill:#f4d7cc;}.cls-3{fill:#fff;}.cls-4{fill:#f3bbb3;}.cls-5{fill:#676767;}.cls-6{fill:#ffec98;}.cls-7{fill:#fbb82e;}.cls-8{fill:#ee7078;}.cls-9{fill:none;stroke:#676767;stroke-linecap:round;stroke-linejoin:round;stroke-width:9px;}</style></defs><title>Alif-Yaa Web-Site Design Proposal-3</title><circle class="cls-1" cx="167.85" cy="167.27" r="153.56"/><path class="cls-2" d="M296.92,250.49l-136.39,26h0l34.92-92.13L197.19,229l122.4-89.28a142.06,142.06,0,0,1,2.22,38A155.74,155.74,0,0,1,314,214.53C312.44,219.14,305.78,238.93,296.92,250.49Z"/><circle class="cls-3" cx="90.76" cy="102.07" r="23.92"/><circle class="cls-3" cx="90.76" cy="164.17" r="23.92"/><circle class="cls-3" cx="90.76" cy="226.28" r="23.92"/><path class="cls-2" d="M236.84,74.7a4.06,4.06,0,0,0-5.46,1.73l-77.31,149,.13.06,2.12,47.22a4,4,0,0,0,6.22,3.23l39.83-25.44.13.06,77.32-148.94a4.06,4.06,0,0,0-1.73-5.46Z"/><path class="cls-4" d="M156.44,271.9l0,.76a4,4,0,0,0,6.22,3.23l39.83-25.44.13.06,26.8-51.62Z"/><path class="cls-5" d="M165.23,263.09a35.67,35.67,0,0,0-9.49-3.36l.58,12.93a4,4,0,0,0,6.22,3.23l10.91-7A35.88,35.88,0,0,0,165.23,263.09Z"/><path class="cls-6" d="M154.24,226.22a44.21,44.21,0,0,1,48.28,24.27l77.3-148.92a4.06,4.06,0,0,0-1.73-5.46L236.84,74.7a4.06,4.06,0,0,0-5.46,1.73l-77.31,149,.13.06Z"/><path class="cls-7" d="M278.09,96.11l-19.27-10L183.74,230.76a42.8,42.8,0,0,1,18.78,19.73l77.3-148.92A4.06,4.06,0,0,0,278.09,96.11Z"/><rect class="cls-3" x="240.99" y="77.38" width="12.96" height="54.57" transform="translate(40.56 276.09) rotate(-62.57)"/><path class="cls-8" d="M274.67,111.48l5.15-9.91a4.06,4.06,0,0,0-1.73-5.46L236.84,74.7a4.06,4.06,0,0,0-5.46,1.73l-5.14,9.91Z"/><polyline class="cls-9" points="75.23 152.95 89.17 177.1 117.61 127.86"/></svg>