<svg id="katman_1" data-name="katman 1" xmlns="http://www.w3.org/2000/svg" viewBox="0 0 336.51 334.54"><defs><style>.cls-1{fill:#604b46;}.cls-2{fill:#fced99;}.cls-3{fill:#ee762d;}.cls-4{fill:#ea6317;}.cls-5{fill:#fad099;}.cls-6{fill:#f6ad8d;}.cls-7{fill:#6a524d;}.cls-8{fill:#fbb82e;}.cls-9{fill:#11385a;}</style></defs><title>Alif-Yaa Web-Site Design Proposal-3</title><circle class="cls-1" cx="167.67" cy="85.09" r="70"/><path class="cls-2" d="M34.55,148.76l18.89,15.48,49,18.14,64.89,22.26v-23.3h0C139.26,145.11,34.55,148.76,34.55,148.76Z"/><path class="cls-2" d="M167.34,181.34l132.78-32.58S195.4,145.11,167.34,181.34Z"/><polygon class="cls-2" points="167.34 181.34 167.34 204.64 232.23 182.38 281.24 164.24 300.13 148.76 167.34 181.34"/><path class="cls-3" d="M174,318.77a360.26,360.26,0,0,1,58.69-24A354.93,354.93,0,0,1,303,280.67V148.76a348.65,348.65,0,0,0-72.5,14.66A353,353,0,0,0,174,186.86Z"/><path class="cls-3" d="M161.36,318.77a360.26,360.26,0,0,0-58.69-24,354.93,354.93,0,0,0-70.35-14.13V148.76a348.65,348.65,0,0,1,72.5,14.66,353,353,0,0,1,56.54,23.44Z"/><path class="cls-4" d="M174.77,318.77a10.61,10.61,0,0,1-14.23,0v-132a10.15,10.15,0,0,0,14.23,0Z"/><path class="cls-5" d="M222.64,104.33a55,55,0,0,1-55-55,55,55,0,0,1-55,55,55,55,0,0,0,110,0Z"/><path class="cls-6" d="M215.47,103.71a55,55,0,0,1-83.09,42.77,55,55,0,0,0,90.26-42.15v-.16A56.56,56.56,0,0,1,215.47,103.71Z"/><path class="cls-7" d="M102.46,90.2A70,70,0,0,1,221.58,40.32a70,70,0,1,0-102.84,94.76A69.73,69.73,0,0,1,102.46,90.2Z"/><path class="cls-6" d="M170.24,66a54.82,54.82,0,0,1-2.57-16.65,55,55,0,0,1-55,55c0,1.81.09,3.6.26,5.36,1.14.07,2.29.11,3.45.11A55,55,0,0,0,170.24,66Z"/><rect class="cls-5" x="26.86" y="209.56" width="19.03" height="7.19" rx="2.36" transform="translate(7.67 -1.17) rotate(2.05)"/><rect class="cls-5" x="25" y="230.84" width="14.36" height="5.71" rx="1.88" transform="translate(8.4 -1) rotate(2.05)"/><rect class="cls-5" x="25.63" y="223.8" width="17.84" height="7.19" rx="2.36" transform="translate(8.18 -1.09) rotate(2.05)"/><rect class="cls-5" x="26.61" y="216.74" width="20.84" height="7.19" rx="2.36" transform="translate(7.92 -1.19) rotate(2.05)"/><path class="cls-6" d="M42.17,215.76l-11.84-.42a3.61,3.61,0,0,1-3.41-3,2.12,2.12,0,0,0-.05.44h0a3.6,3.6,0,0,0,3.46,3.72l11.84.43a3.61,3.61,0,0,0,3.72-3.47,3.49,3.49,0,0,0,0-.72A3.6,3.6,0,0,1,42.17,215.76Z"/><path class="cls-6" d="M39.74,230.07l-10.64-.38a3.59,3.59,0,0,1-3.42-3,3,3,0,0,0-.05.42h0a3.6,3.6,0,0,0,3.47,3.72l10.64.39a3.6,3.6,0,0,0,3.72-3.47,3.82,3.82,0,0,0,0-.68A3.61,3.61,0,0,1,39.74,230.07Z"/><path class="cls-6" d="M36.42,235.85l-8.64-.31a2.86,2.86,0,0,1-2.72-2.46,2.91,2.91,0,0,0,0,.4,2.87,2.87,0,0,0,2.75,3l8.64.31a2.87,2.87,0,0,0,3-2.75,4.07,4.07,0,0,0,0-.5A2.86,2.86,0,0,1,36.42,235.85Z"/><path class="cls-6" d="M43.76,223.09l-13.64-.49a3.59,3.59,0,0,1-3.43-3.13,3.81,3.81,0,0,0-.08.59,3.61,3.61,0,0,0,3.47,3.72l13.64.49a3.61,3.61,0,0,0,3.72-3.46h0a3.76,3.76,0,0,0,0-.59A3.61,3.61,0,0,1,43.76,223.09Z"/><rect class="cls-5" x="290.62" y="209.56" width="19.03" height="7.19" rx="2.36" transform="translate(607.72 415.41) rotate(177.95)"/><rect class="cls-5" x="297.15" y="230.84" width="14.36" height="5.71" rx="1.88" transform="translate(616.85 456.33) rotate(177.95)"/><rect class="cls-5" x="293.05" y="223.8" width="17.84" height="7.19" rx="2.36" transform="translate(611.89 443.82) rotate(177.95)"/><rect class="cls-5" x="289.07" y="216.74" width="20.84" height="7.19" rx="2.36" transform="matrix(-1, 0.04, -0.04, -1, 606.68, 429.78)"/><path class="cls-6" d="M294.35,215.76l11.83-.42a3.63,3.63,0,0,0,3.42-3,3.42,3.42,0,0,1,0,.45h0a3.6,3.6,0,0,1-3.46,3.72l-11.83.42a3.59,3.59,0,0,1-3.72-3.46,3.44,3.44,0,0,1,0-.72A3.61,3.61,0,0,0,294.35,215.76Z"/><path class="cls-6" d="M296.77,230.07l10.65-.38a3.61,3.61,0,0,0,3.42-3c0,.14,0,.28,0,.42h0a3.6,3.6,0,0,1-3.46,3.72l-10.65.38a3.6,3.6,0,0,1-3.72-3.46,3.82,3.82,0,0,1,0-.68A3.61,3.61,0,0,0,296.77,230.07Z"/><path class="cls-6" d="M300.09,235.85l8.64-.31a2.87,2.87,0,0,0,2.72-2.46,2.57,2.57,0,0,1,.06.4,2.88,2.88,0,0,1-2.75,3l-8.65.31a2.86,2.86,0,0,1-2.95-2.75,2.15,2.15,0,0,1,0-.51A2.85,2.85,0,0,0,300.09,235.85Z"/><path class="cls-6" d="M292.75,223.09l13.64-.49a3.61,3.61,0,0,0,3.44-3.13,3.81,3.81,0,0,1,.07.59,3.61,3.61,0,0,1-3.46,3.72l-13.64.49a3.6,3.6,0,0,1-3.72-3.47h0a2.92,2.92,0,0,1,0-.59A3.6,3.6,0,0,0,292.75,223.09Z"/><path class="cls-8" d="M235.24,186a199.24,199.24,0,0,0-32.55,13.29v8.23a200.13,200.13,0,0,1,32.55-13.29,197.27,197.27,0,0,1,39-7.83v-8.24A196.64,196.64,0,0,0,235.24,186Z"/><path class="cls-8" d="M235.24,202.62a200.13,200.13,0,0,0-32.55,13.29v8.24a200.13,200.13,0,0,1,32.55-13.29,197.37,197.37,0,0,1,39-7.84v-8.23A197.27,197.27,0,0,0,235.24,202.62Z"/><path class="cls-8" d="M235.24,219.24a199.24,199.24,0,0,0-32.55,13.29v8.24a199.24,199.24,0,0,1,32.55-13.29,196.64,196.64,0,0,1,39-7.84V211.4A196.64,196.64,0,0,0,235.24,219.24Z"/><path class="cls-8" d="M125.65,255a177.41,177.41,0,0,0-28.87-11.79,175,175,0,0,0-34.61-7V171.34a171.27,171.27,0,0,1,35.67,7.21,174.66,174.66,0,0,1,27.81,11.53Z"/><path class="cls-8" d="M97.14,255.91a199.24,199.24,0,0,1,32.55,13.29v8.23a200.13,200.13,0,0,0-32.55-13.29,197.27,197.27,0,0,0-39-7.83v-8.24A196.64,196.64,0,0,1,97.14,255.91Z"/><path class="cls-9" d="M160.54,298.39v4.91a10.58,10.58,0,0,0,14.23,0v-4.91a10.61,10.61,0,0,1-14.23,0Z"/><path class="cls-9" d="M160.55,284.31v4.92a10.61,10.61,0,0,0,14.23,0v-4.92a10.58,10.58,0,0,1-14.23,0Z"/><path class="cls-9" d="M160.54,223.56v4.92a10.58,10.58,0,0,0,14.23,0v-4.92a10.58,10.58,0,0,1-14.23,0Z"/><path class="cls-9" d="M160.55,207.57v4.92a10.58,10.58,0,0,0,14.23,0v-4.92a10.58,10.58,0,0,1-14.23,0Z"/></svg>