<svg id="Calque_1" data-name="Calque 1" xmlns="http://www.w3.org/2000/svg" viewBox="0 0 298.46 191.9"><defs><style>.cls-1,.cls-3{fill:#fcb63c;}.cls-1,.cls-2{stroke:#f37b37;stroke-width:3px;}.cls-1,.cls-2,.cls-5{stroke-linejoin:round;}.cls-2{fill:#f8e995;stroke-linecap:round;}.cls-4{fill:#f37b37;}.cls-5{fill:none;stroke:#fff;stroke-width:2px;}</style></defs><title>Book_2</title><rect class="cls-1" x="1.5" y="39.03" width="295.46" height="151.37"/><path class="cls-2" d="M10.94,227.68s96.26-18.72,138.64,17V92.19c-42.38-35.74-138.64-17-138.64-17Z" transform="translate(-0.77 -54.3)"/><path class="cls-2" d="M288.22,227.68S192,209,149.58,244.7V92.19c42.38-35.74,138.64-17,138.64-17Z" transform="translate(-0.77 -54.3)"/><polygon class="cls-3" points="198.45 1 198.45 116.87 234.44 75.78 270.44 116.87 270.44 1 198.45 1"/><polygon class="cls-4" points="198.45 1 198.45 116.87 234.44 75.78 270.44 116.87 270.44 1 198.45 1"/><polygon class="cls-5" points="198.45 1 198.45 116.87 234.44 75.78 270.44 116.87 270.44 1 198.45 1"/></svg>