<svg id="Calque_1" data-name="Calque 1" xmlns="http://www.w3.org/2000/svg" viewBox="0 0 100 100"><defs><style>.cls-1{fill:#f8e995;}.cls-2{fill:#f37b37;}.cls-3{fill:#fff;}</style></defs><title>Quiz_1</title><circle class="cls-1" cx="50" cy="50" r="48.52"/><path class="cls-2" d="M50,100a50,50,0,1,1,50-50A50.06,50.06,0,0,1,50,100ZM50,3A47,47,0,1,0,97,50,47.09,47.09,0,0,0,50,3Z" transform="translate(0)"/><path class="cls-3" d="M50.06,10.28C33.17,10.28,27.8,23.43,27.3,31.2a1,1,0,0,0,.26.74,1,1,0,0,0,.72.32h5.56a1,1,0,0,0,1-.83C36.39,22.17,41.49,17.48,50,17.48c9.32,0,13.56,6.8,13.56,13.12,0,4.43-.62,9.32-8.11,16C45.77,55.22,45,61.09,45,65.93v1.45a1,1,0,0,0,1,1H51.5a1,1,0,0,0,1-1V66.6c0-5.72,1.94-9.38,7.67-14.49,8.39-7.48,11.22-12.93,11.22-21.62C71.38,20.76,64.71,10.28,50.06,10.28Z" transform="translate(0)"/><path class="cls-2" d="M51.5,70.34H46a3,3,0,0,1-3-3V65.93c0-5.26.86-11.65,11.11-20.77C61,39,61.54,34.75,61.54,30.6,61.54,25.05,58,19.46,50,19.46c-7.46,0-11.78,4-13.19,12.31a3,3,0,0,1-2.92,2.46H28.28a3,3,0,0,1-3-3.15C25.87,22.62,31.7,8.3,50.06,8.3c16,0,23.3,11.5,23.3,22.19,0,9.23-3.11,15.28-11.88,23.1-5.31,4.73-7,7.89-7,13v.78A3,3,0,0,1,51.5,70.34Zm-4.56-4h3.58c0-6.19,2.24-10.33,8.33-15.75,8-7.13,10.55-12,10.55-20.15,0-8.78-6.05-18.23-19.34-18.23-14.69,0-19.83,10.86-20.69,18H33C34.93,20.61,40.77,15.5,50,15.5c10.2,0,15.54,7.6,15.54,15.1,0,4.67-.68,10.25-8.77,17.51-9,8-9.78,13.21-9.78,17.82Z" transform="translate(0)"/><rect class="cls-3" x="44.96" y="75.94" width="7.53" height="15.2" rx="0.99"/><path class="cls-2" d="M51.5,93.12H46a3,3,0,0,1-3-3V76.93a3,3,0,0,1,3-3H51.5a3,3,0,0,1,3,3V90.15A3,3,0,0,1,51.5,93.12Zm-4.56-4h3.58V77.92H46.94Z" transform="translate(0)"/></svg>