<svg id="Calque_1" data-name="Calque 1" xmlns="http://www.w3.org/2000/svg" viewBox="0 0 99.65 94"><defs><style>.cls-1{fill:#f8e995;}.cls-2{fill:#f37b37;}.cls-3{fill:#fff;}.cls-4{fill:#fcb63c;}</style></defs><title>Quiz_2</title><circle class="cls-1" cx="47" cy="47" r="45.61"/><path class="cls-2" d="M47.17,97a47,47,0,1,1,47-47A47.05,47.05,0,0,1,47.17,97Zm0-91.21A44.21,44.21,0,1,0,91.39,50,44.26,44.26,0,0,0,47.17,5.79Z" transform="translate(-0.17 -3)"/><path class="cls-3" d="M47.23,12.66c-15.88,0-20.92,12.37-21.4,19.67a1,1,0,0,0,.25.7,1,1,0,0,0,.68.29H32a.94.94,0,0,0,.92-.77c1.48-8.71,6.27-13.12,14.23-13.12,8.76,0,12.75,6.39,12.75,12.33,0,4.17-.59,8.77-7.63,15.08-9,8.06-9.81,13.59-9.81,18.14v1.35a.92.92,0,0,0,.93.93h5.22a.93.93,0,0,0,.93-.93V65.6c0-5.38,1.82-8.81,7.21-13.61,7.88-7,10.54-12.16,10.54-20.33C67.27,22.51,61,12.66,47.23,12.66Z" transform="translate(-0.17 -3)"/><path class="cls-2" d="M48.59,69.12H43.37a2.79,2.79,0,0,1-2.79-2.79V65c0-5,.8-11,10.44-19.53,6.46-5.8,7-9.78,7-13.69,0-5.21-3.37-10.47-10.89-10.47-7,0-11.07,3.78-12.4,11.57A2.79,2.79,0,0,1,32,35.18H26.76a2.77,2.77,0,0,1-2.78-3c.52-7.95,6-21.41,23.25-21.41,15.05,0,21.9,10.81,21.9,20.86C69.13,40.34,66.21,46,58,53.37c-5,4.45-6.58,7.42-6.58,12.23v.73A2.79,2.79,0,0,1,48.59,69.12ZM44.3,65.4h3.36c.05-5.81,2.11-9.71,7.83-14.8,7.51-6.7,9.92-11.3,9.92-18.94,0-8.25-5.69-17.14-18.18-17.14-13.81,0-18.64,10.22-19.45,16.94h3.43C33,22.37,38.5,17.57,47.13,17.57c9.59,0,14.61,7.14,14.61,14.19,0,4.39-.64,9.64-8.25,16.46C45,55.78,44.3,60.64,44.3,65Z" transform="translate(-0.17 -3)"/><rect class="cls-3" x="42.26" y="71.39" width="7.08" height="14.29" rx="0.93"/><path class="cls-2" d="M48.59,90.53H43.37a2.79,2.79,0,0,1-2.79-2.79V75.31a2.79,2.79,0,0,1,2.79-2.78h5.22a2.79,2.79,0,0,1,2.79,2.78V87.74A2.79,2.79,0,0,1,48.59,90.53ZM44.3,86.81h3.36V76.24H44.3Z" transform="translate(-0.17 -3)"/><polygon class="cls-4" points="73.19 1.07 73.19 42.15 85.96 27.59 98.72 42.15 98.72 1.07 73.19 1.07"/><polygon class="cls-2" points="73.19 1.07 73.19 42.15 85.96 27.59 98.72 42.15 98.72 1.07 73.19 1.07"/><path class="cls-3" d="M98.9,46.08a.93.93,0,0,1-.7-.31L86.13,32,74.07,45.77a.93.93,0,0,1-1.63-.62V4.07a.92.92,0,0,1,.93-.93H98.9a.93.93,0,0,1,.93.93V45.15a.92.92,0,0,1-.61.87A.87.87,0,0,1,98.9,46.08ZM86.13,29.66a.93.93,0,0,1,.7.31L98,42.68V5H74.3V42.68L85.43,30A.93.93,0,0,1,86.13,29.66Z" transform="translate(-0.17 -3)"/></svg>