<svg id="Calque_1" data-name="Calque 1" xmlns="http://www.w3.org/2000/svg" viewBox="0 0 100 100"><defs><style>.cls-1{fill:#f8e995;}.cls-2{fill:#f37b37;}.cls-3,.cls-4{fill:#fff;}.cls-3{stroke:#f37b37;stroke-miterlimit:10;stroke-width:2px;}</style></defs><title>Quiz_3</title><circle class="cls-1" cx="50" cy="50" r="48.52"/><path class="cls-2" d="M50,100a50,50,0,1,1,50-50A50.06,50.06,0,0,1,50,100ZM50,3A47,47,0,1,0,97,50,47.09,47.09,0,0,0,50,3Z" transform="translate(0)"/><path class="cls-3" d="M11.48,43.42A52.55,52.55,0,0,1,23.09,55.77a52.47,52.47,0,0,1,7,15.07,134.37,134.37,0,0,1,14-30.24c11.58-18.49,24.3-28.52,23.77-29.06S53.45,21,41.61,37.75A116.54,116.54,0,0,0,30.05,58.18a67,67,0,0,0-6.71-6.61A68.82,68.82,0,0,0,11.48,43.42Z" transform="translate(0)"/><path class="cls-4" d="M63.69,36.45c-10.25,0-13.5,8-13.81,12.69a.62.62,0,0,0,.16.45.61.61,0,0,0,.44.19h3.37a.6.6,0,0,0,.59-.5c1-5.62,4.05-8.47,9.18-8.47,5.66,0,8.23,4.13,8.23,8,0,2.69-.38,5.66-4.92,9.73-5.84,5.2-6.33,8.77-6.33,11.7v.88a.6.6,0,0,0,.6.6h3.37a.6.6,0,0,0,.6-.6v-.47c0-3.47,1.17-5.69,4.65-8.79,5.09-4.54,6.8-7.85,6.8-13.12C76.62,42.8,72.58,36.45,63.69,36.45Z" transform="translate(0)"/><path class="cls-2" d="M64.57,72.88H61.2a1.8,1.8,0,0,1-1.8-1.8V70.2c0-3.19.52-7.06,6.73-12.6,4.18-3.74,4.52-6.31,4.52-8.83,0-3.36-2.17-6.76-7-6.76-4.52,0-7.14,2.44-8,7.47A1.79,1.79,0,0,1,53.85,51H50.48a1.76,1.76,0,0,1-1.31-.58,1.78,1.78,0,0,1-.49-1.34c.34-5.13,3.88-13.81,15-13.81,9.71,0,14.13,7,14.13,13.45,0,5.61-1.88,9.27-7.2,14-3.22,2.86-4.26,4.78-4.26,7.89v.47A1.8,1.8,0,0,1,64.57,72.88Zm-2.77-2.4H64c0-3.75,1.36-6.27,5-9.55,4.85-4.33,6.4-7.3,6.4-12.23,0-5.32-3.67-11.05-11.73-11.05-8.91,0-12,6.59-12.55,10.93h2.21c1.16-5.87,4.7-9,10.27-9a9,9,0,0,1,9.43,9.16c0,2.83-.41,6.22-5.32,10.62-5.48,4.88-5.93,8-5.93,10.81Z" transform="translate(0)"/><rect class="cls-4" x="60.6" y="76.28" width="4.57" height="9.22" rx="0.6"/><path class="cls-2" d="M64.57,86.69H61.2a1.79,1.79,0,0,1-1.8-1.79v-8a1.79,1.79,0,0,1,1.8-1.8h3.37a1.79,1.79,0,0,1,1.79,1.8v8A1.79,1.79,0,0,1,64.57,86.69ZM61.8,84.3H64V77.48H61.8Z" transform="translate(0)"/></svg>