<svg id="Calque_1" data-name="Calque 1" xmlns="http://www.w3.org/2000/svg" viewBox="0 0 290.42 240.65"><defs><style>.cls-1{fill:#f37b37;}.cls-2{fill:#fff;}.cls-3{fill:none;stroke:#f37b37;stroke-linecap:round;stroke-miterlimit:10;stroke-width:8px;}</style></defs><title>Volume_1</title><path class="cls-1" d="M55.77,78.35H15.47c-4.49,0-8.12,3.22-8.12,7.18V215.82c0,4,3.63,7.18,8.12,7.18h40.3c4.48,0,8.11-3.21,8.11-7.18V85.53C63.88,81.57,60.25,78.35,55.77,78.35Z" transform="translate(-4.94 -30.35)"/><path class="cls-2" d="M55.77,225.41H15.47c-5.81,0-10.53-4.3-10.53-9.59V85.53c0-5.29,4.72-9.59,10.53-9.59h40.3c5.8,0,10.52,4.3,10.52,9.59V215.82C66.29,221.11,61.57,225.41,55.77,225.41ZM15.47,80.76c-3.15,0-5.71,2.14-5.71,4.77V215.82c0,2.63,2.56,4.77,5.71,4.77h40.3c3.14,0,5.71-2.14,5.71-4.77V85.53c0-2.63-2.57-4.77-5.71-4.77Z" transform="translate(-4.94 -30.35)"/><path class="cls-1" d="M163,53.41c0-15.88-15.46-25.79-27.83-17.9L72.81,75.34a7.14,7.14,0,0,0-3.44,6V220a7.12,7.12,0,0,0,3.44,6l62.37,39.83c12.37,7.89,27.78-2,27.83-17.9l.28-97.26Z" transform="translate(-4.94 -30.35)"/><path class="cls-2" d="M144.43,271a19.56,19.56,0,0,1-10.54-3.13L71.51,228.05A9.56,9.56,0,0,1,67,220V81.33a9.55,9.55,0,0,1,4.55-8l62.38-39.83a19.25,19.25,0,0,1,19.84-.72c7.18,3.92,11.66,11.83,11.69,20.64l.28,97.27L165.42,248c0,8.81-4.51,16.72-11.69,20.64A19.31,19.31,0,0,1,144.43,271Zm0-235.85a14.72,14.72,0,0,0-7.94,2.39L74.1,77.37a4.78,4.78,0,0,0-2.32,4V220A4.77,4.77,0,0,0,74.1,224l62.38,39.83a14.31,14.31,0,0,0,14.94.55c5.64-3.07,9.16-9.37,9.18-16.43l.28-97.26-.28-97.25c0-7.06-3.54-13.35-9.18-16.43A14.51,14.51,0,0,0,144.42,35.15Z" transform="translate(-4.94 -30.35)"/><path class="cls-1" d="M208.5,266.08A7.23,7.23,0,0,1,206.34,252c13.55-4.25,38.88-15.16,56.33-40.41,24.4-35.31,24.39-84.9,0-120.6-17.43-25.48-42.79-36.63-56.36-41a7.23,7.23,0,1,1,4.43-13.76c15.33,4.94,44,17.56,63.86,46.6,27.72,40.53,27.71,96.86,0,137-19.9,28.81-48.57,41.18-63.89,46A7.42,7.42,0,0,1,208.5,266.08Z" transform="translate(-4.94 -30.35)"/><path class="cls-3" d="M187.28,209.6" transform="translate(-4.94 -30.35)"/><path class="cls-1" d="M200.75,229.15A7.23,7.23,0,0,1,198.59,215c8.61-2.7,24.7-9.62,35.76-25.62,15.48-22.4,15.47-53.87,0-76.52-11.05-16.16-27.17-23.23-35.79-26A7.23,7.23,0,0,1,203,73.11c10.39,3.34,29.81,11.9,43.29,31.61,18.8,27.48,18.79,65.68,0,92.9-13.51,19.55-32.94,27.94-43.32,31.2A7.42,7.42,0,0,1,200.75,229.15Z" transform="translate(-4.94 -30.35)"/><path class="cls-1" d="M189.81,194.78a7.23,7.23,0,0,1-2.16-14.12,30.83,30.83,0,0,0,16.59-47.37,32.28,32.28,0,0,0-16.65-12.06A7.22,7.22,0,1,1,192,107.48c5.78,1.86,16.6,6.63,24.14,17.65,10.49,15.35,10.49,36.68,0,51.88-7.57,11-18.4,15.63-24.17,17.44A7.1,7.1,0,0,1,189.81,194.78Z" transform="translate(-4.94 -30.35)"/></svg>