<svg id="Calque_1" data-name="Calque 1" xmlns="http://www.w3.org/2000/svg" viewBox="0 0 991.27 570.36"><defs><style>.cls-1{fill:#eeded4;}.cls-2{fill:#e2415e;}.cls-3{fill:#60bd72;}.cls-4{fill:#eed2b9;}.cls-5{fill:#9e94bb;}</style></defs><title>LOGO_6</title><path class="cls-1" d="M682.08,607.91H627.85l42.52-122.42h77.25l42.52,122.42H736l-7.06-20.7H689.14ZM699,558.33h20l-10-30.4Z" transform="translate(-27.99 -230.1)"/><path class="cls-1" d="M849.35,607.91H799.77V485.49h49.58Z" transform="translate(-27.99 -230.1)"/><path class="cls-1" d="M918,511.32v96.59H868.44V511.32q9.78,5.54,25.43,5.54Q908.39,516.86,918,511.32Zm-14.28.32a14.24,14.24,0,0,1-14.12-14.12,13.29,13.29,0,0,1,4.17-9.86,13.71,13.71,0,0,1,10-4.09,14,14,0,0,1,14,13.95,13.7,13.7,0,0,1-4.1,10A13.29,13.29,0,0,1,903.74,511.64Z" transform="translate(-27.99 -230.1)"/><path class="cls-1" d="M1019.26,540.52V560.9H991.18v47H941.52v-47H930.85V540.52h10.67q0-26.87,14.16-41.91t39-15q10.35,0,24.63,3.61v48.61q-7.23-8.74-15.65-8.74-5.85,0-9.14,3.69t-3.29,9.78Z" transform="translate(-27.99 -230.1)"/><path class="cls-1" d="M740.11,777.1h-60V718L628.4,641.59h60.74l21,30.73L731,641.59H791.7L740.11,718Z" transform="translate(-27.99 -230.1)"/><path class="cls-2" d="M781,714.14V682q23.26-12.71,52.75-12.7,28,0,41.38,12T888.39,718V777.1H833.52v-8A44.34,44.34,0,0,1,806.79,778q-12.25,0-20.42-7.94t-8.17-20q0-13.75,10.12-22.42t26.46-8.66a71,71,0,0,1,18.74,2.49,13.57,13.57,0,0,0-5.73-11.63q-5.73-4.17-15.94-4.17Q796.76,705.62,781,714.14Zm52.57,39.34V738.56a28.15,28.15,0,0,0-9-1.69,11.86,11.86,0,0,0-8,2.58,8.43,8.43,0,0,0-3,6.75,9.43,9.43,0,0,0,3.24,7.28,11.8,11.8,0,0,0,8.21,2.93A12.77,12.77,0,0,0,833.52,753.48Z" transform="translate(-27.99 -230.1)"/><path class="cls-3" d="M909.71,714.14V682Q933,669.3,962.45,669.3q28,0,41.38,12T1017.15,718V777.1H962.27v-8A44.34,44.34,0,0,1,935.54,778q-12.24,0-20.42-7.94T907,750q0-13.75,10.13-22.42t26.46-8.66a71,71,0,0,1,18.73,2.49,13.57,13.57,0,0,0-5.73-11.63q-5.71-4.17-15.93-4.17Q925.5,705.62,909.71,714.14Zm52.56,39.34V738.56a28.05,28.05,0,0,0-9-1.69,11.88,11.88,0,0,0-8,2.58,8.43,8.43,0,0,0-3,6.75,9.43,9.43,0,0,0,3.24,7.28,11.8,11.8,0,0,0,8.22,2.93A12.76,12.76,0,0,0,962.27,753.48Z" transform="translate(-27.99 -230.1)"/><path class="cls-4" d="M408.93,299.08c117.67,0,218.78,70.82,263.07,172.16h71.67C697,331.12,564.75,230.1,408.93,230.1,215.4,230.1,58.3,385.93,56.18,579H122C125.8,423.74,252.81,299.08,408.93,299.08Z" transform="translate(-27.99 -230.1)"/><path class="cls-1" d="M19.89,287.36h94.66a5.05,5.05,0,0,1,5.05,5.05V522.54a5.05,5.05,0,0,1-5.05,5.05H19.89A19.89,19.89,0,0,1,0,507.7V307.25a19.89,19.89,0,0,1,19.89-19.89Z"/><rect class="cls-2" x="144.39" y="266.84" width="452.12" height="303.52" rx="4.15"/><path class="cls-3" d="M398.44,496.94H605.62a18.88,18.88,0,0,1,18.88,18.88V781.58a18.88,18.88,0,0,1-18.88,18.88H398.44" transform="translate(-27.99 -230.1)"/><path class="cls-1" d="M246.35,439.73l139.16,56a19.16,19.16,0,0,1,12,17.64l1.91,266.43a19.17,19.17,0,0,1-26.33,17.92l-139.15-56a19.15,19.15,0,0,1-12-17.64L220,457.65A19.16,19.16,0,0,1,246.35,439.73Z" transform="translate(-27.99 -230.1)"/><path class="cls-5" d="M554.14,439.73,415,495.78a19.15,19.15,0,0,0-12,17.64l-1.91,266.43a19.17,19.17,0,0,0,26.33,17.92l139.15-56a19.15,19.15,0,0,0,12-17.64l1.91-266.43A19.17,19.17,0,0,0,554.14,439.73Z" transform="translate(-27.99 -230.1)"/><path class="cls-5" d="M372.56,794.34l-95.11-85.13A19,19,0,0,1,271,695.32V429.38c0-13.33,15.22-18.73,25.89-9.18L392,505.33a19,19,0,0,1,6.47,13.89V785.16C398.44,798.49,383.22,803.89,372.56,794.34Z" transform="translate(-27.99 -230.1)"/><path class="cls-1" d="M426.28,794.34l95.11-85.13a19,19,0,0,0,6.47-13.89V429.38c0-13.33-15.21-18.73-25.88-9.18l-95.11,85.13a19,19,0,0,0-6.47,13.89V785.16C400.4,798.49,415.61,803.89,426.28,794.34Z" transform="translate(-27.99 -230.1)"/></svg>