<svg id="Calque_1" data-name="Calque 1" xmlns="http://www.w3.org/2000/svg" viewBox="0 0 997.66 551.42"><defs><style>.cls-1{fill:#063b5c;}.cls-2{fill:#e2415e;}.cls-3{fill:#e26840;}.cls-4{fill:#d8a843;}.cls-5{fill:#d7d64a;}.cls-6{fill:#bad653;}.cls-7{fill:#60bd72;}</style></defs><title>LOGO_7</title><path class="cls-1" d="M682.92,608.35H628.34l42.8-123.21h77.75l42.79,123.21h-54.5l-7.1-20.83H690Zm17-49.9h20.19l-10.1-30.6Z" transform="translate(-24.62 -228.1)"/><path class="cls-2" d="M851.27,608.35h-49.9V485.14h49.9Z" transform="translate(-24.62 -228.1)"/><path class="cls-3" d="M920.38,511.14v97.21h-49.9V511.14q9.85,5.57,25.6,5.57Q910.69,516.71,920.38,511.14Zm-14.37.32a14.34,14.34,0,0,1-14.21-14.21,13.42,13.42,0,0,1,4.2-9.93,13.82,13.82,0,0,1,10-4.12,14.07,14.07,0,0,1,14,14.05,13.76,13.76,0,0,1-4.12,10A13.4,13.4,0,0,1,906,511.46Z" transform="translate(-24.62 -228.1)"/><path class="cls-4" d="M1022.27,540.53V561H994v47.31H944V561H933.3V540.53H944q0-27,14.25-42.19t39.2-15.14q10.41,0,24.78,3.64v48.92Q1015,527,1006.53,527q-5.89,0-9.2,3.72T994,540.53Z" transform="translate(-24.62 -228.1)"/><path class="cls-5" d="M741.32,778.63H680.91V719.11l-52-76.86H690l21.09,30.92,21-30.92h61.13l-51.93,76.86Z" transform="translate(-24.62 -228.1)"/><path class="cls-6" d="M782.43,715.26V682.91q23.42-12.78,53.09-12.78,28.23,0,41.64,12.07t13.41,36.91v59.52H835.34v-8a44.61,44.61,0,0,1-26.9,8.94q-12.33,0-20.56-8t-8.22-20.15q0-13.85,10.19-22.57t26.63-8.71a71.92,71.92,0,0,1,18.86,2.5,13.64,13.64,0,0,0-5.77-11.7q-5.76-4.2-16-4.2Q798.34,706.69,782.43,715.26Zm52.91,39.6v-15a28.52,28.52,0,0,0-9-1.7,11.94,11.94,0,0,0-8,2.6,8.47,8.47,0,0,0-3,6.79,9.5,9.5,0,0,0,3.26,7.33,11.89,11.89,0,0,0,8.27,2.94A12.86,12.86,0,0,0,835.34,754.86Z" transform="translate(-24.62 -228.1)"/><path class="cls-7" d="M912,715.26V682.91q23.41-12.78,53.08-12.78,28.24,0,41.65,12.07t13.4,36.91v59.52H964.92v-8a44.61,44.61,0,0,1-26.9,8.94q-12.33,0-20.55-8t-8.22-20.15q0-13.85,10.18-22.57t26.64-8.71a71.84,71.84,0,0,1,18.85,2.5,13.66,13.66,0,0,0-5.76-11.7q-5.76-4.2-16-4.2Q927.93,706.69,912,715.26Zm52.9,39.6v-15a28.47,28.47,0,0,0-9-1.7,12,12,0,0,0-8,2.6,8.5,8.5,0,0,0-3,6.79,9.48,9.48,0,0,0,3.27,7.33,11.87,11.87,0,0,0,8.26,2.94A12.84,12.84,0,0,0,964.92,754.86Z" transform="translate(-24.62 -228.1)"/><path class="cls-1" d="M408,297.52c118.43,0,220.19,71.28,264.77,173.28h72.13c-47-141-180.08-242.7-336.9-242.7-194.78,0-352.89,156.83-355,351.1h66.27C123.06,423,250.88,297.52,408,297.52Z" transform="translate(-24.62 -228.1)"/><path class="cls-1" d="M19.89,289.21h95.43a5.05,5.05,0,0,1,5.05,5.05V525.95a5.05,5.05,0,0,1-5.05,5.05H19.89A19.89,19.89,0,0,1,0,511.11v-202a19.89,19.89,0,0,1,19.89-19.89Z"/><rect class="cls-2" x="134.76" y="225.76" width="455.04" height="305.48" rx="4.15"/><path class="cls-7" d="M384.26,453.72H602.59a9.18,9.18,0,0,1,9.19,9.18V750a9.18,9.18,0,0,1-9.19,9.19H384.26" transform="translate(-24.62 -228.1)"/><path class="cls-3" d="M233.83,396.29l140,56.4A19.31,19.31,0,0,1,386,470.45l1.91,268.15a19.29,19.29,0,0,1-26.49,18l-140-56.41a19.28,19.28,0,0,1-12.08-17.75l-1.92-268.15A19.28,19.28,0,0,1,233.83,396.29Z" transform="translate(-24.62 -228.1)"/><path class="cls-6" d="M543.61,396.29l-140,56.4a19.29,19.29,0,0,0-12.08,17.76L389.56,738.6a19.29,19.29,0,0,0,26.49,18L556.1,700.22a19.26,19.26,0,0,0,12.08-17.75l1.92-268.15A19.28,19.28,0,0,0,543.61,396.29Z" transform="translate(-24.62 -228.1)"/><path class="cls-4" d="M360.85,753.18,265.13,667.5a19.13,19.13,0,0,1-6.52-14V385.86c0-13.42,15.32-18.85,26.05-9.24l95.72,85.69a19.08,19.08,0,0,1,6.52,14V743.94C386.9,757.36,371.59,762.79,360.85,753.18Z" transform="translate(-24.62 -228.1)"/><path class="cls-5" d="M414.92,753.18l95.72-85.68a19.13,19.13,0,0,0,6.52-14V385.86c0-13.42-15.32-18.85-26-9.24l-95.72,85.69a19.08,19.08,0,0,0-6.52,14V743.94C388.87,757.36,404.18,762.79,414.92,753.18Z" transform="translate(-24.62 -228.1)"/></svg>