<svg id="Calque_1" data-name="Calque 1" xmlns="http://www.w3.org/2000/svg" viewBox="0 0 1000.86 575.89"><defs><style>.cls-1{fill:#eeded4;}.cls-2{fill:#f37b38;}.cls-3{fill:#063b5c;}.cls-4{fill:#eed2b9;}.cls-5{fill:#9e94bb;}</style></defs><title>LOGO_4</title><path class="cls-1" d="M683.73,608.57H629L671.91,485h78l42.93,123.6H738.17L731,587.67H690.86Zm17.09-50.06h20.25L711,527.81Z" transform="translate(-23.31 -227.1)"/><path class="cls-1" d="M852.62,608.57H802.56V485h50.06Z" transform="translate(-23.31 -227.1)"/><path class="cls-1" d="M922,511.05v97.52H871.89V511.05q9.89,5.58,25.68,5.59Q912.23,516.64,922,511.05Zm-14.42.32a14.38,14.38,0,0,1-14.25-14.25,13.46,13.46,0,0,1,4.21-10,13.87,13.87,0,0,1,10-4.13,14.1,14.1,0,0,1,14.1,14.1,13.87,13.87,0,0,1-4.13,10A13.46,13.46,0,0,1,907.53,511.37Z" transform="translate(-23.31 -227.1)"/><path class="cls-1" d="M1024.17,540.53v20.58H995.82v47.46H945.68V561.11H934.91V540.53h10.77q0-27.13,14.3-42.32T999.3,483q10.46,0,24.87,3.65v49.08q-7.29-8.82-15.79-8.83c-4,0-7,1.25-9.24,3.73s-3.32,5.78-3.32,9.88Z" transform="translate(-23.31 -227.1)"/><path class="cls-1" d="M742.32,779.39H681.71V719.68l-52.18-77.1h61.33l21.16,31,21.06-31h61.33l-52.09,77.1Z" transform="translate(-23.31 -227.1)"/><path class="cls-2" d="M783.56,715.83V683.37q23.49-12.81,53.25-12.82,28.34,0,41.78,12.11t13.45,37v59.71h-55.4v-8.07a44.77,44.77,0,0,1-27,9q-12.37,0-20.62-8t-8.25-20.21q0-13.9,10.22-22.64t26.72-8.74a72,72,0,0,1,18.92,2.51,13.71,13.71,0,0,0-5.79-11.75q-5.77-4.2-16.09-4.21Q799.52,707.22,783.56,715.83Zm53.08,39.71V740.48a28.69,28.69,0,0,0-9.06-1.7,12,12,0,0,0-8.07,2.6,8.52,8.52,0,0,0-3,6.81,9.48,9.48,0,0,0,3.28,7.35,11.85,11.85,0,0,0,8.29,3A12.85,12.85,0,0,0,836.64,755.54Z" transform="translate(-23.31 -227.1)"/><path class="cls-3" d="M913.56,715.83V683.37q23.49-12.81,53.25-12.82,28.34,0,41.78,12.11t13.45,37v59.71h-55.4v-8.07a44.77,44.77,0,0,1-27,9q-12.37,0-20.62-8t-8.25-20.21q0-13.9,10.22-22.64t26.72-8.74a72,72,0,0,1,18.92,2.51,13.71,13.71,0,0,0-5.79-11.75q-5.77-4.2-16.09-4.21Q929.52,707.22,913.56,715.83Zm53.08,39.71V740.48a28.69,28.69,0,0,0-9.06-1.7,12,12,0,0,0-8.07,2.6,8.52,8.52,0,0,0-3,6.81,9.48,9.48,0,0,0,3.28,7.35,11.85,11.85,0,0,0,8.29,3A12.85,12.85,0,0,0,966.64,755.54Z" transform="translate(-23.31 -227.1)"/><path class="cls-4" d="M407.93,296.75c118.81,0,220.9,71.51,265.62,173.82h72.37C698.75,329.1,565.26,227.1,407.93,227.1c-195.4,0-354,157.34-356.15,352.23h66.47C122.07,422.62,250.3,296.75,407.93,296.75Z" transform="translate(-23.31 -227.1)"/><path class="cls-1" d="M19.89,290.14h95.82a5.05,5.05,0,0,1,5.05,5.05V527.65a5.05,5.05,0,0,1-5.05,5.05H19.89A19.89,19.89,0,0,1,0,512.81V310a19.89,19.89,0,0,1,19.89-19.89Z"/><rect class="cls-2" x="145.78" y="269.42" width="456.5" height="306.46" rx="4.15"/><path class="cls-3" d="M397.34,496.52H606.53a19.06,19.06,0,0,1,19.06,19.07V783.92A19.06,19.06,0,0,1,606.53,803H397.34" transform="translate(-23.31 -227.1)"/><path class="cls-1" d="M243.79,438.76l140.49,56.59a19.36,19.36,0,0,1,12.13,17.81l1.92,269a19.35,19.35,0,0,1-26.58,18.08l-140.5-56.58a19.37,19.37,0,0,1-12.12-17.82l-1.92-269A19.35,19.35,0,0,1,243.79,438.76Z" transform="translate(-23.31 -227.1)"/><path class="cls-5" d="M554.55,438.76,414.06,495.35a19.36,19.36,0,0,0-12.13,17.81l-1.92,269a19.35,19.35,0,0,0,26.58,18.08l140.5-56.58a19.37,19.37,0,0,0,12.12-17.82l1.92-269A19.35,19.35,0,0,0,554.55,438.76Z" transform="translate(-23.31 -227.1)"/><path class="cls-5" d="M371.21,796.8l-96-86a19.18,19.18,0,0,1-6.54-14V428.3c0-13.45,15.37-18.9,26.14-9.26l96,86a19.17,19.17,0,0,1,6.53,14V787.54C397.34,801,382,806.44,371.21,796.8Z" transform="translate(-23.31 -227.1)"/><path class="cls-1" d="M425.45,796.8l96-86a19.14,19.14,0,0,0,6.54-14V428.3c0-13.45-15.37-18.9-26.14-9.26l-96,86a19.14,19.14,0,0,0-6.54,14V787.54C399.32,801,414.68,806.44,425.45,796.8Z" transform="translate(-23.31 -227.1)"/></svg>