<svg id="Calque_1" data-name="Calque 1" xmlns="http://www.w3.org/2000/svg" viewBox="0 0 1000.86 553.19"><defs><style>.cls-1{fill:#f8a787;}.cls-2{fill:#e2415e;}.cls-3{fill:#e26840;}.cls-4{fill:#d8a843;}.cls-5{fill:#d7d64a;}.cls-6{fill:#bad653;}.cls-7{fill:#60bd72;}.cls-8{fill:#f8ca92;}</style></defs><title>LOGO_2</title><path class="cls-1" d="M682.89,608.57H628.13L671.06,485h78L792,608.57H737.32l-7.13-20.9H690ZM700,558.51h20.25l-10.13-30.7Z" transform="translate(-22.46 -227.1)"/><path class="cls-2" d="M851.77,608.57H801.71V485h50.06Z" transform="translate(-22.46 -227.1)"/><path class="cls-3" d="M921.1,511.05v97.52H871.05V511.05q9.87,5.58,25.67,5.58Q911.39,516.63,921.1,511.05Zm-14.41.32a14.38,14.38,0,0,1-14.26-14.26,13.45,13.45,0,0,1,4.21-10A13.88,13.88,0,0,1,906.69,483a14.1,14.1,0,0,1,14.09,14.09,13.88,13.88,0,0,1-4.13,10.05A13.45,13.45,0,0,1,906.69,511.37Z" transform="translate(-22.46 -227.1)"/><path class="cls-4" d="M1023.32,540.53V561.1H995v47.47H944.84V561.1H934.06V540.53h10.78q0-27.13,14.29-42.32T998.46,483q10.44,0,24.86,3.65v49.08q-7.29-8.82-15.79-8.83-5.91,0-9.24,3.73T995,540.53Z" transform="translate(-22.46 -227.1)"/><path class="cls-5" d="M741.47,779.39h-60.6V719.68l-52.18-77.1H690l21.16,31,21.07-31h61.32l-52.09,77.1Z" transform="translate(-22.46 -227.1)"/><path class="cls-6" d="M782.71,715.83V683.37Q806.2,670.56,836,670.55q28.32,0,41.78,12.11t13.44,37v59.71h-55.4v-8.07a44.77,44.77,0,0,1-27,9q-12.37,0-20.62-8t-8.25-20.21q0-13.9,10.22-22.64t26.72-8.74a72,72,0,0,1,18.92,2.51A13.71,13.71,0,0,0,830,711.43q-5.78-4.2-16.09-4.21Q798.67,707.22,782.71,715.83Zm53.08,39.71V740.48a28.69,28.69,0,0,0-9.06-1.7,12,12,0,0,0-8.07,2.6,8.51,8.51,0,0,0-3,6.81,9.5,9.5,0,0,0,3.27,7.35,11.85,11.85,0,0,0,8.29,3A12.83,12.83,0,0,0,835.79,755.54Z" transform="translate(-22.46 -227.1)"/><path class="cls-7" d="M912.71,715.83V683.37Q936.2,670.56,966,670.55q28.32,0,41.78,12.11t13.44,37v59.71h-55.4v-8.07a44.77,44.77,0,0,1-27,9q-12.37,0-20.62-8t-8.25-20.21q0-13.9,10.22-22.64t26.72-8.74a72,72,0,0,1,18.92,2.51A13.71,13.71,0,0,0,960,711.43q-5.78-4.2-16.09-4.21Q928.67,707.22,912.71,715.83Zm53.08,39.71V740.48a28.69,28.69,0,0,0-9.06-1.7,12,12,0,0,0-8.07,2.6,8.51,8.51,0,0,0-3,6.81,9.5,9.5,0,0,0,3.27,7.35,11.85,11.85,0,0,0,8.29,3A12.83,12.83,0,0,0,965.79,755.54Z" transform="translate(-22.46 -227.1)"/><path class="cls-8" d="M407.09,296.75c118.8,0,220.89,71.51,265.62,173.82h72.36C697.9,329.1,564.41,227.1,407.09,227.1c-195.4,0-354,157.34-356.16,352.23h66.48C121.22,422.62,249.45,296.75,407.09,296.75Z" transform="translate(-22.46 -227.1)"/><path class="cls-1" d="M19.89,290.14h95.82a5.05,5.05,0,0,1,5.05,5.05V527.65a5.05,5.05,0,0,1-5.05,5.05H19.89A19.89,19.89,0,0,1,0,512.81V310a19.89,19.89,0,0,1,19.89-19.89Z"/><rect class="cls-2" x="135.2" y="226.49" width="456.5" height="306.46" rx="4.15"/><path class="cls-7" d="M383.26,453.44h219a9.22,9.22,0,0,1,9.22,9.22v288a9.21,9.21,0,0,1-9.22,9.21h-219" transform="translate(-22.46 -227.1)"/><path class="cls-3" d="M232.35,395.83l140.5,56.58A19.35,19.35,0,0,1,385,470.23l1.93,269a19.35,19.35,0,0,1-26.58,18.09l-140.5-56.59a19.34,19.34,0,0,1-12.12-17.81l-1.93-269A19.35,19.35,0,0,1,232.35,395.83Z" transform="translate(-22.46 -227.1)"/><path class="cls-6" d="M543.12,395.83l-140.5,56.58a19.37,19.37,0,0,0-12.12,17.82l-1.92,269a19.35,19.35,0,0,0,26.58,18.09l140.49-56.59a19.36,19.36,0,0,0,12.13-17.81l1.92-269A19.35,19.35,0,0,0,543.12,395.83Z" transform="translate(-22.46 -227.1)"/><path class="cls-4" d="M359.78,753.87l-96-86a19.17,19.17,0,0,1-6.54-14V385.37c0-13.46,15.36-18.91,26.13-9.27l96,86a19.14,19.14,0,0,1,6.54,14V744.6C385.91,758.06,370.55,763.51,359.78,753.87Z" transform="translate(-22.46 -227.1)"/><path class="cls-5" d="M414,753.87l96-86a19.19,19.19,0,0,0,6.53-14V385.37c0-13.46-15.36-18.91-26.13-9.27l-96,86a19.18,19.18,0,0,0-6.54,14V744.6C387.88,758.06,403.25,763.51,414,753.87Z" transform="translate(-22.46 -227.1)"/></svg>