<svg id="Calque_1" data-name="Calque 1" xmlns="http://www.w3.org/2000/svg" viewBox="0 0 1000.87 553.2"><defs><style>.cls-1{fill:#eed2b9;}.cls-2{fill:#e2415e;}.cls-3{fill:#e26840;}.cls-4{fill:#d8a843;}.cls-5{fill:#d7d64a;}.cls-6{fill:#bad653;}.cls-7{fill:#60bd72;}.cls-8{fill:#eeded4;}</style></defs><title>LOGO_5</title><path class="cls-1" d="M683.66,608.57H628.9L671.83,485h78l42.93,123.61H738.09L731,587.67H690.78Zm17.09-50.06H721l-10.13-30.7Z" transform="translate(-23.23 -227.1)"/><path class="cls-2" d="M852.54,608.57H802.48V485h50.06Z" transform="translate(-23.23 -227.1)"/><path class="cls-3" d="M921.88,511.05v97.52H871.82V511.05q9.88,5.58,25.67,5.59Q912.16,516.64,921.88,511.05Zm-14.42.32a14.38,14.38,0,0,1-14.26-14.26,13.49,13.49,0,0,1,4.21-10A13.88,13.88,0,0,1,907.46,483a14.1,14.1,0,0,1,14.09,14.09,13.88,13.88,0,0,1-4.13,10.05A13.42,13.42,0,0,1,907.46,511.37Z" transform="translate(-23.23 -227.1)"/><path class="cls-4" d="M1024.1,540.53V561.1H995.75v47.47H945.61V561.1H934.84V540.53h10.77q0-27.13,14.3-42.32T999.23,483q10.46,0,24.87,3.65v49.08q-7.29-8.82-15.8-8.83-5.91,0-9.23,3.73t-3.32,9.88Z" transform="translate(-23.23 -227.1)"/><path class="cls-5" d="M742.24,779.4H681.63V719.69l-52.17-77.11h61.32l21.16,31,21.07-31h61.32l-52.09,77.11Z" transform="translate(-23.23 -227.1)"/><path class="cls-6" d="M783.48,715.83V683.38q23.49-12.82,53.26-12.83,28.34,0,41.78,12.11t13.45,37V779.4H836.56v-8.07a44.8,44.8,0,0,1-27,9q-12.36,0-20.62-8t-8.25-20.22q0-13.89,10.23-22.64t26.71-8.74a72,72,0,0,1,18.92,2.51,13.71,13.71,0,0,0-5.78-11.74q-5.79-4.22-16.1-4.22Q799.44,707.22,783.48,715.83Zm53.08,39.72V740.49a28.45,28.45,0,0,0-9.06-1.71,12,12,0,0,0-8.06,2.6,8.52,8.52,0,0,0-3.05,6.82,9.5,9.5,0,0,0,3.27,7.35,11.89,11.89,0,0,0,8.29,3A12.88,12.88,0,0,0,836.56,755.55Z" transform="translate(-23.23 -227.1)"/><path class="cls-7" d="M913.48,715.83V683.38q23.49-12.82,53.26-12.83,28.34,0,41.78,12.11t13.45,37V779.4H966.56v-8.07a44.8,44.8,0,0,1-27,9q-12.36,0-20.62-8t-8.25-20.22q0-13.89,10.23-22.64t26.71-8.74a72,72,0,0,1,18.92,2.51,13.71,13.71,0,0,0-5.78-11.74q-5.79-4.22-16.1-4.22Q929.44,707.22,913.48,715.83Zm53.08,39.72V740.49a28.45,28.45,0,0,0-9.06-1.71,12,12,0,0,0-8.06,2.6,8.52,8.52,0,0,0-3.05,6.82,9.5,9.5,0,0,0,3.27,7.35,11.89,11.89,0,0,0,8.29,3A12.88,12.88,0,0,0,966.56,755.55Z" transform="translate(-23.23 -227.1)"/><path class="cls-8" d="M407.85,296.75c118.81,0,220.9,71.51,265.63,173.83h72.36C698.68,329.1,565.18,227.1,407.85,227.1c-195.4,0-354,157.34-356.16,352.23h66.48C122,422.62,250.22,296.75,407.85,296.75Z" transform="translate(-23.23 -227.1)"/><path class="cls-1" d="M19.89,290.14h95.82a5.05,5.05,0,0,1,5.05,5.05V527.65a5.05,5.05,0,0,1-5.05,5.05H19.89A19.89,19.89,0,0,1,0,512.81V310a19.89,19.89,0,0,1,19.89-19.89Z"/><rect class="cls-2" x="135.2" y="226.49" width="456.5" height="306.46" rx="4.15"/><path class="cls-7" d="M384,453.44h219a9.22,9.22,0,0,1,9.22,9.22v288a9.22,9.22,0,0,1-9.22,9.22H384" transform="translate(-23.23 -227.1)"/><path class="cls-3" d="M233.12,395.83l140.5,56.59a19.34,19.34,0,0,1,12.12,17.81l1.93,269a19.36,19.36,0,0,1-26.58,18.09l-140.5-56.59a19.35,19.35,0,0,1-12.13-17.81l-1.92-269A19.35,19.35,0,0,1,233.12,395.83Z" transform="translate(-23.23 -227.1)"/><path class="cls-6" d="M543.89,395.83l-140.5,56.59a19.34,19.34,0,0,0-12.12,17.81l-1.93,269a19.36,19.36,0,0,0,26.58,18.09l140.5-56.59a19.35,19.35,0,0,0,12.13-17.81l1.92-269A19.35,19.35,0,0,0,543.89,395.83Z" transform="translate(-23.23 -227.1)"/><path class="cls-4" d="M360.54,753.87l-96-86a19.17,19.17,0,0,1-6.53-14V385.37c0-13.46,15.36-18.91,26.13-9.27l96,86a19.16,19.16,0,0,1,6.54,14V744.6C386.68,758.06,371.31,763.51,360.54,753.87Z" transform="translate(-23.23 -227.1)"/><path class="cls-5" d="M414.79,753.87l96-86a19.17,19.17,0,0,0,6.53-14V385.37c0-13.46-15.36-18.91-26.13-9.27l-96,86a19.2,19.2,0,0,0-6.54,14V744.6C388.65,758.06,404,763.51,414.79,753.87Z" transform="translate(-23.23 -227.1)"/></svg>