<svg id="Calque_1" data-name="Calque 1" xmlns="http://www.w3.org/2000/svg" viewBox="0 0 1010.45 581.41"><defs><style>.cls-1{fill:#eeded4;}.cls-2{fill:#ef6c27;}.cls-3{fill:#60bd72;}.cls-4{fill:#eed2b9;}.cls-5{fill:#9e94bb;}</style></defs><title>LOGO_3</title><path class="cls-1" d="M685.3,609.22H630l43.34-124.79h78.75l43.34,124.79H740.26l-7.2-21.1H692.5Zm17.26-50.54H723l-10.22-31Z" transform="translate(-18.55 -224.1)"/><path class="cls-1" d="M855.8,609.22H805.27V484.43H855.8Z" transform="translate(-18.55 -224.1)"/><path class="cls-1" d="M925.8,510.76v98.46H875.27V510.76q10,5.64,25.92,5.65Q916,516.41,925.8,510.76Zm-14.55.33a14.51,14.51,0,0,1-14.39-14.39,13.55,13.55,0,0,1,4.25-10.06,14,14,0,0,1,10.14-4.17,14.24,14.24,0,0,1,14.23,14.23,14,14,0,0,1-4.17,10.14A13.6,13.6,0,0,1,911.25,511.09Z" transform="translate(-18.55 -224.1)"/><path class="cls-1" d="M1029,540.53V561.3h-28.62v47.92H949.76V561.3H938.89V540.53h10.87q0-27.39,14.44-42.73t39.7-15.33q10.54,0,25.1,3.68V535.7q-7.35-8.91-15.94-8.91-6,0-9.32,3.76t-3.36,10Z" transform="translate(-18.55 -224.1)"/><path class="cls-1" d="M744.45,781.68H683.26V721.4l-52.68-77.84H692.5l21.36,31.32,21.27-31.32H797L744.45,721.4Z" transform="translate(-18.55 -224.1)"/><path class="cls-2" d="M786.09,717.51V684.74q23.71-12.94,53.76-12.94,28.6,0,42.18,12.22t13.58,37.38v60.28H839.67v-8.14a45.23,45.23,0,0,1-27.24,9.05q-12.49,0-20.82-8.1t-8.33-20.41q0-14,10.32-22.86t27-8.83a72.43,72.43,0,0,1,19.1,2.54,13.83,13.83,0,0,0-5.84-11.86q-5.83-4.25-16.24-4.25Q802.2,708.82,786.09,717.51Zm53.58,40.09V742.4a28.65,28.65,0,0,0-9.14-1.72,12.13,12.13,0,0,0-8.15,2.62,8.61,8.61,0,0,0-3.07,6.88,9.59,9.59,0,0,0,3.3,7.42,12,12,0,0,0,8.37,3A13,13,0,0,0,839.67,757.6Z" transform="translate(-18.55 -224.1)"/><path class="cls-3" d="M917.33,717.51V684.74Q941,671.8,971.1,671.8q28.6,0,42.18,12.22t13.57,37.38v60.28H970.92v-8.14a45.23,45.23,0,0,1-27.25,9.05q-12.49,0-20.82-8.1t-8.32-20.41q0-14,10.31-22.86t27-8.83a72.54,72.54,0,0,1,19.1,2.54,13.85,13.85,0,0,0-5.84-11.86q-5.83-4.25-16.25-4.25Q933.44,708.82,917.33,717.51Zm53.59,40.09V742.4a28.71,28.71,0,0,0-9.15-1.72,12.1,12.1,0,0,0-8.14,2.62,8.62,8.62,0,0,0-3.08,6.88,9.59,9.59,0,0,0,3.3,7.42,12,12,0,0,0,8.38,3A13,13,0,0,0,970.92,757.6Z" transform="translate(-18.55 -224.1)"/><path class="cls-4" d="M406.86,294.41c119.95,0,223,72.2,268.17,175.5h73.05C700.47,327.08,565.7,224.1,406.86,224.1,209.59,224.1,49.44,383,47.29,579.71H114.4C118.26,421.49,247.72,294.41,406.86,294.41Z" transform="translate(-18.55 -224.1)"/><path class="cls-1" d="M19.89,292.92h97a5.05,5.05,0,0,1,5.05,5.05V532.76a5.05,5.05,0,0,1-5.05,5.05h-97A19.89,19.89,0,0,1,0,517.92V312.81a19.89,19.89,0,0,1,19.89-19.89Z"/><rect class="cls-2" x="147.18" y="272.01" width="460.88" height="309.4" rx="4.15"/><path class="cls-3" d="M396.17,496.1H607.36a19.25,19.25,0,0,1,19.25,19.25V786.26a19.24,19.24,0,0,1-19.25,19.24H396.17" transform="translate(-18.55 -224.1)"/><path class="cls-1" d="M241.14,437.79,383,494.92a19.54,19.54,0,0,1,12.23,18l1.95,271.59a19.54,19.54,0,0,1-26.84,18.26L228.49,745.63a19.54,19.54,0,0,1-12.24-18l-1.94-271.6A19.53,19.53,0,0,1,241.14,437.79Z" transform="translate(-18.55 -224.1)"/><path class="cls-5" d="M554.89,437.79,413,494.92a19.54,19.54,0,0,0-12.23,18L398.86,784.5a19.54,19.54,0,0,0,26.84,18.26l141.84-57.13a19.54,19.54,0,0,0,12.24-18l1.94-271.6A19.53,19.53,0,0,0,554.89,437.79Z" transform="translate(-18.55 -224.1)"/><path class="cls-5" d="M369.79,799.27l-97-86.79a19.33,19.33,0,0,1-6.6-14.16V427.23c0-13.58,15.51-19.09,26.38-9.35l96.95,86.78a19.34,19.34,0,0,1,6.6,14.16V789.91C396.17,803.5,380.66,809,369.79,799.27Z" transform="translate(-18.55 -224.1)"/><path class="cls-1" d="M424.55,799.27l96.95-86.79a19.36,19.36,0,0,0,6.6-14.16V427.23c0-13.58-15.51-19.09-26.39-9.35l-96.95,86.78a19.38,19.38,0,0,0-6.6,14.16V789.91C398.16,803.5,413.68,809,424.55,799.27Z" transform="translate(-18.55 -224.1)"/></svg>