<svg id="Calque_1" data-name="Calque 1" xmlns="http://www.w3.org/2000/svg" viewBox="0 0 965.69 555.65"><defs><style>.cls-1{fill:#eeded4;}.cls-2{fill:#b9acc3;}.cls-3{fill:#9e94bb;}.cls-4{fill:#5f5da8;}.cls-5{fill:#fcb63c;}.cls-6{fill:#f37b38;}.cls-7{fill:#ef6c27;}</style></defs><title>LOGO_SVG</title><path class="cls-1" d="M678,606.16H625.19L666.61,486.9h75.26l41.42,119.26H730.54L723.66,586H684.9Zm16.49-48.3h19.54l-9.77-29.62Z" transform="translate(-40.81 -238.1)"/><path class="cls-2" d="M841,606.16h-48.3V486.9H841Z" transform="translate(-40.81 -238.1)"/><path class="cls-3" d="M907.87,512.06v94.1h-48.3v-94.1q9.54,5.4,24.77,5.4Q898.48,517.46,907.87,512.06Zm-13.91.32a13.9,13.9,0,0,1-13.76-13.76,13,13,0,0,1,4.07-9.61,13.35,13.35,0,0,1,9.69-4,13.62,13.62,0,0,1,13.6,13.6,13.35,13.35,0,0,1-4,9.69A13,13,0,0,1,894,512.38Z" transform="translate(-40.81 -238.1)"/><path class="cls-4" d="M1006.5,540.51v19.85H979.14v45.8H930.77v-45.8h-10.4V540.51h10.4q0-26.18,13.79-40.83T982.5,485q10.1,0,24,3.52V535.9q-7-8.52-15.24-8.52-5.71,0-8.91,3.6t-3.21,9.53Z" transform="translate(-40.81 -238.1)"/><path class="cls-5" d="M734.55,771H676.07V713.37L625.73,639H684.9l20.41,29.93L725.64,639h59.17l-50.26,74.39Z" transform="translate(-40.81 -238.1)"/><path class="cls-6" d="M774.34,709.65V678.34Q797,666,825.72,666q27.35,0,40.32,11.67t13,35.73V771H825.55V763.2a43.24,43.24,0,0,1-26,8.65q-11.93,0-19.89-7.74t-8-19.51q0-13.41,9.86-21.84t25.78-8.44a69.44,69.44,0,0,1,18.25,2.42A13.23,13.23,0,0,0,820,705.41q-5.58-4.06-15.52-4.06Q789.73,701.35,774.34,709.65ZM825.55,748V733.44a27.36,27.36,0,0,0-8.73-1.64,11.59,11.59,0,0,0-7.79,2.5,8.25,8.25,0,0,0-2.94,6.58,9.14,9.14,0,0,0,3.16,7.09,11.44,11.44,0,0,0,8,2.86A12.37,12.37,0,0,0,825.55,748Z" transform="translate(-40.81 -238.1)"/><path class="cls-7" d="M899.77,709.65V678.34Q922.44,666,951.16,666q27.33,0,40.31,11.67t13,35.73V771H951V763.2a43.23,43.23,0,0,1-26,8.65q-11.94,0-19.9-7.74t-8-19.51q0-13.41,9.86-21.84t25.78-8.44A69.44,69.44,0,0,1,951,716.74a13.23,13.23,0,0,0-5.58-11.33q-5.58-4.06-15.52-4.06Q915.17,701.35,899.77,709.65ZM951,748V733.44a27.36,27.36,0,0,0-8.73-1.64,11.61,11.61,0,0,0-7.79,2.5,8.25,8.25,0,0,0-2.94,6.58,9.14,9.14,0,0,0,3.16,7.09,11.44,11.44,0,0,0,8,2.86A12.37,12.37,0,0,0,951,748Z" transform="translate(-40.81 -238.1)"/><path class="cls-1" d="M411.91,305.3c114.64,0,213.14,69,256.29,167.72H738C692.51,336.52,563.71,238.1,411.91,238.1,223.38,238.1,70.33,389.91,68.27,578h64.14C136.09,426.74,259.82,305.3,411.91,305.3Z" transform="translate(-40.81 -238.1)"/><path class="cls-1" d="M19.89,279.94h91.58a5.05,5.05,0,0,1,5.05,5.05V508.93a5.05,5.05,0,0,1-5.05,5.05H19.89A19.89,19.89,0,0,1,0,494.09V299.84a19.89,19.89,0,0,1,19.89-19.89Z"/><rect class="cls-7" x="140.66" y="259.96" width="440.46" height="295.69" rx="4.15"/><path class="cls-4" d="M401.7,498.05H603.53a18.4,18.4,0,0,1,18.4,18.4v258.9a18.4,18.4,0,0,1-18.4,18.4H401.7" transform="translate(-40.81 -238.1)"/><path class="cls-6" d="M253.53,442.32l135.57,54.6a18.67,18.67,0,0,1,11.69,17.19l1.86,259.56A18.68,18.68,0,0,1,377,791.12l-135.56-54.6a18.66,18.66,0,0,1-11.69-17.18l-1.86-259.56A18.67,18.67,0,0,1,253.53,442.32Z" transform="translate(-40.81 -238.1)"/><path class="cls-3" d="M553.38,442.32l-135.56,54.6a18.67,18.67,0,0,0-11.69,17.19l-1.86,259.56a18.67,18.67,0,0,0,25.64,17.45l135.57-54.6a18.66,18.66,0,0,0,11.69-17.18L579,459.78A18.68,18.68,0,0,0,553.38,442.32Z" transform="translate(-40.81 -238.1)"/><path class="cls-5" d="M376.48,787.78l-92.65-82.94a18.48,18.48,0,0,1-6.31-13.53V432.23c0-13,14.82-18.24,25.21-8.94l92.66,82.94a18.51,18.51,0,0,1,6.31,13.53V778.84C401.7,791.83,386.87,797.08,376.48,787.78Z" transform="translate(-40.81 -238.1)"/><path class="cls-2" d="M428.82,787.78l92.65-82.94a18.48,18.48,0,0,0,6.31-13.53V432.23c0-13-14.83-18.24-25.22-8.94l-92.65,82.94a18.51,18.51,0,0,0-6.31,13.53V778.84C403.6,791.83,418.43,797.08,428.82,787.78Z" transform="translate(-40.81 -238.1)"/></svg>