<svg xmlns="http://www.w3.org/2000/svg" width="100.372" height="99.04" viewBox="0 0 100.372 99.04"><g transform="translate(0)"><path d="M2610.622,1408.223c-1.571-8.013-1.25-16.7-5.428-23.716-4.219-7.083-12.1-10.932-18.682-15.9-2.36-1.783-4.633-3.773-7.382-4.866-2.957-1.175-6.224-1.214-9.4-1.238-11.544-.086-23.781.011-33.608,6.067-6.585,4.058-11.386,10.393-16.019,16.587-2.445,3.267-4.925,6.607-6.241,10.469-2.847,8.357.186,17.416,1.041,26.2.465,4.783.306,9.77,2.254,14.163,1.756,3.961,5.04,7,8.237,9.928l13.5,12.352,1.213.137c6.322,3.624,14.072,3.294,21.346,2.859,3.656-.219,7.428-.467,10.7-2.108,3.371-1.689,5.876-4.685,8.906-6.931,5.944-4.406,13.682-5.773,19.757-10a31.405,31.405,0,0,0,6.837-6.688,24.111,24.111,0,0,0,5.235-11.385C2613.577,1418.808,2611.66,1413.517,2610.622,1408.223Z" transform="translate(-2512.663 -1362.486)" fill="#fff"/><g transform="translate(0.488 8.296)"><path d="M2516.1,1421.379c-1.694,4.766,1.068,9.855,3.728,14.157a31.866,31.866,0,0,0,5.918,7.688c1.464,1.259,3.153,2.247,4.541,3.589,1.433,1.384,2.5,3.1,3.886,4.535,3.554,3.673,8.786,5.1,13.784,6.167,4.177.894,8.383,1.647,12.587,2.4a42.092,42.092,0,0,0,9.211.959c7.135-.311,13.6-4.2,19.3-8.51a59.029,59.029,0,0,0,12.6-12.308,30.208,30.208,0,0,0,6.016-16.354c.115-3.457-.512-6.945.039-10.36.392-2.426,1.373-4.764,1.42-7.222a15.589,15.589,0,0,0-.815-4.77,41.438,41.438,0,0,0-21.981-25.291l-16.716,8.534c-2.437,1.244-5.115,2.525-7.8,1.987-1.883-.378-3.486-1.614-5.326-2.163-4.037-1.205-9.064.865-12.248-1.894-1.074-.93-1.741-2.3-2.938-3.066-1.9-1.213-4.4-.509-6.461.411a38.281,38.281,0,0,0-15.942,13.366c-5.437,8.013-7.525,18.965-2.87,27.455" transform="translate(-2513.462 -1376.06)" fill="#b44fbf"/></g></g><g transform="translate(10.645 22.989)"><path d="M2585.581,1473.255c-1.381-.043-2.522.159-3.908.145h-.013l-28.742.8h-.019a156.428,156.428,0,0,0-16.6,2.3h0l0,0-2.075.454h0l0,0c-7.425,3.163.629,4.752,5.4,5.068a1.033,1.033,0,0,0,.06.51,1.771,1.771,0,0,0,.782.823,9.64,9.64,0,0,0,3.483,1.018c4.416.639,10.458.154,13.69-1.137a4.3,4.3,0,0,0,1.672-1.037c4.659-.142,9.4-.395,13.939-.735a1.017,1.017,0,0,0,.051.438,1.726,1.726,0,0,0,.773.84,9.53,9.53,0,0,0,3.5,1.031c4.416.639,10.461.154,13.692-1.136a4.853,4.853,0,0,0,1.571-.912,1.279,1.279,0,0,0,.438-1.212,1.718,1.718,0,0,0-.912-1.011c-.132-.076-.3-.142-.46-.211.543-.1,1.118-.189,1.622-.29a24.336,24.336,0,0,0,5.892-1.709c.548-.288.927-.562,1.057-1a.879.879,0,0,0-.092-.672,1.445,1.445,0,0,0-.492-.471,13.236,13.236,0,0,0-4.782-1.219c-2.387-.318-5.571-.552-9.52-.675Z" transform="translate(-2530.516 -1428.543)" fill="#d7e7e7"/><path d="M2554.232,1474.717a159.859,159.859,0,0,0-16.283,2.156l-2.039.43c-3.849,1.811-2.452,3.623,5.711,4.124-.636.895.76,1.756,3.819,2.18,4.273.592,10.222.123,13.288-1.049a3.679,3.679,0,0,0,1.615-.993c4.8-.138,9.693-.387,14.357-.729-.683.9.712,1.779,3.8,2.208,4.273.592,10.222.123,13.288-1.05,2.672-1.021,2.273-2.239-.7-2.927,1.057-.166,2.057-.337,2.981-.514,11.218-2.146,7.749-4.261-7.748-4.724-1.318-.04-2.437.15-3.834.136Z" transform="translate(-2531.551 -1428.766)" fill="#98bebe"/><g transform="translate(0 25.915)"><path d="M2540.054,1450.417c-2.926-.065-6.527-1.93-9.036-5.266-.511-.68-1.269-2.956-.63-2.613,5.432,2.908,6.109,1.492,8.047,2.394,1.366.635,2.964,5.515,1.619,5.485Z" transform="translate(-2530.104 -1442.503)" fill="#82af16" stroke="#4b660e" stroke-width="3.2"/><path d="M2530.08,1442.814a6.1,6.1,0,0,0,.871,2.319c2.509,3.336,6.109,5.2,9.036,5.266.8.017.562-1.684-.045-3.209.17.915.086,1.626-.429,1.614-2.927-.065-6.527-1.93-9.035-5.265a3.939,3.939,0,0,1-.4-.725Z" transform="translate(-2530.08 -1442.624)" fill="#729913"/><path d="M2530.206,1442.519c-.089.026-.114.166-.093.373.043-.059.112-.065.215,0,5.306,3.594,6.1,2.316,8.009,3.466.829.5,1.622,2.585,1.785,4.055,1.149-.233-.4-4.859-1.725-5.476-1.938-.9-2.615.515-8.047-2.393a.194.194,0,0,0-.144-.03Z" transform="translate(-2530.09 -1442.508)" fill="#9ad01a"/><path d="M2540.054,1450.417c-2.926-.065-6.527-1.93-9.036-5.266-.511-.68-1.269-2.956-.63-2.613,5.432,2.908,6.109,1.492,8.047,2.394,1.366.635,2.964,5.515,1.619,5.485Z" transform="translate(-2530.104 -1442.503)" fill="none" stroke="#4b660e" stroke-width="3.2"/></g><g transform="translate(46.958 29.379)"><path d="M2612.294,1448.2c6.666,1.066,9,9.339,10.713,15.518,1.15,4.143-13.887,7.7-13.806,3.391.284-15.229-3.994-10.966-1.511-15.86.794-1.564,2.776-3.342,4.6-3.05Z" transform="translate(-2606.912 -1448.171)" fill="#719913" stroke="#6e9615" stroke-width="3.293"/><path d="M2611.447,1448.6a3.206,3.206,0,0,0-.32.09,4.525,4.525,0,0,0-1.247.66,6.416,6.416,0,0,0-1.85,2.146,4.635,4.635,0,0,0-.75,2.283,5.074,5.074,0,0,0,.682,1.575c.736,1.476,1.744,4.271,1.6,11.906a1.247,1.247,0,0,0,.531,1.088,3.472,3.472,0,0,0,1.567.566,13.8,13.8,0,0,0,4.928-.394c.063-.015.125-.034.188-.05a12.517,12.517,0,0,1-3.924.182,3.463,3.463,0,0,1-1.566-.567,1.247,1.247,0,0,1-.531-1.088c.142-7.634-.865-10.429-1.6-11.905a5.081,5.081,0,0,1-.681-1.576,4.62,4.62,0,0,1,.749-2.283,6.414,6.414,0,0,1,1.85-2.146,4.768,4.768,0,0,1,.955-.55A2.738,2.738,0,0,0,2611.447,1448.6Z" transform="translate(-2607.053 -1448.312)" fill="#9ad01a"/><path d="M2613.909,1448.594c-.1.023-.2.053-.3.086,3.121.587,5.248,2.815,6.823,5.688a46.077,46.077,0,0,1,3.482,9.63,1.628,1.628,0,0,1-.245,1.342,4.667,4.667,0,0,1-1.353,1.307,15.1,15.1,0,0,1-4.746,1.948,17.926,17.926,0,0,1-2.25.4,16.1,16.1,0,0,0,3.735-.48,15.108,15.108,0,0,0,4.745-1.948,4.669,4.669,0,0,0,1.353-1.307,1.628,1.628,0,0,0,.245-1.342,46.076,46.076,0,0,0-3.482-9.63c-1.613-2.942-3.805-5.21-7.051-5.729a2.565,2.565,0,0,0-.955.037Z" transform="translate(-2609.515 -1448.31)" fill="#698c11"/><path d="M2627.442,1474a2.952,2.952,0,0,0-2.044,1.373c-.21.464-.062,1.182.557,1.2,1.119.034,2.655-1.243,2.662-2.062,0-.365-.655-.585-1.174-.512Z" transform="translate(-2614.064 -1458.21)" fill="#9eab26"/></g><path d="M2612.293,1448.2c6.666,1.079,9,9.447,10.717,15.7,1.151,4.19-13.885,7.785-13.805,3.426.28-15.4-4-11.092-1.515-16.041.794-1.582,2.776-3.379,4.6-3.083Z" transform="translate(-2559.954 -1418.791)" fill="none" stroke="#4b660e" stroke-width="3.761"/><g transform="translate(14.563 27.335)"><path d="M2563.024,1445.164c5.978,3.446,5.527,13.044,5.164,20.2-.243,4.8-15.646,3.361-14.183-1.189,5.17-16.081-.259-13.036,3.671-17.373,1.257-1.387,3.708-2.587,5.348-1.642Z" transform="translate(-2553.908 -1444.827)" fill="#729913" stroke="#4b660e" stroke-width="3.292"/><path d="M2562.146,1445.246a2.818,2.818,0,0,0-.332-.016,4.145,4.145,0,0,0-1.394.268,6.432,6.432,0,0,0-2.445,1.638,5.286,5.286,0,0,0-1.445,2.165,6.3,6.3,0,0,0,.139,1.91c.224,1.823.28,5.142-2.311,13.2a1.524,1.524,0,0,0,.153,1.34,3.517,3.517,0,0,0,1.3,1.145,12.554,12.554,0,0,0,4.8,1.292c.065.006.13.009.194.013a11.453,11.453,0,0,1-3.78-1.17,3.512,3.512,0,0,1-1.3-1.145,1.521,1.521,0,0,1-.153-1.34c2.591-8.061,2.534-11.38,2.312-13.2a6.307,6.307,0,0,1-.14-1.91,5.294,5.294,0,0,1,1.446-2.165,6.434,6.434,0,0,1,2.445-1.638,4.4,4.4,0,0,1,1.083-.253A2.475,2.475,0,0,0,2562.146,1445.246Z" transform="translate(-2554.048 -1444.983)" fill="#9ad01a"/><path d="M2563.832,1445.247a2.8,2.8,0,0,0-.313-.014c2.771,1.707,4.07,4.812,4.639,8.41a57.39,57.39,0,0,1,.2,11.439,1.909,1.909,0,0,1-.664,1.341,4.553,4.553,0,0,1-1.7.919,13.648,13.648,0,0,1-5.127.423,16.119,16.119,0,0,1-2.261-.358,14.557,14.557,0,0,0,3.7.787,13.648,13.648,0,0,0,5.126-.423,4.547,4.547,0,0,0,1.7-.918,1.907,1.907,0,0,0,.664-1.341,57.369,57.369,0,0,0-.2-11.439c-.583-3.686-1.931-6.856-4.843-8.534a2.337,2.337,0,0,0-.917-.292Z" transform="translate(-2555.734 -1444.985)" fill="#698c11"/><path d="M2571.858,1478.082a2.526,2.526,0,0,0-2.256.357c-.425.344-.751,1.094-.328,1.4a2.756,2.756,0,0,0,3.1-.725c.22-.345-.11-.859-.518-1.03Z" transform="translate(-2559.806 -1457.707)" fill="#a0ad27"/></g><path d="M2556.273,1450.083c-1.829,2.662,1.913,1.888-2.669,16.144-.726,2.258,2.7,3.748,6.371,4.092,1.378-6.871,2.8-15.55-2.313-19.676a2.719,2.719,0,0,0-1.389-.56Z" transform="translate(-2539.188 -1419.535)" fill="#56730f"/><path d="M2594.843,1448.293l-.37,1.153-6.429,4.383a12.194,12.194,0,0,1,1.677,5.268,27.8,27.8,0,0,0,8.479-6.029c.406-.437.3-.571.65-1.016-1.172-1.571-2.149-3.12-4.007-3.76Zm-37.4,5.391a24.252,24.252,0,0,1-.764,5.612,26.294,26.294,0,0,0,4.109,1.8,34.4,34.4,0,0,0,8.479,1.7,46.759,46.759,0,0,0-.138-6.774l-7.913-.592Z" transform="translate(-2540.421 -1418.839)" fill="#56730f"/><path d="M2608.349,1455.917a3.867,3.867,0,0,0-1.043.183c-.172,1.959,2.509,1.684,2.293,14.3-.037,2.178,3.512,2.423,7.028,1.6-.481-6.3-1.551-13.737-7.254-15.916a2.68,2.68,0,0,0-1.024-.166Z" transform="translate(-2560.104 -1421.803)" fill="#56730f"/><path d="M2612.292,1448.2c6.666,1.065,9,9.338,10.713,15.518,1.149,4.143-13.887,7.7-13.807,3.391.284-15.229-3.994-10.966-1.511-15.859.794-1.565,2.777-3.343,4.6-3.05Z" transform="translate(-2559.953 -1418.791)" fill="none" stroke="#4b660e" stroke-width="3.74"/><path d="M2563.023,1445.165c5.978,3.445,5.526,13.044,5.165,20.2-.243,4.8-15.646,3.361-14.183-1.189,5.169-16.081-.259-13.037,3.671-17.373,1.256-1.386,3.708-2.587,5.348-1.642Z" transform="translate(-2539.344 -1417.492)" fill="none" stroke="#4b660e" stroke-width="3.956"/><path d="M2595.074,1431l-2.262.378-1.915,2.194-2.527,8.365-6.393,4.446-12.638,2.437-13.473-1.119-9.166-4.375-3.3-6.156c-1.229,6.643,3.25,13.042,12.117,16.189,10.646,3.78,23.651,1.857,32.224-4.338a29.582,29.582,0,0,0,4.323-3.437c4.266-4.731,5.114-10.031,3.006-14.584Z" transform="translate(-2535.183 -1412.114)" fill="#8d9922" stroke="#484e11" stroke-width="3.506"/><path d="M2594.727,1431.736l-2.287.379-1.935,2.194-2.557,8.366-6.462,4.448-12.775,2.44-13.617-1.116-9.264-4.373-3.33-6.156a11.488,11.488,0,0,0,.472,6.037,14.436,14.436,0,0,0,8.477,6.328c4.883,1.425,10.062,1.643,15.142,1.836a46.832,46.832,0,0,0,15.485-2.346c3.947-1.524,7.772-5.653,8.595-9.381.693-2.116.507-4.691,2.309-6.342a11.641,11.641,0,0,1,2.49-.249,12.007,12.007,0,0,0-.743-2.065Z" transform="translate(-2534.831 -1412.401)" fill="#76801d"/><path d="M2625.078,1431.788a12.408,12.408,0,0,1-1.2,2.193c-.368.529-.99.579-1.554.721-.85,1.66-.831,3.776-1.343,5.574a10.922,10.922,0,0,1-.692,2.211c.5.874.623.829,1.712,1.031a8.119,8.119,0,0,0,1.862-.2,13.459,13.459,0,0,0,1.217-11.53Z" transform="translate(-2565.155 -1412.422)" fill="#5e6617"/><path d="M2619.227,1432.461c1.275-2.719,3.132-3.157,4.147-.978s.806,6.15-.469,8.869-3.132,3.158-4.147.979c-.939-2.013-.84-5.6.23-8.312" transform="translate(-2564.31 -1411.764)" fill="#330203"/><path d="M2544.374,1445.222c-1.247,5.647,3.192,11.067,12.011,13.71,10.641,3.19,23.418,1.536,31.968-3.814a34.437,34.437,0,0,1-10.1,3.258,43.31,43.31,0,0,1-19.224-.911c-4.977-1.492-8.559-3.867-10.512-6.669l-.88-.356Z" transform="translate(-2535.557 -1417.645)" fill="#b6c52c"/><path d="M2569.517,1465.176s-.7,1.532-.329,2.056" transform="translate(-2545.244 -1425.404)" fill="#484f11" stroke="#a5b226" stroke-linecap="round" stroke-linejoin="round" stroke-width="3.553"/><path d="M2580.457,1466.213s-.159,1.89.319,2.32" transform="translate(-2549.658 -1425.807)" fill="#484f11" stroke="#a5b226" stroke-linecap="round" stroke-linejoin="round" stroke-width="3.498"/><path d="M2590.778,1465.447s.345,1.976.913,2.319" transform="translate(-2553.681 -1425.509)" fill="#484f11" stroke="#a5b226" stroke-linecap="round" stroke-linejoin="round" stroke-width="3.553"/><path d="M2617.556,1454.208s1.371,1.112,2.051,1.11" transform="translate(-2564.093 -1421.139)" fill="#484f11" stroke="#a5b226" stroke-linecap="round" stroke-linejoin="round" stroke-width="3.553"/><path d="M2595.172,1431.085l-2.263.379-1.914,2.193-2.527,8.365-6.393,4.446-12.639,2.437-13.472-1.12-9.167-4.375-3.3-6.156c-1.23,6.643,3.25,13.042,12.117,16.19,10.645,3.78,23.65,1.857,32.223-4.338a29.6,29.6,0,0,0,4.324-3.437c4.265-4.731,5.114-10.031,3.005-14.584Z" transform="translate(-2535.221 -1412.148)" fill="none" stroke="#484e11" stroke-width="3.506"/><g transform="translate(5.541 30.542)"><path d="M2551.1,1450.663c5.394,4.35,3.517,13.761,2.09,20.778-.956,4.7-15.964.846-13.84-3.418,7.508-15.069,1.689-12.92,6.22-16.583,1.449-1.171,4.051-1.969,5.53-.777Z" transform="translate(-2539.146 -1450.073)" fill="#82af16" stroke="#4b660e" stroke-width="3.292"/><path d="M2550.246,1450.584a2.829,2.829,0,0,0-.326-.069,4.147,4.147,0,0,0-1.418.045,6.364,6.364,0,0,0-2.66,1.231,5.221,5.221,0,0,0-1.752,1.911,6.311,6.311,0,0,0-.147,1.909c-.051,1.837-.49,5.125-4.253,12.679a1.523,1.523,0,0,0-.048,1.348,3.572,3.572,0,0,0,1.117,1.338,12.688,12.688,0,0,0,4.551,2.036c.063.016.127.029.19.044a11.572,11.572,0,0,1-3.561-1.753,3.572,3.572,0,0,1-1.117-1.338,1.525,1.525,0,0,1,.048-1.348c3.764-7.554,4.2-10.842,4.254-12.679a6.3,6.3,0,0,1,.147-1.909,5.228,5.228,0,0,1,1.752-1.911,6.363,6.363,0,0,1,2.66-1.231,4.376,4.376,0,0,1,1.108-.079A2.478,2.478,0,0,0,2550.246,1450.584Z" transform="translate(-2539.286 -1450.229)" fill="#9ad01a"/><path d="M2551.689,1450.614a2.935,2.935,0,0,0-.308-.063c2.483,2.124,3.3,5.4,3.331,9.043a57.271,57.271,0,0,1-1.506,11.333,1.889,1.889,0,0,1-.856,1.22,4.526,4.526,0,0,1-1.821.638,13.65,13.65,0,0,1-5.129-.394,16.24,16.24,0,0,1-2.182-.711,14.683,14.683,0,0,0,3.535,1.362,13.655,13.655,0,0,0,5.13.393,4.5,4.5,0,0,0,1.821-.638,1.885,1.885,0,0,0,.856-1.22,57.259,57.259,0,0,0,1.506-11.333c-.026-3.734-.887-7.079-3.513-9.2a2.367,2.367,0,0,0-.863-.433Z" transform="translate(-2540.729 -1450.258)" fill="#729913"/><path d="M2555.645,1483.423a3.911,3.911,0,0,0-2.951.1c-.628.312-1.234,1.065-.776,1.439.828.676,3.29.372,4.117-.387.369-.337.083-.922-.389-1.153Z" transform="translate(-2544.05 -1462.946)" fill="#b6c52c"/></g><g transform="translate(41.396 34.134)"><path d="M2604.705,1456.1c6.318,2.2,6.932,10.334,7.364,16.405.29,4.07-15.165,4.664-14.216.661,3.355-14.145-1.7-10.946,1.724-15.057,1.095-1.315,3.4-2.613,5.129-2.01Z" transform="translate(-2597.811 -1455.95)" fill="#82af16" stroke="#4b660e" stroke-width="3.292"/><path d="M2603.827,1456.292c-.11,0-.22.011-.332.025a4.784,4.784,0,0,0-1.355.39,6.488,6.488,0,0,0-2.247,1.666,4.393,4.393,0,0,0-1.2,1.992,4.581,4.581,0,0,0,.35,1.592c.424,1.509.847,4.3-.834,11.388a1.134,1.134,0,0,0,.3,1.111,3.459,3.459,0,0,0,1.421.812,14.459,14.459,0,0,0,4.91.525c.065,0,.129-.008.194-.012a13.08,13.08,0,0,1-3.883-.542,3.466,3.466,0,0,1-1.421-.812,1.135,1.135,0,0,1-.3-1.111c1.682-7.09,1.258-9.878.835-11.388a4.58,4.58,0,0,1-.35-1.592,4.389,4.389,0,0,1,1.2-1.992,6.484,6.484,0,0,1,2.246-1.665,4.977,4.977,0,0,1,1.047-.34A2.814,2.814,0,0,0,2603.827,1456.292Z" transform="translate(-2597.953 -1456.083)" fill="#9ad01a"/><path d="M2605.68,1456.291c-.1,0-.207.013-.313.025,2.94,1.112,4.575,3.575,5.538,6.537a41.5,41.5,0,0,1,1.467,9.607,1.522,1.522,0,0,1-.511,1.207,4.769,4.769,0,0,1-1.59.973,15.934,15.934,0,0,1-5.044.957,18.985,18.985,0,0,1-2.286-.036,16.965,16.965,0,0,0,3.758.229,15.944,15.944,0,0,0,5.044-.957,4.776,4.776,0,0,0,1.59-.973,1.521,1.521,0,0,0,.511-1.207,41.5,41.5,0,0,0-1.467-9.607c-.987-3.034-2.677-5.546-5.754-6.617a2.655,2.655,0,0,0-.943-.138Z" transform="translate(-2599.806 -1456.082)" fill="#729913"/><path d="M2614.609,1482.568a4.518,4.518,0,0,0-3.02.95c-.477.45-.681,1.272.009,1.458,1.248.336,3.642-.646,4.073-1.536.191-.4-.438-.813-1.062-.872Z" transform="translate(-2602.999 -1466.295)" fill="#b6c52c"/></g><path d="M2568.173,1400.487a26.033,26.033,0,0,0-20.029,10.1l-1.455,2.183c-3.266,5.533-4.113,8.955-2.463,14.646.826.552,1.893,3.91,2.8,4.405,11.122,6.056,25.378,6.012,36.368.791l4.463-11.436,3.51-2.55.97.641c-2.458-8-3.885-9.612-8.829-14.578-3.86-3.877-10.05-4.375-15.338-4.2Z" transform="translate(-2535.261 -1400.24)" fill="#4f4c09" stroke="#4f4c09" stroke-width="1"/><path d="M2549.117,1452.151a6.185,6.185,0,0,0-1.1.738,7.174,7.174,0,0,0-1.6,1.692,14.4,14.4,0,0,0,6.942,3.914,36.647,36.647,0,0,0,3.876.78,13.775,13.775,0,0,0-1-3.794,16.622,16.622,0,0,1-5.706-2.269,10.414,10.414,0,0,1-1.405-1.062Zm34.25,2.086a6.121,6.121,0,0,0-4.043,2.264c-1,1.273-1.241,1.854-1.173,2.442a35.056,35.056,0,0,0,6.125-1.735,13.327,13.327,0,0,0,2.676-1.509,8.276,8.276,0,0,0-2.555-1.337,2.929,2.929,0,0,0-1.028-.125Z" transform="translate(-2536.431 -1420.339)" fill="#5f8010"/><path d="M2551.1,1450.66c5.394,4.349,3.517,13.761,2.091,20.776-.956,4.7-15.966.846-13.841-3.418,7.508-15.069,1.689-12.92,6.22-16.582,1.449-1.171,4.051-1.969,5.53-.776Z" transform="translate(-2533.606 -1419.53)" fill="none" stroke="#4b660e" stroke-width="3.956"/><path d="M2573.838,1400.2a28.994,28.994,0,0,0-16.187,5.463c-.692.567-.594.7-.512,1.242,1.962,1.725,5.38,3.934,6.653,4.1,1.724.218,8.449-2.186,9.532-3.409.746-.843,1.479-4.142,1.651-6.581.049-.322-.091-.985-1.137-.81Z" transform="translate(-2540.579 -1400.128)" fill="#baba00" stroke="#4f4c09" stroke-linecap="round" stroke-linejoin="round" stroke-width="3.616"/><path d="M2586.025,1401.307c-.654,2.4-1.051,5.911-.6,6.937.642,1.447,6.31,5.444,8.034,5.664s8.8-2.086,9.882-3.314a3.144,3.144,0,0,0,.584-1.174c.614-1.346-2.692-3.868-3.757-4.9-3.1-3-7.616-4.007-12.058-4.241-.721.028-1.792-.347-2.089,1.029Z" transform="translate(-2551.525 -1400.16)" fill="#adbf8f" stroke="#4f4c09" stroke-linecap="round" stroke-linejoin="round" stroke-width="3.623"/><path d="M2550.61,1411.408a25.268,25.268,0,0,0-2.727,3.157l-1.484,2.312c-1.972,3.457-3.079,6.133-3.307,8.987-.224,1.16.2,1.493.4,1.629,1.153.912,1.837,1.805,2.471,1.893,1.67.231,8.81-2.563,9.856-3.836s2.059-7.934,1.435-9.438c-.438-1.057-3.281-3.421-5.513-4.816a1.123,1.123,0,0,0-1.128.112Z" transform="translate(-2535.115 -1404.415)" fill="#ba9500" stroke="#4f4c09" stroke-linecap="round" stroke-linejoin="round" stroke-width="3.635"/><path d="M2576.4,1413.932c-2.2.092-8.275,2.4-9.306,3.615-1.1,1.295-2.169,8.06-1.515,9.588s6.426,5.745,8.18,5.978,8.595-2.307,9.695-3.6,2.165-8.06,1.511-9.587-6.426-5.745-8.18-5.979a2.216,2.216,0,0,0-.384-.013Z" transform="translate(-2543.806 -1405.478)" fill="#a6a66c" stroke="#4f4c09" stroke-linecap="round" stroke-linejoin="round" stroke-width="3.754"/><path d="M2607.008,1418.445c-2.077.087-7.808,2.535-8.781,3.7-1.038,1.244-2.041,7.74-1.423,9.209s6.067,5.527,7.723,5.752a3.593,3.593,0,0,0,.984-.059l3.44-8.977,3.559-2.633.985.663c-.582-1.927-1.105-3.489-1.632-4.825-1.057-2.193-1.778-3.016-4.855-2.83Z" transform="translate(-2555.95 -1407.224)" fill="#a69400" stroke="#4f4c09" stroke-linecap="round" stroke-linejoin="round" stroke-width="3.575"/><path d="M2556.783,1436.8c-2.078.087-9.014,2.209-9.988,3.354-.515.606-.6,1.25-.91,3.164a14.079,14.079,0,0,0,1.935,2.907,39.5,39.5,0,0,0,16.012,4.583c.877-2.069,1.573-7.094,1.034-8.354-.617-1.442-6.064-5.422-7.72-5.642a2.1,2.1,0,0,0-.362-.013Z" transform="translate(-2536.225 -1414.371)" fill="#bfac00" stroke="#4f4c09" stroke-linecap="round" stroke-linejoin="round" stroke-width="3.543"/><path d="M2587.267,1441.251c-2.247.09-8.455,2.285-9.51,3.432-.935,1.017-1.85,5.592-1.753,7.939a49.02,49.02,0,0,0,20.166-3.376,5.777,5.777,0,0,0-.169-2.355c-.666-1.44-6.552-5.411-8.343-5.628a2.479,2.479,0,0,0-.392-.012Z" transform="translate(-2547.934 -1416.1)" fill="#a7aa00" stroke="#4f4c09" stroke-linecap="round" stroke-linejoin="round" stroke-width="3.686"/><g transform="translate(8.095 0.255)"><path d="M2574.266,1400.518a1.8,1.8,0,0,0-.3.028.163.163,0,0,1-.032,0,28.761,28.761,0,0,0-16.045,5.41l0,0c-.336.275-.447.422-.481.532a1.292,1.292,0,0,0,.034.464c.136.119.279.241.427.363.057-.052.116-.106.191-.167a28.992,28.992,0,0,1,16.188-5.463,1.619,1.619,0,0,1,.545-.009c.018-.181.031-.36.043-.533,0-.005,0-.01,0-.014a.6.6,0,0,0-.113-.441.552.552,0,0,0-.458-.174Z" transform="translate(-2548.797 -1400.518)" fill="#cbbb00"/><path d="M2587.306,1400.606a1.5,1.5,0,0,0-.258.031.754.754,0,0,0-.417.216,1.291,1.291,0,0,0-.3.644l0,.007a24.757,24.757,0,0,0-.709,3.952,9.769,9.769,0,0,0,.025,2.611,23.782,23.782,0,0,1,.79-5.265c.3-1.376,1.368-1,2.089-1.027,4.442.234,8.964,1.244,12.061,4.243a27.366,27.366,0,0,1,3.277,3.244,1.534,1.534,0,0,0-.229-.789,6.839,6.839,0,0,0-1.041-1.337c-.87-.914-1.951-1.8-2.5-2.329-3.039-2.944-7.495-3.943-11.908-4.175-.2.006-.4-.009-.589-.018-.1,0-.2-.01-.29-.007Z" transform="translate(-2559.743 -1400.552)" fill="#cbbb00"/><path d="M2551.148,1411.566a.473.473,0,0,0-.3.144,25.089,25.089,0,0,0-2.7,3.133h0l-1.47,2.291c-1.965,3.446-3.055,6.088-3.279,8.9,0,.007,0,.015,0,.022a1.885,1.885,0,0,0,.029,1.084.81.81,0,0,0,.084.15c.251-2.806,1.354-5.456,3.3-8.86l1.484-2.31a25.271,25.271,0,0,1,2.725-3.159c.356-.347.833-.18,1.131-.111a24.248,24.248,0,0,1,5.13,4.226,2.768,2.768,0,0,0-.14-.73,8.914,8.914,0,0,0-2.028-2.2,29.633,29.633,0,0,0-3.368-2.494,2.471,2.471,0,0,0-.464-.086.907.907,0,0,0-.116,0Z" transform="translate(-2543.324 -1404.812)" fill="#cbbb00"/><path d="M2576.5,1414.3a20.331,20.331,0,0,0-5.012,1.37,26.762,26.762,0,0,0-2.613,1.154,5.814,5.814,0,0,0-1.511,1.012,5.622,5.622,0,0,0-.749,1.749,23.941,23.941,0,0,0-.618,2.855,23.58,23.58,0,0,0-.29,2.893,7.255,7.255,0,0,0,.1,1.614c.038-2.6.868-6.83,1.714-7.826,1.031-1.214,7.1-3.523,9.3-3.615a2.242,2.242,0,0,1,.385.013c1.559.207,6.29,3.563,7.783,5.379a2.738,2.738,0,0,0-.147-.741,5.932,5.932,0,0,0-1.26-1.474,26.717,26.717,0,0,0-2.348-1.911,27.246,27.246,0,0,0-2.556-1.67,6.488,6.488,0,0,0-1.835-.788,2.008,2.008,0,0,0-.345-.015Z" transform="translate(-2552.027 -1405.876)" fill="#cbbb00"/><path d="M2607.634,1418.767c-.172.005-.351.015-.542.027h0a20,20,0,0,0-4.764,1.4,23.443,23.443,0,0,0-2.431,1.256,3.132,3.132,0,0,0-2.132,2.652,25.652,25.652,0,0,0-.855,5.524,6.976,6.976,0,0,0,.1,1.547c.035-2.494.813-6.56,1.611-7.516.973-1.166,6.7-3.61,8.779-3.7,2.939-.178,3.73.586,4.716,2.545-.127-.352-.252-.69-.378-1.01a4.413,4.413,0,0,0-1.576-2.091,3.913,3.913,0,0,0-2.032-.639c-.154,0-.317,0-.489,0Z" transform="translate(-2564.157 -1407.612)" fill="#cbbb00"/><path d="M2556.872,1437.153a27.155,27.155,0,0,0-5.347,1.269c-1.052.34-2.07.717-2.879,1.074a5.571,5.571,0,0,0-1.6.938,2.316,2.316,0,0,0-.493,1.012c-.117.444-.215,1.083-.359,1.991.063.12.147.274.24.438a4.228,4.228,0,0,1,.758-2.228c.974-1.145,7.909-3.268,9.987-3.355a2.092,2.092,0,0,1,.363.013c1.474.2,5.942,3.371,7.346,5.084a2.589,2.589,0,0,0-.142-.706,5.545,5.545,0,0,0-1.186-1.392,25.394,25.394,0,0,0-2.219-1.8,25.913,25.913,0,0,0-2.409-1.576,6.2,6.2,0,0,0-1.737-.747,1.9,1.9,0,0,0-.321-.01Z" transform="translate(-2544.439 -1414.762)" fill="#cbbb00"/><path d="M2587.378,1441.6a22.2,22.2,0,0,0-5.125,1.306,28.452,28.452,0,0,0-2.667,1.093,6.037,6.037,0,0,0-1.545.958,4.162,4.162,0,0,0-.645,1.271,17.334,17.334,0,0,0-.576,2.109,20.377,20.377,0,0,0-.481,4.236l.145,0c.2-2.418.951-5.583,1.709-6.406,1.055-1.147,7.264-3.342,9.512-3.432a2.411,2.411,0,0,1,.389.012c1.59.193,6.406,3.343,7.934,5.056a2.348,2.348,0,0,0-.144-.692,5.651,5.651,0,0,0-1.281-1.389,26.842,26.842,0,0,0-2.4-1.8,28.184,28.184,0,0,0-2.6-1.572,6.938,6.938,0,0,0-1.877-.741,2.146,2.146,0,0,0-.348-.013Z" transform="translate(-2556.161 -1416.491)" fill="#cbbb00"/></g><g transform="translate(8.042 0.874)"><path d="M2562.888,1442.292c.791.683.6.556.6.567.792,2.142.686,5.567-.3,6.866-.886,1.165-5.136-.208-7.1-.644a31.948,31.948,0,0,1-9.88-4.6c-.042.252-.082.492-.133.811a13.827,13.827,0,0,0,1.923,2.853,39.618,39.618,0,0,0,15.915,4.5c.873-2.031,1.508-6.823.972-8.059-.215-.5.162-.752-.866-1.6Z" transform="translate(-2544.342 -1417.38)" fill="#998a04"/><path d="M2574.98,1401.531c-.3,2.079-.885,4.279-1.478,4.941-1.076,1.2-7.761,3.563-9.475,3.349-1.147-.143-4.041-1.936-6.026-3.532l-.22.158c-.688.557-.589.685-.508,1.22,1.95,1.694,5.345,3.858,6.61,4.016,1.713.215,8.4-2.148,9.479-3.349.742-.829,1.472-4.066,1.644-6.459a.8.8,0,0,0-.027-.345Z" transform="translate(-2548.674 -1401.531)" fill="#998a04"/><path d="M2585.344,1407.957a8.518,8.518,0,0,0,.054,3.488c.637,1.421,6.269,5.344,7.983,5.559s8.751-2.05,9.826-3.256a3.086,3.086,0,0,0,.581-1.156,1.281,1.281,0,0,0-.159-1.128,1.918,1.918,0,0,1-.283.417c-1.076,1.206-8.109,3.471-9.823,3.256s-7.349-4.138-7.986-5.559a4.3,4.3,0,0,1-.193-1.621Z" transform="translate(-2559.556 -1404.03)" fill="#998a04"/><path d="M2557.567,1422.439c-.265,2.289-.862,4.853-1.474,5.589-1.04,1.251-8.139,4-9.8,3.771-.631-.086-1.309-.964-2.454-1.859a.973.973,0,0,1-.426-.659c-.046.307-.087.616-.112.925-.223,1.14.2,1.466.394,1.6,1.146.895,1.824,1.769,2.454,1.855,1.66.226,8.759-2.517,9.8-3.767.788-.948,1.561-4.938,1.617-7.455Z" transform="translate(-2543.239 -1409.661)" fill="#998a04"/><path d="M2585.129,1426.854c-.276,2.338-.91,4.976-1.559,5.73-1.093,1.271-7.894,3.769-9.637,3.541s-7.48-4.369-8.13-5.869a4.955,4.955,0,0,1-.194-1.82,9.356,9.356,0,0,0,.051,3.687c.65,1.5,6.386,5.637,8.13,5.865s8.543-2.266,9.637-3.537c.832-.968,1.646-5.041,1.7-7.6Z" transform="translate(-2551.88 -1411.377)" fill="#998a04"/><path d="M2590.285,1442.98c.072.12.146.24.221.357.75,1.166,2.569,2.148,2.283,3.479-.183.853-1.43,1.178-2.277,1.568-4.471,1.329-9.76,2.607-14.4,2.55a13.934,13.934,0,0,0-.1,2.05,49.283,49.283,0,0,0,20.049-3.321,5.584,5.584,0,0,0-.167-2.308c-.448-.958-3.276-3.055-5.608-4.374Z" transform="translate(-2555.979 -1417.647)" fill="#998a04"/></g><path d="M2613.138,1419.15c1.356,1.629,2.552,5.349,1.951,7.266l.9-.658.98.65c-.578-1.891-1.1-3.425-1.621-4.737a20.325,20.325,0,0,0-.9-1.909c-.192-.266-.383-.585-1.31-.61Zm1.14,6.572c-.186,0-.661.711-2.09,1.757-2.966,3.1-3.043,6.625-6.327,8.74a7.156,7.156,0,0,0,2.188,1,3.672,3.672,0,0,0,.979-.061l3.424-8.813,1.614-1.18c-.7-.044.937-1.442.212-1.441Z" transform="translate(-2559.546 -1407.508)" fill="#998a04"/><g transform="translate(7.913 0.042)"><path d="M2573.836,1400.2a28.99,28.99,0,0,0-16.186,5.463c-.693.567-.595.7-.512,1.242,1.962,1.725,5.38,3.933,6.653,4.1,1.724.218,8.45-2.186,9.532-3.409.747-.843,1.479-4.142,1.651-6.581.049-.322-.091-.985-1.137-.81Z" transform="translate(-2548.491 -1400.17)" fill="none" stroke="#4f4c09" stroke-linecap="round" stroke-linejoin="round" stroke-width="3.265"/><path d="M2585.958,1401.307c-.655,2.4-1.293,6.037-.6,6.937a22.2,22.2,0,0,0,8.034,5.664c1.614.6,8.253-2.044,9.882-3.315.276-.215.373-.549.584-1.173.614-1.346-2.692-3.868-3.757-4.9-3.1-3-7.615-4.007-12.058-4.241-.72.028-1.792-.347-2.089,1.029Z" transform="translate(-2559.371 -1400.202)" fill="none" stroke="#4f4c09" stroke-linecap="round" stroke-linejoin="round" stroke-width="3.272"/><path d="M2550.609,1411.408a25.27,25.27,0,0,0-2.727,3.157l-1.484,2.311c-1.972,3.457-3.079,6.133-3.307,8.987-.224,1.161.2,1.493.4,1.63,1.153.911,1.837,1.8,2.471,1.893,1.67.231,8.81-2.563,9.856-3.836s2.06-7.934,1.435-9.438c-.438-1.057-3.28-3.421-5.512-4.816-.3-.069-.772-.235-1.128.112Z" transform="translate(-2543.028 -1404.457)" fill="none" stroke="#4f4c09" stroke-linecap="round" stroke-linejoin="round" stroke-width="3.282"/><path d="M2576.4,1413.931c-2.2.092-8.275,2.4-9.306,3.615-1.1,1.294-2.169,8.06-1.515,9.587s6.426,5.745,8.18,5.979,8.594-2.307,9.695-3.6,2.165-8.06,1.511-9.587c-.281-.656-1.653-1.635-3.141-2.75-1.977-1.481-4.224-3.075-5.038-3.228a2.23,2.23,0,0,0-.384-.013Z" transform="translate(-2551.72 -1405.52)" fill="none" stroke="#4f4c09" stroke-linecap="round" stroke-linejoin="round" stroke-width="3.39"/><path d="M2607.006,1418.444a17.618,17.618,0,0,0-3.072,1.131c-2.371.839-5.066,1.8-5.709,2.57-1.037,1.244-2.04,7.74-1.422,9.209s6.067,5.527,7.723,5.752a3.6,3.6,0,0,0,.984-.059l3.439-8.977,3.56-2.633.985.663c-.582-1.927-1.105-3.489-1.632-4.825-1.057-2.194-1.778-3.016-4.855-2.83Z" transform="translate(-2563.863 -1407.265)" fill="none" stroke="#4f4c09" stroke-linecap="round" stroke-linejoin="round" stroke-width="3.229"/><path d="M2556.782,1436.8a44.019,44.019,0,0,0-6.065,1.775c-1.765.6-3.521,1.107-3.922,1.579-.515.607-.6,1.25-.91,3.164a14.059,14.059,0,0,0,1.935,2.907,39.508,39.508,0,0,0,16.01,4.583c.877-2.069,1.574-7.094,1.035-8.354-.618-1.442-6.065-5.422-7.72-5.642a1.933,1.933,0,0,0-.363-.013Z" transform="translate(-2544.139 -1414.413)" fill="none" stroke="#4f4c09" stroke-linecap="round" stroke-linejoin="round" stroke-width="3.2"/><path d="M2587.266,1441.251c-1.023.041-2.6.831-4.408,1.447-2.159.737-4.527,1.36-5.1,1.984-.935,1.016-1.85,5.592-1.753,7.939a49.01,49.01,0,0,0,20.166-3.376,5.775,5.775,0,0,0-.169-2.354c-.666-1.441-6.551-5.411-8.342-5.628a2.476,2.476,0,0,0-.392-.012Z" transform="translate(-2555.847 -1416.142)" fill="none" stroke="#4f4c09" stroke-linecap="round" stroke-linejoin="round" stroke-width="3.328"/></g><path d="M2604.7,1456.105c6.317,2.2,6.931,10.334,7.364,16.406.29,4.07-15.166,4.664-14.217.661,3.354-14.144-1.7-10.946,1.723-15.057,1.095-1.315,3.4-2.613,5.129-2.01Z" transform="translate(-2556.415 -1421.818)" fill="none" stroke="#4b660e" stroke-width="3.645"/><path d="M2592.375,1427.385a6.757,6.757,0,0,0-6.159,5.481,27.908,27.908,0,0,1-5.1,9.1c-2.248,1.885-6.62,2.336-9.477,2.906a75.97,75.97,0,0,1-11.637.373c-4.489-.287-9.252-.773-12.965-3.352a11.664,11.664,0,0,1-4.863-7.87c-5.535.653-.974,11.072,7.545,13.22,4.936,1.424,10.169,1.643,15.3,1.834a47.844,47.844,0,0,0,15.653-2.35c3.991-1.526,7.855-5.656,8.689-9.385.7-2.116.515-4.692,2.336-6.343,1.515-.541,4.595.472,4.064-2.066-.463-1.228-2.138-1.589-3.387-1.552Z" transform="translate(-2533.84 -1410.709)" fill="#8f8f09" stroke="#4f4c09" stroke-width="3.544"/><path d="M2592.394,1427.384a6.754,6.754,0,0,0-6.155,5.48,27.922,27.922,0,0,1-5.1,9.106c-2.246,1.884-6.618,2.336-9.473,2.907a75.913,75.913,0,0,1-11.629.37c-4.347-.278-8.954-.741-12.611-3.115.194.152.394.3.6.437,3.712,2.579,8.473,3.064,12.961,3.352a75.855,75.855,0,0,0,11.629-.371c2.855-.57,7.227-1.022,9.473-2.907a27.921,27.921,0,0,0,5.1-9.105,6.753,6.753,0,0,1,6.155-5.48,5.228,5.228,0,0,1,2.129.363,4,4,0,0,0-3.08-1.036Zm-50.18,6.642c-4.56.538-2.262,7.709,3.453,11.417-4.669-3.582-6.542-9.388-3.281-10.562-.067-.283-.125-.569-.172-.854Z" transform="translate(-2533.857 -1410.708)" fill="#beaf00"/><path d="M2592.393,1427.384a6.756,6.756,0,0,0-6.156,5.481,27.915,27.915,0,0,1-5.1,9.1c-2.246,1.884-6.617,2.336-9.473,2.906a75.957,75.957,0,0,1-11.631.372c-4.488-.287-9.248-.773-12.96-3.352a11.667,11.667,0,0,1-4.862-7.87c-5.533.653-.973,11.072,7.542,13.22,4.933,1.424,10.165,1.643,15.3,1.834a47.8,47.8,0,0,0,15.647-2.351c3.988-1.526,7.852-5.656,8.684-9.385.7-2.116.515-4.692,2.335-6.343,1.848-.8,4.593.472,4.062-2.066-.462-1.229-2.137-1.589-3.385-1.553Z" transform="translate(-2533.856 -1410.708)" fill="none" stroke="#4f4c09" stroke-width="3.543"/><path d="M2638,1400.105a9.666,9.666,0,0,0-7.195,3.311,13.459,13.459,0,0,0-1.169,1.647c-1.223,2.758-1.309,6.207-2.146,9.214a21.8,21.8,0,0,1-3.411,6.6c-.369.529-.991.577-1.556.719-.85,1.661-.831,3.778-1.342,5.577a10.908,10.908,0,0,1-.69,2.211c.5.875.624.831,1.714,1.032,16.791-1.448,33.384-13,24.958-25.889a11.137,11.137,0,0,0-8.328-4.413c-.286-.011-.563-.015-.835-.007Z" transform="translate(-2565.233 -1400.101)" fill="#82af16" stroke="#4b660f" stroke-width="3.477"/><path d="M2622.844,1434.849c-.278.071-.549-.042-.827.026-1.069,1.691-.956,3.766-1.566,5.566a8.9,8.9,0,0,1-.831,2.22,4.835,4.835,0,0,0,.6.541,9.469,9.469,0,0,0,1.1-3.007c.6-1.783.485-3.665,1.521-5.345Z" transform="translate(-2564.895 -1413.612)" fill="#4b660f"/><path d="M2639.646,1400.185a12.012,12.012,0,0,1,5.6,3.953c8.294,12.687-7.658,24.082-24.177,25.814.287.331.567.348,1.357.493,16.791-1.448,33.384-13,24.958-25.887a11.239,11.239,0,0,0-7.739-4.373Z" transform="translate(-2565.459 -1400.134)" fill="#729913"/><path d="M2643.559,1412.435c.208,2.054-1.011,3.882-2.724,4.083s-3.271-1.3-3.479-3.355l0-.02c-.208-2.054,1.011-3.882,2.724-4.083s3.271,1.3,3.479,3.355Z" transform="translate(-2571.782 -1403.578)" fill="#fff" stroke="#4b660f" stroke-width="3.834"/><path d="M2640.283,1400.451a9.956,9.956,0,0,0-6.954,3.025,12.975,12.975,0,0,0-1.188,1.922c-1.112,2.506-1.315,6.151-2.175,9.146a18.472,18.472,0,0,1-3.381,6.665c4.958-6.3,4.13-9.594,6.931-15.968a10.167,10.167,0,0,1,6.767-4.791Z" transform="translate(-2567.604 -1400.237)" fill="#9ad01a"/><path d="M2638,1400.105a9.384,9.384,0,0,0-7.257,3.245,17.26,17.26,0,0,0-1.107,1.712c-1.14,2.569-1.275,5.956-2.047,8.786a22.314,22.314,0,0,1-3.51,7.026c-.369.529-.991.578-1.556.719-.85,1.661-.831,3.778-1.343,5.576a10.883,10.883,0,0,1-.689,2.212c.5.875.624.831,1.714,1.032,16.791-1.448,33.384-13,24.958-25.889a11.139,11.139,0,0,0-8.328-4.413c-.286-.011-.563-.015-.835-.007Z" transform="translate(-2565.233 -1400.101)" fill="none" stroke="#4b660f" stroke-width="3.477"/><g transform="translate(67.176 7.941)"><path d="M2642.977,1414.712a1.69,1.69,0,0,1-1.309,1.948,1.633,1.633,0,0,1-1.664-1.609,1.69,1.69,0,0,1,1.309-1.949A1.635,1.635,0,0,1,2642.977,1414.712Z" transform="translate(-2639.992 -1413.094)" fill="#7d7dc0" stroke="#707070" stroke-width="0.956"/><path d="M2642.753,1415.084a1.112,1.112,0,0,1-.871,1.278,1.076,1.076,0,0,1-1.1-1.052,1.112,1.112,0,0,1,.871-1.277A1.075,1.075,0,0,1,2642.753,1415.084Z" transform="translate(-2640.295 -1413.457)" stroke="#000" stroke-width="1.242"/><path d="M2641.7,1414.411a.826.826,0,0,1-.666.94.8.8,0,0,1-.845-.758v-.01a.826.826,0,0,1,.666-.94.8.8,0,0,1,.845.758Z" transform="translate(-2640.068 -1413.306)" fill="rgba(255,255,255,0.85)" stroke="#000" stroke-width="1.252"/><path d="M2641.6,1414.665a.535.535,0,0,1-.439.6.516.516,0,0,1-.556-.482v-.008a.534.534,0,0,1,.439-.6.516.516,0,0,1,.556.482Z" transform="translate(-2640.23 -1413.513)" fill="rgba(255,255,255,0.91)"/></g><path d="M2662.944,1415.416c-.139,1.953-1.487,3.47-3.011,3.39s-2.646-1.729-2.507-3.682h0c.139-1.953,1.487-3.47,3.011-3.39S2663.083,1413.463,2662.944,1415.416Z" transform="translate(-2579.591 -1404.623)" fill="#fff" stroke="#4b660f" stroke-width="3.666"/><path d="M2662.482,1416.629a1.483,1.483,0,0,1-1.434,1.484,1.438,1.438,0,0,1-1.2-1.63,1.491,1.491,0,0,1,1.418-1.505,1.435,1.435,0,0,1,1.219,1.631Z" transform="translate(-2580.535 -1405.885)" fill="#7d7dc0"/><path d="M2662.294,1416.878a.976.976,0,0,1-.952.97.946.946,0,0,1-.8-1.068.981.981,0,0,1,.941-.985.944.944,0,0,1,.811,1.068Z" transform="translate(-2580.806 -1406.203)"/><path d="M2661.475,1416.238a.726.726,0,0,1-.722.711.7.7,0,0,1-.618-.786h0a.726.726,0,0,1,.722-.711A.7.7,0,0,1,2661.475,1416.238Z" transform="translate(-2580.648 -1406.07)" fill="rgba(255,255,255,0.85)"/><path d="M2661.408,1416.354a.481.481,0,0,1-.5.455.465.465,0,0,1-.434-.5v0a.48.48,0,0,1,.5-.455.464.464,0,0,1,.434.5Z" transform="translate(-2580.782 -1406.223)" fill="#e6e6e6"/><g transform="translate(64.958 14.146)"><path d="M2638.7,1423.5s6.512,7.431,12.746,4.486a2.916,2.916,0,0,0,1.476-1.289" transform="translate(-2637.271 -1423.344)" fill="none" stroke="#4b660f" stroke-linecap="round" stroke-linejoin="round" stroke-width="2.164"/><path d="M2652.088,1428.343c-.364-.123-3.8,4.014-4.633,4.5-1.29.763-3.017,1.022-4.433-1.391-1.218-2.455-1.135-5.037-3.1-6.844a27.885,27.885,0,0,0,6.916,3.98,9.317,9.317,0,0,0,5.253-.25Z" transform="translate(-2637.746 -1423.777)" fill="#4d0305" stroke="#4b660f" stroke-linecap="round" stroke-linejoin="round" stroke-width="2.143"/><path d="M2644.515,1434.454a3.51,3.51,0,0,1,4.16,2.4c-1.111.282-1.919.639-3.475-.969a7.709,7.709,0,0,1-.8-1.411l.114-.024Z" transform="translate(-2639.488 -1427.574)" fill="#b10005"/><path d="M2660.146,1427.463s1.364-.222,1.619,1.753" transform="translate(-2645.61 -1424.883)" fill="none" stroke="#4b660f" stroke-linecap="round" stroke-linejoin="round" stroke-width="2.143"/><path d="M2640.046,1423.836s-2.007-1.287-3.683-.059" transform="translate(-2636.363 -1423.246)" fill="none" stroke="#4b660f" stroke-linecap="round" stroke-linejoin="round" stroke-width="2.143"/><path d="M2652.088,1428.343c-.364-.123-3.8,4.014-4.633,4.5-1.29.763-3.017,1.022-4.433-1.391-1.218-2.455-1.135-5.037-3.1-6.844a27.885,27.885,0,0,0,6.916,3.98,9.317,9.317,0,0,0,5.253-.25Z" transform="translate(-2637.746 -1423.777)" fill="none" stroke="#4b660f" stroke-linecap="round" stroke-linejoin="round" stroke-width="2.143"/></g><path d="M2661.021,1406.932c.036-.177-.023.464-.011.383a7.2,7.2,0,0,1,4.258,2.406,6.6,6.6,0,0,0-4.246-2.789Z" transform="translate(-2580.988 -1402.745)"/><path d="M2649.945,1421.083a.482.482,0,0,0,.964-.012v-.01a.482.482,0,0,0-.963.023Z" transform="translate(-2576.686 -1408.069)" fill="#4b660f"/><path d="M2642.2,1409.651a3.63,3.63,0,0,1,1.544,2.705,3.311,3.311,0,0,1-2.6,3.8,2.549,2.549,0,0,1-1-.085,2.624,2.624,0,0,0,1.74.427,3.311,3.311,0,0,0,2.6-3.8,3.437,3.437,0,0,0-2.283-3.047Z" transform="translate(-2572.876 -1403.814)" fill="#e6e6e6"/><path d="M2662.546,1412.169a3.642,3.642,0,0,1,1.067,2.931,3.514,3.514,0,0,1-2.362,3.22,5.5,5.5,0,0,1,.353.53,3.684,3.684,0,0,0,.942-6.681Z" transform="translate(-2581.082 -1404.793)" fill="#e6e6e6"/><path d="M2640.05,1404.622c-.071-.2.1.524.074.434-1.91.591-2.96,1.553-4.474,3.486a7.735,7.735,0,0,1,4.4-3.92Z" transform="translate(-2571.129 -1401.846)"/><path d="M2641.27,1438.075c-.129.031.349-.046.289-.035.383.834,1.017,1.289,2.292,1.942a4.282,4.282,0,0,1-2.581-1.907Z" transform="translate(-2573.305 -1414.852)" fill="#4b660f"/><path d="M2657.4,1422.032s-2.217-4.311-7.868-3.178" transform="translate(-2576.526 -1407.319)" fill="#82af16" stroke="#4b660f" stroke-linecap="round" stroke-linejoin="round" stroke-width="3.887"/><path d="M2658.9,1422.452a.389.389,0,1,0,.407-.33.371.371,0,0,0-.407.33Z" transform="translate(-2580.167 -1408.663)" fill="#4b660f"/></g></svg>