<svg xmlns="http://www.w3.org/2000/svg" width="100.372" height="99.04" viewBox="0 0 100.372 99.04"><g transform="translate(0)"><path d="M2610.622,330.431c-1.571-8.013-1.25-16.7-5.428-23.716-4.219-7.083-12.1-10.933-18.682-15.9-2.36-1.783-4.633-3.774-7.382-4.866-2.957-1.175-6.224-1.214-9.4-1.238-11.544-.087-23.781.011-33.608,6.067-6.585,4.058-11.386,10.393-16.019,16.587-2.445,3.268-4.925,6.607-6.241,10.47-2.847,8.357.186,17.416,1.041,26.2.465,4.783.306,9.77,2.254,14.163,1.756,3.961,5.04,7,8.237,9.928l13.5,12.352,1.213.137c6.322,3.624,14.072,3.294,21.346,2.859,3.656-.218,7.428-.467,10.7-2.108,3.371-1.689,5.876-4.685,8.906-6.93,5.944-4.405,13.682-5.773,19.757-10a31.389,31.389,0,0,0,6.837-6.688,24.108,24.108,0,0,0,5.235-11.384C2613.577,341.016,2611.66,335.725,2610.622,330.431Z" transform="translate(-2512.663 -284.694)" fill="#fff"/><g transform="translate(0.488 8.296)"><path d="M2516.1,343.587c-1.694,4.765,1.068,9.855,3.728,14.156a31.855,31.855,0,0,0,5.918,7.688c1.464,1.259,3.153,2.248,4.541,3.589,1.433,1.384,2.5,3.1,3.886,4.535,3.554,3.673,8.786,5.1,13.784,6.167,4.177.894,8.383,1.648,12.587,2.4a42.125,42.125,0,0,0,9.211.958c7.135-.311,13.6-4.2,19.3-8.51a59.042,59.042,0,0,0,12.6-12.307,30.208,30.208,0,0,0,6.016-16.354c.115-3.457-.512-6.946.039-10.361.392-2.426,1.373-4.764,1.42-7.221a15.583,15.583,0,0,0-.815-4.77,41.441,41.441,0,0,0-21.981-25.292l-16.716,8.534c-2.437,1.244-5.115,2.526-7.8,1.987-1.883-.378-3.486-1.613-5.326-2.162-4.037-1.206-9.064.865-12.248-1.895-1.074-.93-1.741-2.3-2.938-3.066-1.9-1.214-4.4-.509-6.461.411a38.282,38.282,0,0,0-15.942,13.366c-5.437,8.013-7.525,18.965-2.87,27.456" transform="translate(-2513.462 -298.267)" fill="#f3e640"/></g></g><g transform="translate(28.501 21.09)"><path d="M2591.22,343.909a10.569,10.569,0,1,1-10.569-10.568A10.569,10.569,0,0,1,2591.22,343.909Z" transform="translate(-2563.49 -324.699)" stroke="#000" stroke-linecap="round" stroke-width="2"/><path d="M2603.687,366.625a20.878,20.878,0,1,1-20.878-20.878A20.878,20.878,0,0,1,2603.687,366.625Z" transform="translate(-2560.321 -329.523)" fill="#1a1a1a" stroke="#000" stroke-linecap="round" stroke-width="1.761"/><path d="M2586.216,387.225a20.91,20.91,0,1,1,3.3-.832l-12.387-39.758Z" transform="translate(-2560.319 -329.521)" fill="#d40000" stroke="#000" stroke-linecap="round" stroke-width="2"/><path d="M2580.157,365.994a4.853,4.853,0,1,1-4.854-4.853A4.853,4.853,0,0,1,2580.157,365.994Z" transform="translate(-2563.633 -335.508)" stroke="#000" stroke-linecap="round" stroke-width="2"/><path d="M2583.847,392.784a4.853,4.853,0,1,1-4.853-4.853A4.854,4.854,0,0,1,2583.847,392.784Z" transform="translate(-2565.068 -345.925)" stroke="#000" stroke-linecap="round" stroke-width="2"/><path d="M2607.268,359.737a4.853,4.853,0,1,1-4.853-4.853A4.853,4.853,0,0,1,2607.268,359.737Z" transform="translate(-2574.175 -333.075)" stroke="#000" stroke-linecap="round" stroke-width="2"/><path d="M2617.7,385.886a4.853,4.853,0,1,1-4.853-4.853A4.853,4.853,0,0,1,2617.7,385.886Z" transform="translate(-2578.229 -343.243)" stroke="#000" stroke-linecap="round" stroke-width="2"/><path d="M2562.682,332.888c.013.011-.024.032-.028.034-.106.036-.167-.114-.166-.193,0-.309.383-.428.634-.378a1.1,1.1,0,0,1,.665,1.444,2.009,2.009,0,0,1-2.693,1.028,3.285,3.285,0,0,1-1.47-4.443c1.157-2.544,4.4-3.167,6.751-1.993a6.619,6.619,0,0,1,3.506,5.382" transform="translate(-2559.297 -322.55)" fill="none" stroke="#000" stroke-width="8"/><path d="M2593.469,323.437c0,.017.039.007.043.005.1-.046.043-.2-.011-.254-.215-.223-.573-.049-.721.159a1.1,1.1,0,0,0,.505,1.507,2.009,2.009,0,0,0,2.666-1.1,3.285,3.285,0,0,0-1.974-4.244c-2.585-1.06-5.374.707-6.283,3.174a6.62,6.62,0,0,0,1.134,6.322" transform="translate(-2570.195 -319.201)" fill="none" stroke="#000" stroke-width="8"/></g></svg>