<svg xmlns="http://www.w3.org/2000/svg" xmlns:xlink="http://www.w3.org/1999/xlink" width="100.372" height="99.039" viewBox="0 0 100.372 99.039"><defs><linearGradient id="a" x1="-31.27" y1="98.899" x2="-30.959" y2="98.145" gradientUnits="objectBoundingBox"><stop offset="0" stop-color="#65c2a8"/><stop offset="0.24" stop-color="#3aedbb"/><stop offset="1" stop-color="#65c2a8" stop-opacity="0"/></linearGradient><linearGradient id="b" x1="-35.548" y1="72.985" x2="-35.929" y2="73.668" gradientUnits="objectBoundingBox"><stop offset="0" stop-color="#65c2a8"/><stop offset="0.578" stop-color="#3aedbb"/><stop offset="1" stop-color="#65c2a8" stop-opacity="0"/></linearGradient><linearGradient id="c" x1="-12.965" y1="49.335" x2="-13.116" y2="50.104" gradientUnits="objectBoundingBox"><stop offset="0" stop-color="#000904"/><stop offset="0.524" stop-color="#48847d"/><stop offset="0.849" stop-color="#3e8f90"/><stop offset="1" stop-color="#c1f8ff"/></linearGradient><radialGradient id="d" cx="0.5" cy="0.5" r="0.517" gradientTransform="matrix(0.864, 0, 0, -0.641, -5.548, 360.743)" gradientUnits="objectBoundingBox"><stop offset="0" stop-color="#3e8e8e"/><stop offset="1" stop-color="#3e8e8e" stop-opacity="0"/></radialGradient><radialGradient id="e" cx="0.5" cy="0.5" r="0.952" gradientTransform="matrix(0.522, 0.5, 0.056, -0.16, -113.454, 1481.979)" gradientUnits="objectBoundingBox"><stop offset="0" stop-color="#3d8c8c"/><stop offset="1" stop-color="#3d8c8c" stop-opacity="0"/></radialGradient><linearGradient id="f" x1="-224.738" y1="350.592" x2="-224.16" y2="351.863" gradientUnits="objectBoundingBox"><stop offset="0" stop-color="#3b8a67"/><stop offset="1" stop-color="#fff"/></linearGradient><linearGradient id="g" x1="-176.873" y1="226.05" x2="-176.312" y2="226.706" gradientUnits="objectBoundingBox"><stop offset="0" stop-color="#63b995"/><stop offset="1" stop-color="#fff"/></linearGradient><linearGradient id="h" x1="12.929" y1="125.643" x2="11.971" y2="127.023" gradientUnits="objectBoundingBox"><stop offset="0" stop-color="#65c2a8"/><stop offset="0.476" stop-color="#3aedbb"/><stop offset="1" stop-color="#65c2a8" stop-opacity="0"/></linearGradient><linearGradient id="i" x1="-35.191" y1="423.342" x2="-34.263" y2="423.342" gradientUnits="objectBoundingBox"><stop offset="0" stop-color="#1a4a4a"/><stop offset="0.827" stop-color="#2c7b7b"/><stop offset="1" stop-color="#2c7b7b" stop-opacity="0"/></linearGradient><radialGradient id="j" cx="0.5" cy="0.5" r="0.527" gradientTransform="matrix(0.587, -0.809, -0.808, -0.588, 528.348, 1036.021)" gradientUnits="objectBoundingBox"><stop offset="0" stop-color="#bfe2e8"/><stop offset="1" stop-color="#bfe2e8" stop-opacity="0"/></radialGradient><radialGradient id="k" cx="0.5" cy="0.5" r="0.527" gradientTransform="matrix(0.587, -0.809, -0.808, -0.588, 2080.767, 4080.076)" xlink:href="#j"/><radialGradient id="l" cx="0.5" cy="0.5" r="0.527" gradientTransform="matrix(0.587, -0.809, -0.808, -0.588, 1366.616, 2679.648)" xlink:href="#j"/><radialGradient id="m" cx="0.5" cy="0.5" r="0.527" gradientTransform="matrix(0.587, -0.809, -0.808, -0.588, 963.939, 1890.038)" xlink:href="#j"/><radialGradient id="n" cx="0.5" cy="0.5" r="0.527" gradientTransform="matrix(0.587, -0.809, -0.808, -0.588, 920.986, 1806.118)" xlink:href="#j"/><radialGradient id="o" cx="0.5" cy="0.5" r="0.527" gradientTransform="matrix(0.587, -0.809, -0.808, -0.588, 429.337, 841.859)" xlink:href="#j"/><radialGradient id="p" cx="0.5" cy="0.5" r="0.527" gradientTransform="matrix(0.587, -0.809, -0.808, -0.588, 2696.961, 5288.672)" xlink:href="#j"/></defs><g transform="translate(0 0)"><path d="M2610.622,854.431c-1.571-8.013-1.25-16.7-5.428-23.716-4.219-7.083-12.1-10.933-18.682-15.9-2.36-1.783-4.633-3.774-7.382-4.866-2.957-1.175-6.224-1.214-9.4-1.238-11.544-.087-23.781.011-33.608,6.066-6.585,4.058-11.386,10.393-16.019,16.587-2.445,3.268-4.925,6.607-6.241,10.47-2.847,8.357.186,17.416,1.041,26.2.465,4.783.306,9.77,2.254,14.163,1.756,3.961,5.04,7,8.237,9.928l13.5,12.352,1.213.137c6.322,3.624,14.072,3.294,21.346,2.859,3.656-.218,7.428-.467,10.7-2.108,3.371-1.689,5.876-4.685,8.906-6.93,5.944-4.405,13.682-5.773,19.757-10a31.389,31.389,0,0,0,6.837-6.688,24.108,24.108,0,0,0,5.235-11.384C2613.577,865.016,2611.66,859.725,2610.622,854.431Z" transform="translate(-2512.663 -808.694)" fill="#fff"/><g transform="translate(0.488 8.296)"><path d="M2516.1,867.587c-1.694,4.765,1.068,9.855,3.728,14.156a31.856,31.856,0,0,0,5.918,7.688c1.464,1.259,3.153,2.248,4.541,3.589,1.433,1.384,2.5,3.1,3.886,4.535,3.554,3.673,8.786,5.1,13.784,6.167,4.177.894,8.383,1.648,12.587,2.4a42.125,42.125,0,0,0,9.211.958c7.135-.311,13.6-4.2,19.3-8.51a59.041,59.041,0,0,0,12.6-12.307,30.207,30.207,0,0,0,6.016-16.354c.115-3.457-.512-6.946.039-10.361.392-2.426,1.373-4.763,1.42-7.221a15.583,15.583,0,0,0-.815-4.77,41.442,41.442,0,0,0-21.981-25.292l-16.716,8.534c-2.437,1.244-5.115,2.526-7.8,1.987-1.883-.378-3.486-1.613-5.326-2.162-4.037-1.206-9.064.865-12.248-1.895-1.074-.93-1.741-2.3-2.938-3.066-1.9-1.214-4.4-.509-6.461.411a38.282,38.282,0,0,0-15.942,13.366c-5.437,8.013-7.525,18.965-2.87,27.456" transform="translate(-2513.462 -822.267)" fill="#f4a931"/></g></g><g transform="translate(4.789 25.284)"><path d="M2614.053,850.22c-4.388.073-8.521,1.906-12.2,4.168a28.507,28.507,0,0,1-8.417,3.258c-.834,1.252-.292,2.831-.41,4.232a3.269,3.269,0,0,0,2.1,2.617c1.57,1.61,3.12,3.658,5.5,4.058a6.342,6.342,0,0,0,6.081-1.854,12.153,12.153,0,0,1,3.005-2.819c.134-.133.6-.367.232-.455-1.026-.743-.985-2.372-2.192-2.964a1.962,1.962,0,0,1-.885-2.675c-.389-.689.343-1.426.975-1.618.487-.1.08-.153-.189-.245-.361-.13-.936-.352-.652-.809.4-.9,1.5-.971,2.361-.943a7.371,7.371,0,0,0,2.108-1.511c.723-.631,1.26-1.464,2.022-2.046a6.026,6.026,0,0,0,.766-.4l-.2,0Z" transform="translate(-2548.675 -850.123)" stroke="#707070" stroke-width="1.5" fill="url(#a)"/><path d="M2598.816,861.335a20.527,20.527,0,0,0,2.7-1.2c.875-.568,1.684-1.231,2.532-1.837.172-.146,3.226-1.834,3.391-1.988m-7.894,5.424a7.514,7.514,0,0,0,3-1.254c.464-.372,4.3-2.4,4.716-2.811m-6.131,4.723c1.562-.607,2.967-1.543,4.487-2.238a12.333,12.333,0,0,0,1.478-1.208m-5.043,4.039a11.236,11.236,0,0,0,3.058-1.966l.037-.076m-1.976,2.9a13.162,13.162,0,0,0,3.1-1.741,8.088,8.088,0,0,0,.794-1.449m-8.967-.565c1.189-.542,2.292-1.245,3.419-1.9.256-.137,6.521-3.122,6.74-3.315m-4.164,9.559a27.751,27.751,0,0,0,2.525-1.892c.083-.069.164-.141.241-.216m1.745.391c-.893.631-2.271,1.352-2.993,2a9.4,9.4,0,0,1-.6.773m1.054.527a13.478,13.478,0,0,1,1.89-1.6c.158-.138.89-.982,1.106-1.008m-1.876,2.938c.533-.459,1.08-.9,1.647-1.317m-.593,2.108a12.754,12.754,0,0,0,2.173-2.437" transform="translate(-2550.669 -851.932)" fill="none" stroke="#707070" stroke-width="4"/><path d="M2642.058,887.47c1.044,1.569,1.989,3.222,2.89,4.869.178.427.335,1.255.34.336.165-2.01.709-4.006.692-6.018a3.638,3.638,0,0,0-2.4-2.547c-1.139-.732-1.471-2.714-.193-3.482a4.854,4.854,0,0,1,3.011-.638c-1.094-.458-2.314-1.378-2.157-2.714a2.574,2.574,0,0,1,2.852-1.983,1.3,1.3,0,0,0,1.4-.8,24.336,24.336,0,0,1,5.056-5.927,21.673,21.673,0,0,0-8.013,3.305c-3.373,3.177-10.263,6.021-10.572,9.179-.192,1.965,4.448,4.052,7.1,6.418Z" transform="translate(-2565 -857.258)" stroke="#707070" stroke-width="1.5" fill="url(#b)"/><path d="M2638.4,881.164c.779-.18,1.235-.923,1.9-1.321a13.312,13.312,0,0,1,2.558-1.919c.646-.367,1.162-.91,1.824-1.254a23.559,23.559,0,0,1,2.05-1.4,8.328,8.328,0,0,0,2.047-1.3l.1-.117m-10.144,7.97c.813-.642,1.8-1.015,2.629-1.618.674-.467,1.395-.868,2.076-1.312a6.057,6.057,0,0,1,.96-.232m-5.73,6.389a18.8,18.8,0,0,1,2.073,1.315c.568.644,1.346,1.018,1.927,1.644a8.59,8.59,0,0,0,1.851,1.8,3.265,3.265,0,0,1,1,1.7m.264,0,.028.007.038-.007m-6.917-7.377a34.582,34.582,0,0,0,3.933,2.652c.6.573,1.481.772,2.052,1.368.222.383.395.792.6,1.183m-6.258-5.664c.955.442,1.976.714,2.926,1.162a1.534,1.534,0,0,0,.631.089m-3.425-2.635c1.324-.249,2.532-.931,3.868-1.116.625-.07,1.24.1,1.862.062m-5.73,1.845a9.559,9.559,0,0,1,2.553.286,6.7,6.7,0,0,0,.74.109" transform="translate(-2566.344 -859.313)" fill="none" stroke="#707070" stroke-width="3"/><path d="M2575.479,862.763c-14.2.109-17.954,10.523-18.227,19.926-.466,16.327,23.455,13.942,32.161,9.558,6.155-3.1,13.47-8.222,16.1-9.658,3.348-1.964,3.609-5.955-.175-6.335-3.094-.056-5.2-1.683-9.172-3.816-5.791-3.111-12.173-9.091-17.711-9.557-1.042-.088-2.035-.124-2.981-.117Z" transform="translate(-2534.787 -855.001)"/><path d="M2587.719,866.258c-.8,6.881-5.687,12.4-10.922,12.328s-8.833-5.71-8.036-12.591,5.687-12.4,10.922-12.329S2588.516,859.376,2587.719,866.258Z" transform="translate(-2539.221 -851.464)"/><path d="M2566.87,871.85c1.2,3.575.067,7.425-2.528,8.6s-5.674-.77-6.873-4.344-.067-7.426,2.528-8.6S2565.67,868.275,2566.87,871.85Z" transform="translate(-2534.688 -856.712)"/><path d="M2575.493,854.89c-3.032.122-5.6,2.216-7.19,4.672a22.739,22.739,0,0,0-1.823,3.714c-.661.241-1.325,1.021-2.079.579-1.2-1.2-3.505-1.4-4.6.052-1.708,2.074-1.6,5.158-.425,7.45a2.045,2.045,0,0,1,.279,2.085c-.757,3.479-1.27,7.226-.139,10.682a10.249,10.249,0,0,0,6.568,5.895c4.9,1.747,10.262,1.428,15.326.652a33.428,33.428,0,0,0,11.887-4.593c4.351-2.469,8.428-5.462,12.84-7.837,3.041-2.142,3.492-4.353-.533-3.947-3.234-.068-5.929-2.065-8.7-3.487-4.008-2.179-7.645-4.961-11.534-7.337-.913-.533-1.862-1.048-2.821-1.494-.471-2.9-2.233-5.876-5.147-6.826a5.834,5.834,0,0,0-1.906-.262Z" transform="translate(-2535.276 -851.939)" fill="url(#c)"/><path d="M2571.9,885.61c.292,3.57-3.737,5.364-7.61,6.709s-6.129,1.736-6.42-1.835,2.615-7.561,6.487-8.906,7.252.461,7.544,4.032Z" transform="translate(-2535.021 -862.144)" fill="url(#d)"/><g transform="translate(49.863 15.155)"><path d="M2605.336,875.722c-1.213-.214-.644.968-.687,1.724-.05,1.14.257,2.611-.687,3.452.438.466.939,1.195,1.328.35.91-1.688.553-3.74.425-5.578l-.378.053Z" transform="translate(-2602.815 -875.174)" fill="#3e6763"/><path d="M2607.488,876.265c-1.217-.216-.644.977-.681,1.735-.05,1.136.24,2.6-.693,3.441.439.556,1.014,1.1,1.38.262.831-1.684.516-3.681.373-5.49l-.379.053Z" transform="translate(-2603.652 -875.385)" fill="#3e6763"/><path d="M2603.453,874.905c-1.229-.216-.636.986-.687,1.741-.05,1.134.251,2.6-.681,3.441.431.593.988,1.125,1.362.279.836-1.689.524-3.691.385-5.508l-.379.047Z" transform="translate(-2602.085 -874.859)" fill="#3e6763"/></g><path d="M2610.942,877.026c-.412.713-3.869-.513-7.723-2.738s-6.645-4.606-6.233-5.32,3.869.513,7.723,2.738S2611.354,876.313,2610.942,877.026Z" transform="translate(-2550.223 -857.335)" fill="url(#e)"/><path d="M2576.434,900.936a12.826,12.826,0,0,0,2.229-4.652c1.01-1.966.735,4.2.736,4.487" transform="translate(-2542.248 -867.885)" stroke="#000" stroke-width="2.5" fill="url(#f)"/><path d="M2566.378,872.492c1,2.968.056,6.166-2.1,7.142s-4.711-.639-5.708-3.607-.056-6.166,2.1-7.142S2565.382,869.524,2566.378,872.492Z" transform="translate(-2535.148 -857.271)" fill="#fff"/><path d="M2586.457,868.662c-.662,5.714-4.723,10.3-9.07,10.237s-7.335-4.742-6.673-10.456,4.722-10.3,9.07-10.237S2587.118,862.947,2586.457,868.662Z" transform="translate(-2539.988 -853.229)" fill="#fff"/><path d="M2582.72,900.215c1.6-1.779,2.276-5.181,2.69-7.5,1.621.3,1.093,6.27.771,7.829" transform="translate(-2544.692 -866.647)" stroke="#000" stroke-width="2.5" fill="url(#g)"/><path d="M2603.2,897.874c2.271,3.173,1.746,7.663,4.513,10.561,1.445,1.731,3.4,3.542,5.835,3.263,7.967-1.483,6.256-2.076.3-3.782a2.05,2.05,0,0,1,.251-2.579c.3-.468.652-1.089.314-1.637-.543-.112-1.411.287-1.717-.335-.389-1.241.661-2.575.043-3.769a17.617,17.617,0,0,0-6.213-2.913,11.467,11.467,0,0,1-2.16-1.011l-.117.221" transform="translate(-2552.656 -867.797)" stroke="#707070" stroke-width="1.943" fill="url(#h)"/><path d="M2573.7,903.431q-.534,0-1.065.041h-.023l-.023,0c-3.543.6-7.289,1.4-10.406,3.467.225.228.461.445.707.652,2.885-1.84,6.4-2.615,9.828-3.193a15.319,15.319,0,0,1,7.764,1.453l.195.183.641-.675-.248-.236-.049-.046-.061-.032a15.973,15.973,0,0,0-7.257-1.615Z" transform="translate(-2536.706 -870.813)" fill="url(#i)"/><path d="M2523.7,881.448a2.012,2.012,0,0,1-2.351,3.266l-.015-.012a2.012,2.012,0,1,1,2.35-3.266Z" transform="translate(-2520.499 -862.115)" stroke="#78c9cb" stroke-width="5" fill="url(#j)"/><path d="M2522.852,881.666c.369.264.334.94-.077,1.51s-1.045.818-1.413.554l-.007,0c-.369-.264-.334-.94.078-1.51s1.044-.818,1.413-.554Z" transform="translate(-2520.733 -862.308)" fill="#fff"/><path d="M2522.852,881.666c.369.264.334.94-.077,1.51s-1.045.818-1.413.554l-.007,0c-.369-.264-.334-.94.078-1.51s1.044-.818,1.413-.554Z" transform="translate(-2520.733 -862.308)" fill="#cdf6f9"/><path d="M2549.635,903.023a1.077,1.077,0,0,1-1.259,1.749l-.008-.006a1.077,1.077,0,1,1,1.258-1.749Z" transform="translate(-2531.161 -870.574)" stroke="#78c9cb" stroke-width="5" fill="url(#k)"/><path d="M2549.178,903.138c.2.141.179.5-.042.809s-.559.438-.756.3l0,0c-.2-.142-.179-.5.042-.809s.559-.438.756-.3Z" transform="translate(-2531.285 -870.677)" fill="#fff"/><path d="M2549.178,903.138c.2.141.179.5-.042.809s-.559.438-.756.3l0,0c-.2-.142-.179-.5.042-.809s.559-.438.756-.3Z" transform="translate(-2531.285 -870.677)" fill="#cdf6f9"/><path d="M2552.454,893.923a1.311,1.311,0,1,1-1.531,2.127l-.01-.007a1.311,1.311,0,0,1,1.532-2.128Z" transform="translate(-2532.113 -867.018)" stroke="#78c9cb" stroke-width="5" fill="url(#l)"/><path d="M2551.9,894.061c.24.172.218.612-.05.983s-.68.533-.92.361l0,0c-.24-.172-.218-.612.05-.983s.68-.533.92-.361Z" transform="translate(-2532.265 -867.143)" fill="#fff"/><path d="M2551.9,894.061c.24.172.218.612-.05.983s-.68.533-.92.361l0,0c-.24-.172-.218-.612.05-.983s.68-.533.92-.361Z" transform="translate(-2532.265 -867.143)" fill="#cdf6f9"/><path d="M2542.87,895.065a1.544,1.544,0,1,1-1.8,2.507l-.012-.009a1.544,1.544,0,0,1,1.8-2.507Z" transform="translate(-2528.241 -867.445)" stroke="#78c9cb" stroke-width="5" fill="url(#m)"/><path d="M2542.216,895.235c.284.2.257.721-.059,1.159s-.8.628-1.085.425l0,0c-.283-.2-.256-.722.06-1.159s.8-.628,1.084-.425Z" transform="translate(-2528.42 -867.594)" fill="#fff"/><path d="M2542.216,895.235c.284.2.257.721-.059,1.159s-.8.628-1.085.425l0,0c-.283-.2-.256-.722.06-1.159s.8-.628,1.084-.425Z" transform="translate(-2528.42 -867.594)" fill="#cdf6f9"/><path d="M2541.792,871.069a1.545,1.545,0,0,1-1.8,2.508l-.012-.009a1.544,1.544,0,1,1,1.8-2.507Z" transform="translate(-2527.822 -858.114)" stroke="#78c9cb" stroke-width="5" fill="url(#n)"/><path d="M2541.138,871.237c.283.2.257.721-.059,1.159s-.8.628-1.085.425l0,0c-.283-.2-.257-.722.059-1.159s.8-.628,1.085-.425Z" transform="translate(-2528.001 -858.263)" fill="#fff"/><path d="M2541.138,871.237c.283.2.257.721-.059,1.159s-.8.628-1.085.425l0,0c-.283-.2-.257-.722.059-1.159s.8-.628,1.085-.425Z" transform="translate(-2528.001 -858.263)" fill="#cdf6f9"/><path d="M2535.287,850.484a2.167,2.167,0,0,1-2.532,3.518l-.017-.012a2.168,2.168,0,1,1,2.532-3.519Z" transform="translate(-2524.907 -850.063)" stroke="#78c9cb" stroke-width="5" fill="url(#o)"/><path d="M2534.373,850.72c.4.284.36,1.012-.083,1.626s-1.125.881-1.522.6l-.007-.006c-.4-.284-.36-1.012.084-1.626s1.125-.881,1.522-.6Z" transform="translate(-2525.159 -850.272)" fill="#fff"/><path d="M2534.373,850.72c.4.284.36,1.012-.083,1.626s-1.125.881-1.522.6l-.007-.006c-.4-.284-.36-1.012.084-1.626s1.125-.881,1.522-.6Z" transform="translate(-2525.159 -850.272)" fill="#cdf6f9"/><path d="M2530.228,878.712a.921.921,0,0,1-1.076,1.5l-.007-.006a.921.921,0,0,1,1.076-1.5Z" transform="translate(-2523.712 -861.133)" stroke="#78c9cb" stroke-width="5" fill="url(#p)"/><path d="M2529.839,878.813c.168.12.153.43-.036.691s-.478.374-.647.254l0,0c-.169-.121-.153-.43.035-.691s.478-.375.647-.254Z" transform="translate(-2523.818 -861.222)" fill="#fff"/><path d="M2529.839,878.813c.168.12.153.43-.036.691s-.478.374-.647.254l0,0c-.169-.121-.153-.43.035-.691s.478-.375.647-.254Z" transform="translate(-2523.818 -861.222)" fill="#cdf6f9"/><path d="M2605.594,876.4s.494,3.955-.494,4.944" transform="translate(-2553.394 -860.305)" fill="none" stroke="#000" stroke-width="2.5"/><path d="M2607.749,876.944s.494,3.955-.494,4.944" transform="translate(-2554.232 -860.515)" fill="none" stroke="#000" stroke-width="2.5"/><path d="M2603.7,875.6s.494,3.955-.495,4.944" transform="translate(-2552.659 -859.991)" fill="none" stroke="#000" stroke-width="2.5"/><path d="M2583.705,876.046a4.325,4.325,0,1,1-4.324-4.325A4.325,4.325,0,0,1,2583.705,876.046Z" transform="translate(-2541.712 -858.484)" fill="#d9feff" stroke="#acfdff" stroke-width="5" opacity="0.676" style="isolation:isolate"/><path d="M2583.38,876.974a2.638,2.638,0,1,1-5.276.006v-.006a2.638,2.638,0,1,1,5.276,0Z" transform="translate(-2542.897 -859.501)"/><path d="M2583.109,877.369a2.043,2.043,0,0,1-4.086,0v0a2.043,2.043,0,1,1,4.086,0Z" transform="translate(-2543.255 -859.886)" fill="#f9f9f9"/><path d="M2582.646,878.141a.766.766,0,1,1-1.531.013v-.013a.766.766,0,1,1,1.531-.013Z" transform="translate(-2544.068 -860.68)"/><path d="M2567.7,877.88a2.543,2.543,0,1,1-2.543-2.544A2.543,2.543,0,0,1,2567.7,877.88Z" transform="translate(-2536.874 -859.89)" fill="#e5feff" stroke="#c7feff" stroke-width="5" opacity="0.676" style="isolation:isolate"/><path d="M2567.549,878.356a1.661,1.661,0,0,1-3.322,0v0a1.661,1.661,0,1,1,3.322,0Z" transform="translate(-2537.501 -860.418)"/><path d="M2567.349,878.658a1.2,1.2,0,0,1-2.4,0v0a1.2,1.2,0,1,1,2.4,0Z" transform="translate(-2537.781 -860.714)" fill="#fff"/><path d="M2574.756,858.206c-4.042.072-7.8,4.138-8.745,9.342-1.167-2.379-3.412-3.576-5.336-2.7-2.155.975-3.094,4.174-2.1,7.141s3.551,4.582,5.706,3.607a4.061,4.061,0,0,0,1.991-2.157c.969,3.219,3.306,5.426,6.279,5.468,4.345.06,8.406-4.528,9.068-10.238s-2.327-10.4-6.672-10.457c-.064,0-.128,0-.192,0Zm.218.553a5.047,5.047,0,0,1,.509.032,6.466,6.466,0,0,1,5.109,4.768,12.633,12.633,0,0,1-3.747,13.179,6.166,6.166,0,0,1-6.507,1.085c-2.3-1.141-3.49-3.662-3.941-6.078a20.362,20.362,0,0,1-.928,2.023,2.888,2.888,0,0,1-3.583,1.345c-2.819-1.351-3.828-5.139-2.687-7.927a3.041,3.041,0,0,1,3.5-1.968c1.936.539,2.94,2.525,3.563,4.285a15.112,15.112,0,0,1,2.14-6.587c1.392-2.186,3.678-4.082,6.4-4.154.057,0,.115,0,.172,0Z" transform="translate(-2535.15 -853.229)" fill="#a5d1dc"/><path d="M2598.257,864.808a42.6,42.6,0,0,1,.838,6.707" transform="translate(-2550.733 -855.796)" fill="#2c7b7b" stroke="#707070" stroke-width="5"/><path d="M2559.613,883.876s2.24,3.03,4.611,2.437" transform="translate(-2535.708 -863.21)" fill="none" stroke="#707070" stroke-width="4"/><path d="M2568.127,885.876a6.341,6.341,0,0,0,1.977-2.108s.593,2.5,1.646,2.964" transform="translate(-2539.018 -863.168)" fill="none" stroke="#707070" stroke-width="3"/><path d="M2604.506,897.977a19.562,19.562,0,0,0,2.065,2.814c.872,1.342,1.14,2.953,1.763,4.407a11.518,11.518,0,0,0,1.911,3.505,4.03,4.03,0,0,0,2.074,1.576c.474.051.935-.147,1.409-.1m-8.011-12.017a3.859,3.859,0,0,1,1.943,2.519,13.178,13.178,0,0,0,.9,1.72c.738,1.653,1.057,3.481,2.009,5.04a2.749,2.749,0,0,0,1.672,1.526m-5.869-11.086c.6.46,1.519.436,1.969,1.112,1.324,1.213,1.747,3.027,2.622,4.535a31.015,31.015,0,0,1,1.233,3.055,2.407,2.407,0,0,1,.045.334m-7.359-7.173c.342.707,1.1,1.158,1.279,1.955a13.281,13.281,0,0,1,1.439,4.3,8.172,8.172,0,0,0,1.724,2.565,4.963,4.963,0,0,0,2.769,2.308c.481.125.974.2,1.452.333" transform="translate(-2553.163 -868.657)" fill="none" stroke="#707070" stroke-width="3"/><path d="M2567.039,879.094a.393.393,0,0,1-.787.007v-.007a.393.393,0,0,1,.787-.007Z" transform="translate(-2538.289 -861.197)"/></g></svg>