<svg xmlns="http://www.w3.org/2000/svg" xmlns:xlink="http://www.w3.org/1999/xlink" width="100.372" height="99.04" viewBox="0 0 100.372 99.04"><defs><clipPath id="a"><rect width="35.879" height="40.268" fill="none"/></clipPath><radialGradient id="b" cx="0.5" cy="0.5" r="0.639" gradientTransform="matrix(-0.692, 0.702, 0.348, 0.363, -187.186, 76.292)" gradientUnits="objectBoundingBox"><stop offset="0" stop-color="#f15b5a" stop-opacity="0.29"/><stop offset="1" stop-color="#f15b5a" stop-opacity="0"/></radialGradient></defs><g transform="translate(0 0)"><path d="M2610.622,1702.253c-1.571-8.013-1.25-16.7-5.428-23.717-4.219-7.082-12.1-10.932-18.682-15.9-2.36-1.783-4.633-3.774-7.382-4.865-2.957-1.175-6.224-1.214-9.4-1.238-11.544-.087-23.781.011-33.608,6.067-6.585,4.058-11.386,10.393-16.019,16.587-2.445,3.268-4.925,6.607-6.241,10.47-2.847,8.357.186,17.416,1.041,26.2.465,4.783.306,9.77,2.254,14.163,1.756,3.961,5.04,7,8.237,9.928l13.5,12.353,1.213.137c6.322,3.624,14.072,3.293,21.346,2.859,3.656-.219,7.428-.467,10.7-2.108,3.371-1.689,5.876-4.685,8.906-6.93,5.944-4.405,13.682-5.773,19.757-10a31.389,31.389,0,0,0,6.837-6.688,24.111,24.111,0,0,0,5.235-11.384C2613.577,1712.838,2611.66,1707.547,2610.622,1702.253Z" transform="translate(-2512.663 -1656.516)" fill="#fff"/><g transform="translate(0.488 8.296)"><path d="M2516.1,1715.409c-1.694,4.765,1.068,9.855,3.728,14.156a31.857,31.857,0,0,0,5.918,7.688c1.464,1.259,3.153,2.248,4.541,3.589,1.433,1.384,2.5,3.1,3.886,4.535,3.554,3.673,8.786,5.1,13.784,6.167,4.177.894,8.383,1.648,12.587,2.4a42.077,42.077,0,0,0,9.211.959c7.135-.311,13.6-4.2,19.3-8.51a59.041,59.041,0,0,0,12.6-12.307,30.208,30.208,0,0,0,6.016-16.354c.115-3.457-.512-6.946.039-10.361.392-2.426,1.373-4.763,1.42-7.221a15.583,15.583,0,0,0-.815-4.77,41.442,41.442,0,0,0-21.981-25.292l-16.716,8.534c-2.437,1.244-5.115,2.526-7.8,1.987-1.883-.378-3.486-1.613-5.326-2.162-4.037-1.206-9.064.864-12.248-1.895-1.074-.93-1.741-2.3-2.938-3.066-1.9-1.214-4.4-.509-6.461.411a38.28,38.28,0,0,0-15.942,13.366c-5.437,8.013-7.525,18.965-2.87,27.456" transform="translate(-2513.462 -1670.089)" fill="#49baf2"/></g></g><g transform="translate(12.009 17.999)"><g transform="translate(0 9.701)"><g clip-path="url(#a)"><g transform="translate(4.599 4.456)"><path d="M2562.4,1739.316c4.061.262-35.066,2.446-18.411-12.208,20.377-17.929,48.157,79.658,19.98,10.2" transform="translate(-2539.836 -1715.248)" fill="rgba(130,212,242,0.35)" stroke="#010101" stroke-width="6.123"/><path d="M2570.054,1735.754s-10.173-23.847.952-26.253c18.605-4.023.679,25.994,1,25.2" transform="translate(-2549.932 -1709.13)" fill="rgba(130,212,242,0.35)" stroke="#010101" stroke-width="6.123"/></g></g></g><g transform="translate(35.915)"><path d="M2618.172,1710.835c-1.287-1.05-1.48-3.062-1.919-4.627-.779-3.309-1.3-6.917.035-10.143,1.39-2.588,3.839-5.955,7-6.118l.526.5c-3.164-.015-5.662,3.445-7,6.006-1.315,3.222-.783,6.827.013,10.12.161.579,1.992,5.09.837,3.726l.51.541Z" transform="translate(-2600.56 -1687.514)" fill="#010101"/><path d="M2629.232,1690.463a1.945,1.945,0,0,1-.513-2.568,1.669,1.669,0,0,1,2.449-.212l0,0a1.947,1.947,0,0,1,.513,2.569,1.668,1.668,0,0,1-2.449.212l0,0Z" transform="translate(-2605.601 -1686.466)" fill="#010101"/><path d="M2605.639,1707.271c-1.177-1.126-1.568-3.023-2.11-4.531-1.021-3.172-4.9-4.419-4.177-7.271.844-2.25,6.608-5.559,9.185-5.346l.489.522c-2.6-.379-7.7,3.291-8.506,5.522-.709,2.849,2.487,3.814,3.521,6.973.2.558,2.224,4.971,1.116,3.567l.481.563Z" transform="translate(-2594.259 -1687.578)" fill="#010101"/><path d="M2613.546,1688.912a2.2,2.2,0,0,1-.688-2.459c.374-.666,1.288-.647,2.043.044l0,0a2.2,2.2,0,0,1,.688,2.458c-.374.667-1.288.647-2.042-.045l0,0Z" transform="translate(-2599.484 -1685.966)" fill="#010101"/><path d="M2608.48,1762.156l.135-.045c.572.364.671,1.18.911,1.779a29.193,29.193,0,0,1,1.1,3.559c.226.766.183,2.039.5,2.773a.458.458,0,0,1-.631-.51,21.993,21.993,0,0,0-1.374-5.418c-.276-.7-.21-1.526-.641-2.137Z" transform="translate(-2597.843 -1715.573)" fill="#010101"/><path d="M2610.675,1760.3a18.429,18.429,0,0,1,.848,2.127,19.719,19.719,0,0,1,.644,2.972,8.929,8.929,0,0,1-.164,2.31c-.391-.211-.248-.819-.291-1.4a35.862,35.862,0,0,0-.73-3.844,14.925,14.925,0,0,0-.733-2.28c.16.161.3-.072.425.119Z" transform="translate(-2598.531 -1714.822)" fill="#010101"/><path d="M2600.9,1772.116l.163-.052c.7.448.828,1.432,1.128,2.157a36.163,36.163,0,0,1,1.384,4.307c.285.927.251,2.461.643,3.35a.566.566,0,0,1-.77-.625c-.036-1.84-1.16-4.883-1.741-6.552-.344-.845-.277-1.842-.806-2.586Z" transform="translate(-2594.896 -1719.443)" fill="#010101"/><path d="M2603.747,1770.822a22.692,22.692,0,0,1,1.057,2.577,24.068,24.068,0,0,1,.823,3.591,10.694,10.694,0,0,1-.164,2.782c-.476-.26-.312-.99-.373-1.7a43.538,43.538,0,0,0-.939-4.645,18.275,18.275,0,0,0-.92-2.76c.2.2.361-.083.516.151Z" transform="translate(-2595.802 -1718.901)" fill="#010101"/><path d="M2591.076,1779.939l.163-.052c.7.448.829,1.432,1.128,2.157a36.163,36.163,0,0,1,1.384,4.307c.285.927.25,2.461.643,3.35a.567.567,0,0,1-.771-.625c-.036-1.84-1.159-4.883-1.741-6.552-.343-.844-.277-1.842-.805-2.586Z" transform="translate(-2591.076 -1722.485)" fill="#010101"/><path d="M2594.844,1779a22.727,22.727,0,0,1,1.057,2.577,24.018,24.018,0,0,1,.823,3.592,10.673,10.673,0,0,1-.164,2.782c-.476-.259-.312-.991-.372-1.7a43.748,43.748,0,0,0-.94-4.644,18.21,18.21,0,0,0-.921-2.761c.2.2.361-.081.517.151Z" transform="translate(-2592.34 -1722.083)" fill="#010101"/></g><g transform="translate(20.966 12.199)"><g transform="translate(0 14.853)"><path d="M2569.481,1745.444c4-5.372,11.289-6.722,16.276-3.012s5.788,11.082,1.791,16.455-12.047,8.86-17.033,5.15-5.031-13.22-1.032-18.593Z" transform="translate(-2566.616 -1734.16)" fill="#272626" stroke="#010101" stroke-width="9"/><path d="M2588.9,1746.7c-4.69-3.488-6.152-9.46-3.265-13.339s9.026-4.193,13.715-.7,6.152,9.462,3.265,13.34-9.025,4.194-13.715.7Z" transform="translate(-2573.437 -1730.229)" fill="#272626" stroke="#010101" stroke-width="3.385"/></g><path d="M2620.782,1725.672c8.753-19.186-14.89-19.916-16.813-19.726-7.564.75-17.67,6.1-12.412,20.075,3.489,7.81,17.781,18.338,29.225-.35Z" transform="translate(-2575.748 -1705.926)" fill="#fee800" stroke="#010101" stroke-width="6.123"/><path d="M2599.3,1707.847c2.963-.573,6.9,1.343,7.946,6.744s-2.209,9.471-5.173,10.044-6.213-3.34-7.258-8.74,1.521-7.474,4.484-8.047Z" transform="translate(-2577.488 -1706.635)" fill="#fff" stroke="#010101" stroke-width="5"/></g><path d="M2613.812,1747.574c-1.758-1.745-.355-5.894,3.135-9.267s7.746-4.691,9.505-2.946.355,5.894-3.135,9.266S2615.571,1749.319,2613.812,1747.574Z" transform="translate(-2563.706 -1704.873)" fill="url(#b)"/><g transform="translate(21.27 34.119)"><path d="M2574.254,1744.356c1.723,8.986,10.917,15.452,16.678,14.385a8.665,8.665,0,0,0,1.642-4.135c-7.667-.33-13.314-10.34-14.123-12.815a9.77,9.77,0,0,0-4.2,2.564Z" transform="translate(-2569.89 -1741.792)" fill="#fee800"/><path d="M2567.114,1756.737c1.988,8.082,7.588,11.448,12.625,12a22.5,22.5,0,0,0,5.2-2.951c-8.6-.584-14.976-9.854-15.844-15.128a17.753,17.753,0,0,0-1.978,6.075Z" transform="translate(-2567.114 -1745.241)" fill="#fee800"/></g><path d="M2622.669,1700.717c2.964-.573,6.9,1.343,7.946,6.744s-2.209,9.471-5.173,10.044-6.213-3.34-7.258-8.741,1.521-7.475,4.484-8.048Z" transform="translate(-2565.609 -1691.664)" fill="#fff" stroke="#010101" stroke-width="5"/><path d="M2611.774,1740.338a6.7,6.7,0,0,0,.919,1.169,3.82,3.82,0,0,0,1.035.724,5.663,5.663,0,0,0,2.385.471,16.187,16.187,0,0,0,2.694-.257c.941-.149,1.9-.369,2.975-.515a6.087,6.087,0,0,1-1.121,1.149,7.615,7.615,0,0,1-1.356.86,7.115,7.115,0,0,1-3.21.765,5.519,5.519,0,0,1-1.731-.285,4.281,4.281,0,0,1-1.563-.922,3.546,3.546,0,0,1-.957-1.5,3.119,3.119,0,0,1-.071-1.657Z" transform="translate(-2563.177 -1707.107)" fill="#1d1d1b"/><path d="M2601.274,1725.885c.621,1.929,2.309,3.283,3.777,3.01s2.16-2.073,1.54-4-2.323-3.266-3.79-2.992-2.149,2.055-1.527,3.984Zm4.753-1.376c.186.579-.046,1.125-.51,1.211a1.163,1.163,0,0,1-1.169-.9c-.187-.579.029-1.122.491-1.208A1.179,1.179,0,0,1,2606.028,1724.508Z" transform="translate(-2559.037 -1699.924)" fill="#010101"/><path d="M2624.864,1718.5c.621,1.929,2.31,3.282,3.778,3.009s2.161-2.073,1.54-4-2.322-3.266-3.79-2.992-2.148,2.054-1.527,3.985Zm4.754-1.377c.186.579-.047,1.125-.511,1.211a1.163,1.163,0,0,1-1.169-.9c-.188-.579.029-1.122.491-1.208a1.181,1.181,0,0,1,1.189.9Z" transform="translate(-2568.209 -1697.053)" fill="#010101"/></g></svg>