<svg xmlns="http://www.w3.org/2000/svg" width="102.796" height="99.039" viewBox="0 0 102.796 99.039"><g transform="translate(2.197)"><g transform="translate(0.226)"><path d="M2610.622,1150.431c-1.571-8.013-1.25-16.7-5.428-23.716-4.219-7.083-12.1-10.933-18.682-15.9-2.36-1.783-4.633-3.774-7.382-4.866-2.957-1.175-6.224-1.214-9.4-1.238-11.544-.087-23.781.011-33.608,6.067-6.585,4.058-11.386,10.393-16.019,16.587-2.445,3.268-4.925,6.607-6.241,10.47-2.847,8.357.186,17.416,1.041,26.2.465,4.783.306,9.77,2.254,14.163,1.756,3.961,5.04,7,8.237,9.928l13.5,12.353,1.213.137c6.322,3.624,14.072,3.294,21.346,2.859,3.656-.218,7.428-.467,10.7-2.108,3.371-1.689,5.876-4.685,8.906-6.93,5.944-4.405,13.682-5.773,19.757-10a31.389,31.389,0,0,0,6.837-6.688,24.108,24.108,0,0,0,5.235-11.384C2613.577,1161.016,2611.66,1155.725,2610.622,1150.431Z" transform="translate(-2512.663 -1104.694)" fill="#fff"/><g transform="translate(0.488 8.296)"><path d="M2516.1,1163.587c-1.694,4.765,1.068,9.855,3.728,14.156a31.859,31.859,0,0,0,5.918,7.688c1.464,1.259,3.153,2.248,4.541,3.589,1.433,1.384,2.5,3.1,3.886,4.535,3.554,3.673,8.786,5.1,13.784,6.167,4.177.894,8.383,1.648,12.587,2.4a42.129,42.129,0,0,0,9.211.958c7.135-.311,13.6-4.2,19.3-8.51a59.041,59.041,0,0,0,12.6-12.307,30.208,30.208,0,0,0,6.016-16.354c.115-3.457-.512-6.946.039-10.361.392-2.426,1.373-4.764,1.42-7.221a15.583,15.583,0,0,0-.815-4.77,41.441,41.441,0,0,0-21.981-25.292l-16.716,8.534c-2.437,1.244-5.115,2.526-7.8,1.987-1.883-.378-3.486-1.613-5.326-2.162-4.037-1.206-9.064.865-12.248-1.895-1.074-.93-1.741-2.3-2.938-3.066-1.9-1.214-4.4-.509-6.461.411a38.28,38.28,0,0,0-15.942,13.366c-5.437,8.013-7.525,18.965-2.87,27.456" transform="translate(-2513.462 -1118.267)" fill="#695cc7"/></g></g><g transform="translate(0 14.22)"><path d="M2560.622,1168.146c-.218-.695-11.235-11.914-25.34-18.763-7.031-3.414,27.788-27.09,27.205-20.158-1.525,18.159,7.89,36.986,7.89,36.986" transform="translate(-2520.867 -1127.961)" fill="#acdae0" stroke="#1a171b" stroke-miterlimit="10" stroke-width="3.952"/><path d="M2578.813,1186.477a7.323,7.323,0,0,1-1.26,4.122v0a7.371,7.371,0,0,1-10.18,2.025,12.217,12.217,0,0,1-11.051-.2h0a15.02,15.02,0,0,1-2.563.217,12.537,12.537,0,0,1-6.963-1.9,9.993,9.993,0,0,1-2.217.245,8.73,8.73,0,0,1-5.211-1.577c-.65.047-1.323.072-2.014.072a19.579,19.579,0,0,1-8.1-1.46,22.86,22.86,0,0,1-4.386.406c-4.619,0-8.486-1.251-9.465-2.926-1.87-.626-3.1-1.693-3.1-2.9,0-1.933,3.132-3.5,7-3.5a9.548,9.548,0,0,1,6.133,1.814c3.55.079,6.588.9,8.106,2.063a26.811,26.811,0,0,1,3.819-.265c.828,0,1.633.036,2.4.1a8.985,8.985,0,0,1,4.824-1.307,9.338,9.338,0,0,1,4.115.908,13.92,13.92,0,0,1,5.066-.908,15.132,15.132,0,0,1,2.168.155,11.531,11.531,0,0,1,6.108-1.659,12.076,12.076,0,0,1,4.595.881,7.352,7.352,0,0,1,4.812-1.785,7.369,7.369,0,0,1,7.373,7.376Z" transform="translate(-2512.293 -1147.846)" fill="#96bd0d" stroke="#1a171b" stroke-miterlimit="10" stroke-width="4.394"/><path d="M2573.073,1179.249a7.449,7.449,0,0,0-1.474-.148,7.352,7.352,0,0,0-4.812,1.785,12.075,12.075,0,0,0-4.595-.881,11.532,11.532,0,0,0-6.108,1.659,15.131,15.131,0,0,0-2.168-.155,13.92,13.92,0,0,0-5.066.908,9.337,9.337,0,0,0-4.115-.908,8.986,8.986,0,0,0-4.824,1.307c-.769-.067-1.574-.1-2.4-.1a26.812,26.812,0,0,0-3.819.265c-1.518-1.166-4.556-1.984-8.106-2.063a9.548,9.548,0,0,0-6.133-1.814c-3.221,0-5.931,1.089-6.747,2.569a4.968,4.968,0,0,0,2.849,1.975c.98,1.675,4.846,2.927,9.465,2.927a22.858,22.858,0,0,0,4.386-.406,19.571,19.571,0,0,0,8.1,1.46c.69,0,1.363-.024,2.014-.072a8.731,8.731,0,0,0,5.211,1.577,9.984,9.984,0,0,0,2.217-.245,12.535,12.535,0,0,0,6.963,1.9,15.019,15.019,0,0,0,2.563-.217h0a12.218,12.218,0,0,0,11.051.2,7.372,7.372,0,0,0,10.18-2.024v0a7.3,7.3,0,0,0,1.2-3.209A7.378,7.378,0,0,0,2573.073,1179.249Z" transform="translate(-2512.453 -1147.846)" fill="#fff" opacity="0.15"/><path d="M2596.042,1198.274l-2.74,5.324,5.943.583-4.773,4.077" transform="translate(-2543.791 -1155.301)" fill="none" stroke="#1a171b" stroke-miterlimit="10" stroke-width="3.854"/><path d="M2606.37,1203.468l-1.438,1.817,3.128,1.353.138,3.639" transform="translate(-2548.313 -1157.32)" fill="none" stroke="#1a171b" stroke-miterlimit="10" stroke-width="3.81"/><path d="M2574.915,1201.629l-3.628,1.818-1.147,2.712-3.427,1.073" transform="translate(-2533.453 -1156.605)" fill="none" stroke="#1a171b" stroke-miterlimit="10" stroke-width="2.748"/><path d="M2580.922,1201.629l-1.614,3.364v2.24l-1.3,1.456" transform="translate(-2537.845 -1156.605)" fill="none" stroke="#1a171b" stroke-miterlimit="10" stroke-width="3.381"/><path d="M2578.813,1186.844a7.324,7.324,0,0,1-1.26,4.122v0a7.371,7.371,0,0,1-10.18,2.025,12.217,12.217,0,0,1-11.051-.2h0a15.082,15.082,0,0,1-2.563.217,12.536,12.536,0,0,1-6.963-1.9,9.985,9.985,0,0,1-2.217.245,8.73,8.73,0,0,1-5.211-1.577c-.65.047-1.323.072-2.014.072a19.583,19.583,0,0,1-8.1-1.459,22.87,22.87,0,0,1-4.386.406c-4.619,0-8.486-1.251-9.465-2.926-1.87-.626-3.1-1.693-3.1-2.9,0-1.933,3.132-3.5,7-3.5a9.548,9.548,0,0,1,6.133,1.814c3.55.079,6.588.9,8.106,2.063a26.81,26.81,0,0,1,3.819-.265c.828,0,1.633.036,2.4.1a8.991,8.991,0,0,1,4.824-1.307,9.336,9.336,0,0,1,4.115.908,13.915,13.915,0,0,1,5.066-.908,15.132,15.132,0,0,1,2.168.155,11.53,11.53,0,0,1,6.108-1.659,12.078,12.078,0,0,1,4.595.881,7.374,7.374,0,0,1,12.186,5.59Z" transform="translate(-2512.293 -1147.988)" fill="none" stroke="#1a171b" stroke-miterlimit="10" stroke-width="4.394"/><path d="M2573.626,1167.051s.353-10.305-3.724-26.136c-.718-2.786,37.435-6.313,29.977,1.45-9.882,10.286-16.018,26.356-16.018,26.356" transform="translate(-2534.689 -1131.727)" fill="#acdae0" stroke="#1a171b" stroke-miterlimit="10" stroke-width="4.354"/><g transform="translate(58.057 17.336)"><path d="M2641.634,1168.879c4.979,5.912-5.048,12.684-19.053,10.79-9.349-1.263-11.711,5.97-15.11-10.79-1.537-7.576,6.7-13.3,17.082-12.473C2636.585,1157.362,2637.589,1164.077,2641.634,1168.879Z" transform="translate(-2607.285 -1156.327)" fill="#96bd0d" stroke="#1a171b" stroke-miterlimit="10" stroke-width="3.057"/><path d="M2641.634,1168.879c4.979,5.912-5.048,12.684-19.053,10.79-9.349-1.263-11.711,5.97-15.11-10.79-1.537-7.576,6.7-13.3,17.082-12.473C2636.585,1157.362,2637.589,1164.077,2641.634,1168.879Z" transform="translate(-2607.285 -1156.327)" fill="#96bd0d" stroke="#1a171b" stroke-miterlimit="10" stroke-width="3.057"/><path d="M2625.979,1156.406c-5.345-.424-10.121.887-13.288,3.292a8.523,8.523,0,0,0-1.551,6.939c3.4,16.76,5.761,9.527,15.11,10.79,7.469,1.01,13.806-.446,17.34-2.92a4.459,4.459,0,0,0-.529-5.628C2639.016,1164.077,2638.012,1157.362,2625.979,1156.406Z" transform="translate(-2608.712 -1156.327)" fill="#fff" opacity="0.15"/><path d="M2641.634,1168.879c4.979,5.912-5.048,12.684-19.053,10.79-9.349-1.263-11.711,5.97-15.11-10.79-1.537-7.576,6.7-13.3,17.082-12.473C2636.585,1157.362,2637.589,1164.077,2641.634,1168.879Z" transform="translate(-2607.285 -1156.327)" fill="none" stroke="#1a171b" stroke-miterlimit="10" stroke-width="3.057"/></g><path d="M2653.582,1184.339a15.189,15.189,0,0,1-4.8.584c-1.791-.263.076,2.06,2.04,2.329S2653.582,1184.339,2653.582,1184.339Z" transform="translate(-2565.084 -1149.882)" fill="#1a171b"/><path d="M2656.012,1162.391c2.106,3.24,1.437,7.413-1.5,9.32s-7.019.825-9.125-2.416-1.437-7.413,1.5-9.32S2653.905,1159.15,2656.012,1162.391Z" transform="translate(-2563.567 -1140.043)" fill="#fff" stroke="#1a171b" stroke-miterlimit="10" stroke-width="4.002"/><g transform="translate(70.125 19.915)"><path d="M2640.683,1165.161c1.853,3.885.482,8.4-3.061,10.092s-7.915-.092-9.768-3.978-.481-8.4,3.062-10.091S2638.832,1161.276,2640.683,1165.161Z" transform="translate(-2627.03 -1160.547)" fill="#fff" stroke="#1a171b" stroke-miterlimit="10" stroke-width="4.182"/><path d="M2645.459,1173.987a2,2,0,1,1-1.386-2.734A2.186,2.186,0,0,1,2645.459,1173.987Z" transform="translate(-2632.678 -1164.693)" fill="#1a171b"/></g><path d="M2658.426,1168.836a2.042,2.042,0,1,1-2.327,1.379A1.919,1.919,0,0,1,2658.426,1168.836Z" transform="translate(-2568.166 -1143.824)" fill="#1a171b"/><path d="M2642.837,1152.839c6.6-11.768-3.31-6.739,7.35-6.875" transform="translate(-2563.052 -1134.59)" fill="none" stroke="#1a171b" stroke-miterlimit="10" stroke-width="5.574"/><path d="M2640.674,1150.487c2.615-13.237-5.1-7.1,4.983-10.544" transform="translate(-2562.059 -1132.62)" fill="none" stroke="#1a171b" stroke-miterlimit="10" stroke-width="6.09"/><path d="M2575.808,1145.01" transform="translate(-2536.989 -1134.59)" fill="none" stroke="#1a171b" stroke-miterlimit="10" stroke-width="1"/><path d="M2595.933,1147.355s-9.435-4.793-18.06.676" transform="translate(-2537.792 -1134.746)" fill="none" stroke="#fff" stroke-miterlimit="10" stroke-width="19.936" opacity="0.3"/><path d="M2645.922,1174.36a.754.754,0,1,1-.754-.757A.756.756,0,0,1,2645.922,1174.36Z" transform="translate(-2563.665 -1145.708)" fill="#fff"/><path d="M2637.7,1203.346a.877.877,0,1,1-.869-.757A.819.819,0,0,1,2637.7,1203.346Z" transform="translate(-2560.38 -1156.978)" fill="#fff"/><path d="M2660.038,1171.715a.52.52,0,1,1-.518-.569A.545.545,0,0,1,2660.038,1171.715Z" transform="translate(-2569.337 -1144.752)" fill="#fff"/><path d="M2628.086,1160.3s3.2-2.993,6.935-2.058" transform="translate(-2557.316 -1139.665)" fill="none" stroke="#1a171b" stroke-miterlimit="10" stroke-width="3.598"/><path d="M2649.9,1157.285s1.556-1.9,6.128-.145" transform="translate(-2565.796 -1139.018)" fill="none" stroke="#1a171b" stroke-miterlimit="10" stroke-width="4.168"/></g></g></svg>