<svg xmlns="http://www.w3.org/2000/svg" width="100.372" height="99.04" viewBox="0 0 100.372 99.04"><g transform="translate(0 0)"><path d="M2610.622,558.431c-1.571-8.013-1.25-16.7-5.428-23.716-4.219-7.083-12.1-10.933-18.682-15.9-2.36-1.783-4.633-3.774-7.382-4.866-2.957-1.175-6.224-1.214-9.4-1.238-11.544-.087-23.781.011-33.608,6.066-6.585,4.058-11.386,10.393-16.019,16.587-2.445,3.268-4.925,6.607-6.241,10.47-2.847,8.357.186,17.416,1.041,26.2.465,4.783.306,9.77,2.254,14.163,1.756,3.961,5.04,7,8.237,9.928l13.5,12.352,1.213.137c6.322,3.624,14.072,3.294,21.346,2.859,3.656-.218,7.428-.467,10.7-2.108,3.371-1.689,5.876-4.685,8.906-6.93,5.944-4.405,13.682-5.773,19.757-10a31.389,31.389,0,0,0,6.837-6.688,24.108,24.108,0,0,0,5.235-11.384C2613.577,569.016,2611.66,563.725,2610.622,558.431Z" transform="translate(-2512.663 -512.694)" fill="#fff"/><g transform="translate(0.488 8.296)"><path d="M2516.1,571.587c-1.694,4.765,1.068,9.855,3.728,14.156a31.856,31.856,0,0,0,5.918,7.688c1.464,1.259,3.153,2.248,4.541,3.589,1.433,1.384,2.5,3.1,3.886,4.535,3.554,3.673,8.786,5.1,13.784,6.167,4.177.894,8.383,1.648,12.587,2.4a42.129,42.129,0,0,0,9.211.958c7.135-.311,13.6-4.2,19.3-8.51a59.041,59.041,0,0,0,12.6-12.307,30.208,30.208,0,0,0,6.016-16.354c.115-3.457-.512-6.946.039-10.361.392-2.426,1.373-4.764,1.42-7.221a15.583,15.583,0,0,0-.815-4.77,41.441,41.441,0,0,0-21.981-25.292l-16.716,8.534c-2.437,1.244-5.115,2.526-7.8,1.987-1.883-.378-3.486-1.613-5.326-2.162-4.037-1.206-9.064.865-12.248-1.895-1.074-.93-1.741-2.3-2.938-3.066-1.9-1.214-4.4-.509-6.461.411a38.282,38.282,0,0,0-15.942,13.366c-5.437,8.013-7.525,18.965-2.87,27.456" transform="translate(-2513.462 -526.267)" fill="#9cd649"/></g></g><g transform="translate(6.844 22.457)"><path d="M2641.262,640a7.551,7.551,0,0,1-1.63-.562c-.35-.219.764.037,1.384.188-.35-.257-.761-.641-.514-.634a.978.978,0,0,1,.449.226,2.8,2.8,0,0,1-.747-1.384c.017-.661,1.367,1.83,1.367,1.83s-.164-.908.014-.966.2.966.2.966.175-1.518.84-1.61c.513-.068-.162,1-.484,1.48.3-.14.823-.216.754-.1a1.041,1.041,0,0,1-.387.226c.2-.024.36-.014.333.082-.055.175-.538.257-.716.281.292.021.949.079.812.141a.813.813,0,0,1-.288.038l.463.133-3.118-.35Z" transform="translate(-2568.85 -583.766)" fill="#d2e28b"/><path d="M2634.772,637.335a11.518,11.518,0,0,1-2.525-.867c-.545-.339,1.182.055,2.145.292-.542-.4-1.179-.994-.8-.98a1.481,1.481,0,0,1,.7.346,4.356,4.356,0,0,1-1.158-2.145c.027-1.025,2.121,2.836,2.121,2.836s-.257-1.411.02-1.5.309,1.5.309,1.5.271-2.354,1.3-2.494c.8-.109-.246,1.552-.747,2.292.473-.219,1.271-.336,1.165-.154a1.554,1.554,0,0,1-.6.346c.3-.031.559-.02.51.13-.082.274-.829.4-1.1.435.446.034,1.466.127,1.254.219a1.289,1.289,0,0,1-.446.055l.716.209-4.831-.538Z" transform="translate(-2565.964 -582.243)" fill="#d2e28b"/><path d="M2548.1,637.079a11.626,11.626,0,0,0,2.614-.551c.583-.271-1.179-.093-2.166.024.589-.329,1.292-.84.911-.874a1.524,1.524,0,0,0-.729.257,4.351,4.351,0,0,0,1.412-1.984c.1-1.021-2.453,2.556-2.453,2.556s.428-1.37.165-1.494-.49,1.453-.49,1.453.021-2.371-.98-2.638c-.781-.205.052,1.573.456,2.368-.442-.274-1.22-.49-1.137-.3a1.605,1.605,0,0,0,.551.422c-.295-.072-.551-.089-.524.065.048.281.774.5,1.042.565-.446-.02-1.47-.055-1.271.065a1.189,1.189,0,0,0,.435.109l-.736.117,4.861.062Z" transform="translate(-2532.156 -582.227)" fill="#d2e28b"/><ellipse cx="35.771" cy="5.163" rx="35.771" ry="5.163" transform="translate(5.084 53.047)" fill="#d2e28b"/><path d="M2574.245,636.232a182.953,182.953,0,0,1,26.028,1.62,1.642,1.642,0,0,1,.7,1.165c0,.277-1.4,0-1.4.528s3.145,1.1,0,2.511-8.678,3.135-21.885,3.854-21.858-1.233-26.573-2.528-1.617-3.837-2.6-4.365,3.368-1.268,3.368-1.268,1.638-.3,4.046-.792C2561.284,636.5,2567.547,636.232,2574.245,636.232Z" transform="translate(-2533.389 -583.185)" fill="#c7d682"/><path d="M2541.38,623.585a4.785,4.785,0,0,0,.151-3.022c-.483-1.549-1.319-3.443-1.319-3.443s-.168-.442.35,0a12.853,12.853,0,0,1,1.774,4.649A1.5,1.5,0,0,1,2541.38,623.585Z" transform="translate(-2530.208 -575.678)" fill="#744c39"/><path d="M2536.805,631.708a8.1,8.1,0,0,0,1.809-1.6c.277-.559-.994-3.768-1.2-4.43-.075-.25.243-.682.737-1.244l.034-.041c.028-.086.021-.364-.308-1.25-.483-1.3-1.977-4.273-1.977-4.273s.065-.161.322,0,2.118,4.622,2.625,4.793a11.9,11.9,0,0,0,2.21-2.8c.915-1.587,1.165-1.709,1.216-3.06s.113-1.6.463-1.573.308,1.247.1,2.494-2.265,5.32-2.47,5.883a3.983,3.983,0,0,0-.254,2.6c.356.839,2.4,4.556,2.4,4.556C2543.147,632.785,2536.466,632.87,2536.805,631.708Z" transform="translate(-2528.542 -575.407)" fill="#4a422c"/><path d="M2541.614,596.832c-.048-.072-.219-.219.078-1.018.319-.867,1.234-3.464,1.234-3.464s-.052-.13-.254,0c-.168.1-3.7,8.119-4,.329-.037-1.066-.089-1.264-.366-1.244s-.24.986-.079,1.974a24.526,24.526,0,0,0,1.144,3.423Z" transform="translate(-2529.4 -565.767)" fill="#4a422c"/><path d="M2534.05,610.508s.294.431.068.658-.655-.157-.655-.157.038.428-.312.493a.392.392,0,0,1-.459-.192s.182.466-.178.627-.733-.35-.733-.35-.1.668-.637.668-.555-.627-.555-.627-.137.521-.254.394a1.176,1.176,0,0,1-.192-.373s-.086.617-.521.531-.274-.552-.274-.552-.373.7-.565.456a.441.441,0,0,1-.106-.435.655.655,0,0,1-.637.353c-.414-.075-.254-.6-.254-.6s-.373.531-.73.312-.1-.864-.1-.864-.363.254-.4.11a.584.584,0,0,1,.044-.319s-.1.309-.5.065a.316.316,0,0,1-.069-.542s-.318.233-.408.089.121-.377.121-.377-1.028.507-1.052-.01.3-.565.322-.558c0,0-.709.045-.61-.254s.3-.3.3-.3-.383.144-.417-.2.219-.312.219-.312-.76.017-.637-.446.366-.469.366-.469-.253-.041-.171-.243a.353.353,0,0,1,.223-.237s-.3.144-.347-.5.388-.377.388-.377-.264.031-.134-.459.36-.216.36-.216-.206.01-.072-.49.428-.236.428-.236-1.041-.87-.757-1.312,1.645-.182,1.645-.182-.213-.1,0-.3a.319.319,0,0,1,.394-.068.6.6,0,0,1-.384-.5c-.041-.384.131-1.121.607-.919a1.078,1.078,0,0,1,.6.637s-.253-.507.069-.627a.38.38,0,0,1,.476.12s-.456-.914.188-1.34a.626.626,0,0,1,.963.216s-.182-.216-.01-.343.367.083.367.083-.493-.5-.134-.8.956.083.956.083-.4-1.227.774-1.3,1.113.832,1.113.832-.013-.774.449-.668a.91.91,0,0,1,.593.325s-.253-.815.3-.713a.948.948,0,0,1,.713.521s-.388-1.651.534-1.545,1,1.439,1,1.439.236-.98.9-.7a.717.717,0,0,1,.418.935.633.633,0,0,1,.908-.49.657.657,0,0,1,.428.949s.417-.623.626-.295a.664.664,0,0,1,.089.593s-.12-.414.593-.134.325.61.325.61.977-1.2,1.546-.593a1.207,1.207,0,0,1,.013,1.422.312.312,0,0,1,.5.013.566.566,0,0,1,.178.538.892.892,0,0,1,1.148-.3c.761.333-.192,1.107-.192,1.107a.426.426,0,0,1,.607.083c.236.346.041.524.041.524s.5-.483,1.021.223-.041.952-.041.952,1.5-.26,1.415.589-.373.716-.373.716.634.26.521.438a.777.777,0,0,1-.374.26s1.289.295,1,1.1-.812.109-.812.109.292.363.021.493a.347.347,0,0,1-.415-.028s.781.432.26.983a.948.948,0,0,1-1.1.26.241.241,0,0,1-.13.391.821.821,0,0,1-.521.065.285.285,0,0,1,.052.421c-.182.277-.651.1-.651.1a.767.767,0,0,1-.065.747c-.26.322-.99-.065-.99-.065s.274.439-.048.422a.706.706,0,0,1-.473-.178.452.452,0,0,1,.113.634c-.257.356-1.055-.165-1.055-.165s.343.521-.257.652a.608.608,0,0,1-.764-.309.4.4,0,0,1-.452.514c-.589-.014-.671-1.038-.671-1.038s-.158.466-.51.24a.557.557,0,0,1-.24-.606s.1.75-.558.671-.606-.959-.606-.959.174.479-.3.432a.485.485,0,0,1-.463-.493s.082.572-.271.75-.925-.479-.925-.479a.4.4,0,0,1,.1.4C2534.872,611.016,2534.05,610.508,2534.05,610.508Z" transform="translate(-2523.861 -567.846)" fill="#afbd77"/><path d="M2529.51,591.805s-.8.449-.959.017.3-.432.281-.455c0,0-.777.116-.747-.164a1.355,1.355,0,0,1,.168-.5s-.514.164-.565-.2.73-.446.73-.446-.678-.63-.165-1.045,1.274.082,1.274.082-.448-.332-.2-.431.7.15.7.15a.615.615,0,0,1,.034-.911c.5-.414.959.281.959.281s-.281-.446.1-.644a.854.854,0,0,1,.8.082s-.8-.945-.182-1.442,1.84.614,1.84.614-.25-.614.264-.7.942.514.942.514a.984.984,0,0,1,.729-1.076c.847-.233.946,1.076.946,1.076s.315-.548.713-.432a.476.476,0,0,1,.346.514.717.717,0,0,1,.846-.644c.8.065.713.977.713.977a.368.368,0,0,1,.579-.134c.4.264.315.565.315.565a.718.718,0,0,1,.926-.431c.681.23.233,1.059.233,1.059s.548-.446.963-.065a.317.317,0,0,1-.1.579.984.984,0,0,1,1.111.117c.48.462.1.713.1.713s.511-.4.6-.034-.4.579-.4.579.463.086.346.315-.86.1-.86.1.263.151.116.333-.713-.065-.713-.065a.489.489,0,0,1,0,.4c-.1.182-.98-.134-.98-.134s.25.431-.065.631-.7-.548-.7-.548.165.431-.281.431a.437.437,0,0,1-.48-.38s.1.411-.449.479-.631-.281-.631-.281.151.445-.1.579-.6-.414-.6-.414.117.431-.462.449-.4-.3-.4-.3.158.483-.425.609-.446-.5-.446-.5a.291.291,0,0,1-.246.37c-.336.086-.346-.295-.346-.295s.086.486-.294.51a.514.514,0,0,1-.5-.356s.12.257-.206.4-.517-.291-.517-.291a.387.387,0,0,1-.216.4c-.26.109-.285-.315-.285-.315a.56.56,0,0,1-.411.531c-.4.086-.5-.391-.5-.391s-.065.586-.4.455a.706.706,0,0,1-.411-.455s.055.24-.257.359-.37-.295-.37-.295a.38.38,0,0,1-.442.37.578.578,0,0,1-.51-.356s.11.237-.236.267-.335-.377-.335-.377-.075.189-.346.045S2529.51,591.805,2529.51,591.805Z" transform="translate(-2525.348 -563.464)" fill="#d2e28b"/><path d="M2639.222,623.585a4.785,4.785,0,0,0,.151-3.022c-.486-1.549-1.319-3.443-1.319-3.443s-.168-.442.346,0a12.8,12.8,0,0,1,1.778,4.649A1.5,1.5,0,0,1,2639.222,623.585Z" transform="translate(-2568.252 -575.678)" fill="#4a422c"/><path d="M2634.647,631.708a8.1,8.1,0,0,0,1.805-1.6c.281-.559-.994-3.768-1.2-4.43-.076-.25.24-.682.733-1.244l.034-.041c.031-.086.024-.364-.3-1.25-.483-1.3-1.977-4.273-1.977-4.273s.065-.161.322,0,2.117,4.622,2.625,4.793a11.9,11.9,0,0,0,2.21-2.8c.914-1.587,1.165-1.709,1.216-3.06s.113-1.6.462-1.573.305,1.247.1,2.494-2.268,5.32-2.47,5.883a3.984,3.984,0,0,0-.253,2.6c.356.839,2.392,4.556,2.392,4.556C2640.989,632.785,2634.3,632.87,2634.647,631.708Z" transform="translate(-2566.586 -575.407)" fill="#4a422c"/><path d="M2639.451,596.832c-.045-.072-.216-.219.079-1.018.322-.867,1.236-3.464,1.236-3.464s-.051-.13-.254,0c-.167.1-3.7,8.119-3.995.329-.041-1.066-.089-1.264-.367-1.244s-.243.986-.082,1.974a25.011,25.011,0,0,0,1.148,3.423Z" transform="translate(-2567.442 -565.767)" fill="#4a422c"/><path d="M2631.891,610.508s.295.431.069.658-.654-.157-.654-.157.037.428-.315.493a.389.389,0,0,1-.456-.192s.182.466-.182.627-.733-.35-.733-.35-.093.668-.637.668-.551-.627-.551-.627-.138.521-.254.394a1.179,1.179,0,0,1-.192-.373s-.085.617-.521.531-.278-.552-.278-.552-.37.7-.562.456a.44.44,0,0,1-.106-.435.656.656,0,0,1-.637.353c-.415-.075-.257-.6-.257-.6s-.374.531-.727.312-.1-.864-.1-.864-.367.254-.4.11a.588.588,0,0,1,.045-.319s-.1.309-.5.065a.316.316,0,0,1-.065-.542s-.322.233-.411.089.123-.377.123-.377-1.027.507-1.052-.01.3-.565.319-.558c0,0-.706.045-.606-.254s.3-.3.3-.3-.387.144-.418-.2.22-.312.22-.312-.76.017-.638-.446.367-.469.367-.469-.257-.041-.175-.243a.361.361,0,0,1,.226-.237s-.3.144-.349-.5.391-.377.391-.377-.268.031-.134-.459.356-.216.356-.216-.2.01-.068-.49.428-.236.428-.236-1.042-.87-.761-1.312,1.648-.182,1.648-.182-.212-.1,0-.3a.32.32,0,0,1,.394-.068.6.6,0,0,1-.384-.5c-.041-.384.13-1.121.606-.919a1.065,1.065,0,0,1,.593.637s-.25-.507.072-.627a.382.382,0,0,1,.476.12s-.455-.914.185-1.34a.624.624,0,0,1,.962.216s-.178-.216-.007-.343.367.083.367.083-.494-.5-.134-.8.956.083.956.083-.4-1.227.774-1.3,1.113.832,1.113.832-.014-.774.445-.668a.916.916,0,0,1,.6.325s-.253-.815.3-.713a.948.948,0,0,1,.712.521s-.387-1.651.534-1.545,1,1.439,1,1.439.236-.98.9-.7a.721.721,0,0,1,.418.935.631.631,0,0,1,.9-.49.656.656,0,0,1,.432.949s.418-.623.624-.295a.654.654,0,0,1,.088.593s-.116-.414.6-.134.325.61.325.61.977-1.2,1.542-.593a1.2,1.2,0,0,1,.013,1.422.316.316,0,0,1,.5.013.577.577,0,0,1,.178.538.891.891,0,0,1,1.147-.3c.757.333-.195,1.107-.195,1.107a.429.429,0,0,1,.609.083c.233.346.042.524.042.524s.5-.483,1.021.223-.041.952-.041.952,1.5-.26,1.415.589-.374.716-.374.716.634.26.521.438a.78.78,0,0,1-.377.26s1.288.295,1.007,1.1-.812.109-.812.109.288.363.021.493a.347.347,0,0,1-.415-.028s.781.432.26.983a.948.948,0,0,1-1.1.26.242.242,0,0,1-.13.391.819.819,0,0,1-.521.065.286.286,0,0,1,.048.421c-.178.277-.648.1-.648.1a.767.767,0,0,1-.065.747c-.26.322-.99-.065-.99-.065s.274.439-.051.422a.7.7,0,0,1-.469-.178.452.452,0,0,1,.113.634c-.26.356-1.055-.165-1.055-.165s.343.521-.26.652a.605.605,0,0,1-.76-.309.4.4,0,0,1-.452.514c-.593-.014-.671-1.038-.671-1.038s-.158.466-.511.24a.55.55,0,0,1-.24-.606s.1.75-.559.671-.606-.959-.606-.959.175.479-.305.432a.482.482,0,0,1-.462-.493s.079.572-.271.75-.928-.479-.928-.479a.4.4,0,0,1,.1.4C2632.71,611.016,2631.891,610.508,2631.891,610.508Z" transform="translate(-2561.904 -567.846)" fill="#afbd77"/><path d="M2627.352,591.805s-.8.449-.962.017.3-.432.284-.455c0,0-.781.116-.747-.164a1.394,1.394,0,0,1,.165-.5s-.514.164-.562-.2.73-.446.73-.446-.682-.63-.168-1.045,1.278.082,1.278.082-.449-.332-.2-.431.7.15.7.15a.614.614,0,0,1,.031-.911c.5-.414.963.281.963.281s-.281-.446.1-.644a.852.852,0,0,1,.794.082s-.794-.945-.181-1.442,1.836.614,1.836.614-.247-.614.267-.7.942.514.942.514a.979.979,0,0,1,.73-1.076c.843-.233.942,1.076.942,1.076s.315-.548.713-.432a.481.481,0,0,1,.35.514.713.713,0,0,1,.843-.644c.8.065.713.977.713.977a.372.372,0,0,1,.583-.134c.4.264.312.565.312.565a.722.722,0,0,1,.928-.431c.678.23.234,1.059.234,1.059s.544-.446.959-.065a.316.316,0,0,1-.1.579.983.983,0,0,1,1.11.117c.48.462.1.713.1.713s.514-.4.6-.034-.4.579-.4.579.466.086.349.315-.863.1-.863.1.267.151.116.333-.713-.065-.713-.065a.489.489,0,0,1,0,.4c-.1.182-.976-.134-.976-.134s.25.431-.065.631-.7-.548-.7-.548.165.431-.284.431a.441.441,0,0,1-.48-.38s.1.411-.446.479-.63-.281-.63-.281.151.445-.1.579-.6-.414-.6-.414.117.431-.463.449-.4-.3-.4-.3.158.483-.425.609-.446-.5-.446-.5a.294.294,0,0,1-.25.37c-.333.086-.346-.295-.346-.295s.089.486-.291.51a.515.515,0,0,1-.5-.356s.121.257-.205.4-.521-.291-.521-.291a.381.381,0,0,1-.216.4c-.26.109-.281-.315-.281-.315a.561.561,0,0,1-.411.531c-.4.086-.5-.391-.5-.391s-.065.586-.4.455a.7.7,0,0,1-.411-.455s.055.24-.26.359-.367-.295-.367-.295a.379.379,0,0,1-.442.37.57.57,0,0,1-.51-.356s.109.237-.237.267-.336-.377-.336-.377-.076.189-.346.045S2627.352,591.805,2627.352,591.805Z" transform="translate(-2563.391 -563.464)" fill="#d2e28b"/><path d="M2550.885,604.453a12.483,12.483,0,0,0,4.1,3.025,31.4,31.4,0,0,1-1.679-6.825,27.819,27.819,0,0,1-.158-5.32,20.3,20.3,0,0,0-2.392,4.347C2550.11,601.407,2549.915,603.172,2550.885,604.453Z" transform="translate(-2534.108 -567.283)" fill="#8c7e57"/><path d="M2565.211,635.826a.877.877,0,0,0-.37.59,1.513,1.513,0,0,0-.01.709.357.357,0,0,0,.028.075.4.4,0,0,0,.339.24,1.676,1.676,0,0,0,.25-.528,2.554,2.554,0,0,0,.092-.685l-.027-.007a.855.855,0,0,0,.027-.082c0-.1-.01-.206-.024-.319-.038-.041-.11-.055-.23-.02A.508.508,0,0,0,2565.211,635.826Z" transform="translate(-2539.776 -583.009)" fill="#a39469"/><path d="M2564.39,636.065a.924.924,0,0,1,.4-.63.665.665,0,0,1,.083-.034.421.421,0,0,1,.24-.014,4.27,4.27,0,0,0-.083-.459.215.215,0,0,0-.106-.013.626.626,0,0,0-.3.164,2.115,2.115,0,0,0-.339.37,1.816,1.816,0,0,0-.449,1.47.728.728,0,0,0,.661.5l.01-.01a1.481,1.481,0,0,0,.254-.25.461.461,0,0,1-.35-.267.522.522,0,0,1-.034-.089A1.638,1.638,0,0,1,2564.39,636.065Z" transform="translate(-2539.387 -582.672)" fill="#a39469"/><path d="M2563.131,636.722a1.883,1.883,0,0,1,.455-1.532,2.271,2.271,0,0,1,.35-.38.671.671,0,0,1,.335-.178.216.216,0,0,1,.093,0,2.962,2.962,0,0,0-.086-.288,3.233,3.233,0,0,0-1.442.939,3.067,3.067,0,0,0-.586.812.943.943,0,0,0-.089.723.672.672,0,0,0,.3.333,1.928,1.928,0,0,0,1.178.2l.137-.1A.8.8,0,0,1,2563.131,636.722Z" transform="translate(-2538.738 -582.453)" fill="#a39469"/><path d="M2610.733,590.373a34.205,34.205,0,0,0,1.97-19.936,24.342,24.342,0,0,0-9.374-14.88c-.356-.233-.723-.463-1.09-.685a35.107,35.107,0,0,0-22.327-4.8c-6.468.781-11.392,3.248-12.882,5.465.14.6.294,1.254.51,1.905a16.29,16.29,0,0,1,4.81-1.57,18.535,18.535,0,0,1,2.995-.24c2.261-1.86,5.009-2.018,6.585.75a10.911,10.911,0,0,1,2.7,1.069,11.082,11.082,0,0,1,1.976,1.408c1.223-2.21,3.868-6.959,4.067-7.058,2.275-1.137,8.545,4.927,9.717,7.041,1.411,2.549,2.138,5.19,2.021,5.728s-1.268,1.32-2.158,1.85a8.854,8.854,0,0,1,2.686-.6c.205.123,1.206,1.874,1.733,4.944a25.279,25.279,0,0,1,.254,6.359c-.312,3.906-2.354,12.04-5.061,15.674-.318.432-.637.757-.836.757-.312,0-1.641-1.5-2.305-2.268l1.329,4.224-.045.013c-.044.168-.435.627-2.261,1.881a28.171,28.171,0,0,1-2.867,1.727,9.246,9.246,0,0,1-2.33.963c-.25,0-.332-.164-.613-.709-.226-.442-.593-1.161-1.3-2.3-1.4-2.261-5.68-5.588-6.208-5.992a3.542,3.542,0,0,1-.76,0,1.64,1.64,0,0,1-.98-.364,35.514,35.514,0,0,1-3.292,10.988,2.669,2.669,0,0,1,.966-.113,5.321,5.321,0,0,1,1.473.229c.069-1.727.092-3.683.133-4.063a27.005,27.005,0,0,1-.092,6.619c-.017.076-.027.144-.041.209a4.939,4.939,0,0,0,.685,3.543,4.692,4.692,0,0,0,.689.8c.2-.332.767-1.227,1.675-2.439a3.173,3.173,0,0,1,.75-.754,1.373,1.373,0,0,1,.836-.267,1.15,1.15,0,0,1,.631.24,1.418,1.418,0,0,1,.322.336c.188.277.342.545.431.709a3.5,3.5,0,0,1,.7-.8,1.572,1.572,0,0,1,1.381-.414,2.381,2.381,0,0,1,1.032,1.124c.082.14.157.287.233.438a3.511,3.511,0,0,1,1.134-1.466,1.667,1.667,0,0,1,1.432.037,4.28,4.28,0,0,1,1.487,1.213,11.147,11.147,0,0,1,1.668,2.874,6.406,6.406,0,0,0,2.8-1.648,7.149,7.149,0,0,0,1.655-4.944,23.959,23.959,0,0,0-1.685-5.944,11.32,11.32,0,0,1,1.432,3,11.622,11.622,0,0,0,3.409-3.077,40.754,40.754,0,0,0,3.1-4.2,16.361,16.361,0,0,1-2.923,4.355,11.708,11.708,0,0,1-3.522,3.149,10.508,10.508,0,0,1,.422,2.717,8.988,8.988,0,0,1-.034,1,1.914,1.914,0,0,1,.9-.4.973.973,0,0,1,.733.4,2.419,2.419,0,0,1,.449,1.024,6.5,6.5,0,0,1,.11,1.874c.133-.024.264-.048.394-.075a3.926,3.926,0,0,0,3.663-4.492c.041-.394.089-.8.154-1.2a13.723,13.723,0,0,1,1.483-3.82C2608.149,596.051,2609.177,593.881,2610.733,590.373Z" transform="translate(-2540.646 -549.589)" fill="#a39469"/><path d="M2617.328,590.374a34.205,34.205,0,0,0,1.97-19.936,24.344,24.344,0,0,0-9.374-14.88c-.356-.233-.723-.463-1.09-.685a35.061,35.061,0,0,0-19.1-5.033,5.434,5.434,0,0,0-2.4,5.136,4.693,4.693,0,0,1,1.186,1.412,10.912,10.912,0,0,1,2.7,1.069,11.1,11.1,0,0,1,1.977,1.408c1.223-2.21,3.868-6.959,4.067-7.058,2.275-1.137,8.545,4.927,9.716,7.041,1.411,2.549,2.138,5.19,2.021,5.728s-1.268,1.32-2.158,1.85a8.853,8.853,0,0,1,2.686-.6c.205.123,1.206,1.874,1.733,4.944a25.279,25.279,0,0,1,.254,6.359c-.312,3.906-2.354,12.04-5.061,15.674-.318.432-.637.757-.836.757-.312,0-1.641-1.5-2.305-2.268l1.329,4.224-.045.013c-.045.168-.435.627-2.261,1.881a28.145,28.145,0,0,1-2.868,1.727,9.241,9.241,0,0,1-2.33.963c-.25,0-.332-.164-.613-.709-.226-.442-.593-1.161-1.3-2.3-1.4-2.261-5.68-5.588-6.208-5.992a3.548,3.548,0,0,1-.76,0,1.642,1.642,0,0,1-.98-.364,35.515,35.515,0,0,1-3.292,10.988,2.668,2.668,0,0,1,.966-.113,5.321,5.321,0,0,1,1.474.229c.068-1.727.092-3.683.133-4.063a27,27,0,0,1-.092,6.619c-.017.076-.028.144-.041.209a4.938,4.938,0,0,0,.685,3.543,4.706,4.706,0,0,0,.689.8c.2-.332.767-1.227,1.675-2.439a3.164,3.164,0,0,1,.75-.754,1.372,1.372,0,0,1,.836-.267,1.15,1.15,0,0,1,.631.24,1.409,1.409,0,0,1,.322.336c.188.277.342.545.432.709a3.5,3.5,0,0,1,.7-.8,1.572,1.572,0,0,1,1.381-.414,2.382,2.382,0,0,1,1.032,1.124c.082.14.157.287.233.438a3.511,3.511,0,0,1,1.134-1.466,1.668,1.668,0,0,1,1.432.037,4.277,4.277,0,0,1,1.487,1.213,11.138,11.138,0,0,1,1.668,2.874,6.406,6.406,0,0,0,2.8-1.648,7.151,7.151,0,0,0,1.655-4.944,23.971,23.971,0,0,0-1.686-5.944,11.319,11.319,0,0,1,1.432,3,11.619,11.619,0,0,0,3.409-3.077,40.752,40.752,0,0,0,3.1-4.2,16.361,16.361,0,0,1-2.923,4.355,11.708,11.708,0,0,1-3.522,3.149,10.487,10.487,0,0,1,.422,2.717,8.93,8.93,0,0,1-.034,1,1.914,1.914,0,0,1,.9-.4.973.973,0,0,1,.733.4,2.419,2.419,0,0,1,.448,1.024,6.515,6.515,0,0,1,.11,1.874c.133-.024.263-.048.394-.075a3.926,3.926,0,0,0,3.663-4.492c.041-.394.089-.8.154-1.2a13.73,13.73,0,0,1,1.483-3.82C2614.745,596.051,2615.773,593.882,2617.328,590.374Z" transform="translate(-2547.242 -549.589)" fill="#7d6f4a"/><path d="M2594.922,622.66a36.971,36.971,0,0,0-5.9-5.533,3.54,3.54,0,0,1-.76,0,1.642,1.642,0,0,1-.98-.364,35.515,35.515,0,0,1-3.292,10.988,2.668,2.668,0,0,1,.966-.113,5.321,5.321,0,0,1,1.474.229c.068-1.727.092-3.683.133-4.063,0,.007.147,1.343.168,2.977a9.534,9.534,0,0,1,4.05-3.44C2593.027,622.265,2594.367,622.471,2594.922,622.66Z" transform="translate(-2547.242 -575.615)" fill="#695d3d"/><path d="M2584.87,572.771a7.789,7.789,0,0,1,2.127,5.341,15.011,15.011,0,0,1-1.912,7.075,15.905,15.905,0,0,1,1.408,2.977c.73,2.076.983,4.262.042,5.537a1.705,1.705,0,0,1-.117.144,2.456,2.456,0,0,1-.788.61,5.145,5.145,0,0,1-3.806-.144,11.622,11.622,0,0,1-3.481-1.977c-.062-.051-.12-.106-.175-.158a3.274,3.274,0,0,1-.6.185c.346.267,4.622,3.574,6.078,5.92.712,1.144,1.083,1.874,1.312,2.319s.3.582.4.582a9.458,9.458,0,0,0,2.22-.939,26.966,26.966,0,0,0,2.844-1.713c2.2-1.511,2.312-1.545,2.316-1.545l-.079-.007-.024-.075-1.5-4.782-.182-.569.384.459a19.7,19.7,0,0,0,2.5,2.628c.113,0,.366-.285.644-.658,2.679-3.6,4.708-11.683,5.016-15.551a25.179,25.179,0,0,0-.25-6.3c-.518-2.994-1.439-4.669-1.624-4.782a21.952,21.952,0,0,0-3.642.993l-1.525.514,1.433-.733c.01,0,2.926-1.491,3.1-2.282.109-.5-.61-3.06-2-5.56-1.117-2.021-7.3-8-9.4-6.945-.473.36-3.563,6.7-4.783,7.952,0,0,.192-.346.494-.891a10.465,10.465,0,0,0-1.98-1.419,10.6,10.6,0,0,0-2.686-1.055l-.052-.01-.027-.048c-1.453-2.672-3.917-2.614-6.037-.911.634.01,1.277.051,1.936.123-1.271.034-3.416.137-4.029.192-.417.041-.826.092-1.23.161a15.28,15.28,0,0,0-9.151,4.988,18.122,18.122,0,0,0-4.228,10.155,25.794,25.794,0,0,0,.185,6.674c.185-.274.36-.527.524-.757a28.574,28.574,0,0,1,1.117-5.831.532.532,0,0,1-.237.058c-.377,0-.682-.425-.682-.949a1.4,1.4,0,0,1,.027-.274c.048.161.154.274.274.274.167,0,.3-.212.3-.476a.57.57,0,0,0-.157-.418.494.494,0,0,1,.233-.058.734.734,0,0,1,.634.606c.045-.123.086-.247.13-.367a2.032,2.032,0,0,0-.292-.87.631.631,0,0,0-.27-.274.554.554,0,0,0-.356-.045.745.745,0,0,0-.367.209,1.406,1.406,0,0,0-.36.736,2.817,2.817,0,0,0,.206,1.813c.031.01.062.017.086.027.188.068.583.439.589.661a1.227,1.227,0,0,0-.637-.527,1.753,1.753,0,0,0-.832-.058.864.864,0,0,1,.6-.138,3.066,3.066,0,0,1-.172-1.808,1.594,1.594,0,0,1,.408-.819.905.905,0,0,1,.442-.25.723.723,0,0,1,.46.054.783.783,0,0,1,.339.343,2.057,2.057,0,0,1,.226.743c.281-.76.592-1.528.942-2.3-.246,1.011-.932,2.95-1.11,3.491a27.668,27.668,0,0,0-1.189,12.2,36.4,36.4,0,0,0,5.543,14.612l.054.083a3.748,3.748,0,0,1,1.028.414,14.049,14.049,0,0,1,4.543-.723,12.356,12.356,0,0,1,4.372.867,16.944,16.944,0,0,0-4.382-.631,13.592,13.592,0,0,0-4.255.661,4.726,4.726,0,0,1,.685.572,5.84,5.84,0,0,1,1.939.292,5.75,5.75,0,0,1,2.49,1.675,7.6,7.6,0,0,0-2.563-1.453,5.456,5.456,0,0,0-1.23-.254,6.1,6.1,0,0,1,1.977,1.36,5.761,5.761,0,0,1,1.412,2.648,7.539,7.539,0,0,0-1.583-2.484,5.941,5.941,0,0,0-2.1-1.391,10.244,10.244,0,0,1,1.391,4.539c-.531-1.788-.459-3.292-1.846-4.707,0,0,0,0-.007,0l0,0s0,0,0,0a3.835,3.835,0,0,0-2.32-1.209,3.62,3.62,0,0,0-2.464.713,2.924,2.924,0,0,0-.925,1.281,6.848,6.848,0,0,0-.469,2.093,5.472,5.472,0,0,0,1.233,4.056,6.1,6.1,0,0,0,3.933,1.994,7.729,7.729,0,0,0,3.07-.271,14.875,14.875,0,0,0,4.008-1.895c6.222-4.019,7.506-17.73,7.74-25.106.017-.538.126-3.093.257-4.8a87.374,87.374,0,0,1-.877,14.564h.01s.058.346.945.445a3.27,3.27,0,0,0,1.477-.185c-.079-.086-.154-.164-.219-.243-1.044-.809.2-4.625.384-5.105a6.023,6.023,0,0,1,2.4-3,3.663,3.663,0,0,1,3.447-.137c-.075-.021-.151-.038-.23-.055a6.371,6.371,0,0,1,.676.774,6.962,6.962,0,0,0-1.487-3.258,15.354,15.354,0,0,0-3.529-2.851,9.567,9.567,0,0,1,3.714,2.7,7.167,7.167,0,0,1,1.6,3.813c.068.1.137.206.205.312a14.7,14.7,0,0,0,1.823-6.839A9.781,9.781,0,0,0,2584.87,572.771Zm-4.988-3.865a1.826,1.826,0,0,1,.582.542,2.185,2.185,0,0,1,.35,1.316,3.165,3.165,0,0,1-.452,1.466.968.968,0,0,1,.521.216,2.1,2.1,0,0,0-1.391.038,2.965,2.965,0,0,0-1.12.853,1.7,1.7,0,0,1,1.031-1.073,1.945,1.945,0,0,1,.789-.058,3.262,3.262,0,0,0,.466-1.45,1.985,1.985,0,0,0-.325-1.219,1.656,1.656,0,0,0-.528-.5,2.073,2.073,0,0,0-1.086-.281c-1.285.024-1.654.846-2,1.9a2.4,2.4,0,0,1,.085-.6,1.923,1.923,0,0,1,1.909-1.456A2.207,2.207,0,0,1,2579.882,568.906Zm-15.154,2.182c.665.065,1.278.151,1.775.25a3.819,3.819,0,0,1,1.117.356c.2.117.274.251.219.4-.048-.51-1.709-.71-3.138-.85-.7-.068-1.428-.038-2.168-.059s-3.542-.133-4.485.518C2558.284,570.918,2561.964,570.822,2564.729,571.089Zm13.242-.291a.723.723,0,0,0,.723.722.74.74,0,0,0,.442-.15c0,.048.007.1.007.15a1.172,1.172,0,1,1-1.172-1.175,1.014,1.014,0,0,1,.151.01A.742.742,0,0,0,2577.97,570.8Zm-21.745,7.256a22.046,22.046,0,0,1,6.585-.846,27.02,27.02,0,0,1,6.664,1.028,36.2,36.2,0,0,0-6.667-.788A30.914,30.914,0,0,0,2556.225,578.054Zm28.546-5.383a1.27,1.27,0,0,1,.1.1A1.27,1.27,0,0,0,2584.771,572.672ZM2564.5,588.864a27.032,27.032,0,0,1,6.722.49,36.721,36.721,0,0,0-6.708-.254,31.2,31.2,0,0,0-6.51,1.137A21.918,21.918,0,0,1,2564.5,588.864Zm-3.755,7.492c.237-.8,3.919-1.1,6.684-.98a16.91,16.91,0,0,1,1.771.154,3.654,3.654,0,0,1,1.12.292c.192.106.271.236.216.394-.045-.51-1.71-.617-3.138-.678-.7-.031-1.429.038-2.169.059S2561.69,595.657,2560.747,596.356Zm-4.135-11.659a31.005,31.005,0,0,1,7.788-1.374,38.713,38.713,0,0,1,8.058.49,52.519,52.519,0,0,0-8.041-.254A44.231,44.231,0,0,0,2556.612,584.7Zm.531-17.233c.3.271.178.915-.586,1.086a3.428,3.428,0,0,1-1.607-.123,2.761,2.761,0,0,1,.6-.785A1.436,1.436,0,0,1,2557.143,567.464Zm7.866-1.97a8.445,8.445,0,0,1,3.491,1.22,10.9,10.9,0,0,0-3.508-.983,9.126,9.126,0,0,0-3.536.421A6.714,6.714,0,0,1,2565.01,565.494Zm13.985.99a4.444,4.444,0,0,1-2.09.161c-.99-.223-1.152-1.062-.761-1.412a1.877,1.877,0,0,1,2.07.23A3.615,3.615,0,0,1,2578.995,566.484Zm-17.569,37.132a3.131,3.131,0,0,1-.069,1.257,1.835,1.835,0,0,1-.63.959,1.915,1.915,0,0,1-.949.381,2.258,2.258,0,0,1-.887-.068,2.316,2.316,0,0,0,1.148-.164,1.93,1.93,0,0,1-.942-.237.835.835,0,0,1-.364-.415,1.082,1.082,0,0,1,.093-.843,3.251,3.251,0,0,1,.613-.856,3.493,3.493,0,0,1,1.5-.98,3.369,3.369,0,0,0-1.99-1.843A3.41,3.41,0,0,1,2561.426,603.616Z" transform="translate(-2535.457 -550.905)" fill="#a39469"/><path d="M2586.5,572.771a7.79,7.79,0,0,1,2.127,5.341,15.011,15.011,0,0,1-1.912,7.075,15.905,15.905,0,0,1,1.408,2.977c.729,2.076.983,4.262.042,5.537a1.755,1.755,0,0,1-.117.144,2.456,2.456,0,0,1-.788.61,5.145,5.145,0,0,1-3.806-.144,11.626,11.626,0,0,1-3.481-1.977c-.062-.051-.12-.106-.175-.158a3.263,3.263,0,0,1-.6.185c.346.267,4.622,3.574,6.078,5.92.712,1.144,1.083,1.874,1.312,2.319s.3.582.4.582a9.449,9.449,0,0,0,2.22-.939,26.942,26.942,0,0,0,2.844-1.713c2.2-1.511,2.312-1.545,2.316-1.545l-.079-.007-.024-.075-1.5-4.782-.182-.569.384.459a19.709,19.709,0,0,0,2.5,2.628c.113,0,.367-.285.644-.658,2.68-3.6,4.708-11.683,5.016-15.551a25.19,25.19,0,0,0-.25-6.3c-.518-2.994-1.439-4.669-1.624-4.782a21.955,21.955,0,0,0-3.642.993l-1.525.514,1.433-.733c.01,0,2.926-1.491,3.1-2.282.109-.5-.61-3.06-2-5.56-1.117-2.021-7.3-8-9.4-6.945-.473.36-3.563,6.7-4.783,7.952,0,0,.192-.346.494-.891a10.459,10.459,0,0,0-1.98-1.419,10.606,10.606,0,0,0-2.686-1.055l-.052-.01-.027-.048a4.7,4.7,0,0,0-.977-1.278,5.627,5.627,0,0,0,.209,1.018,4.3,4.3,0,0,0-1.6-1.768,3.168,3.168,0,0,0-1.22-.045c-.35.524,1.361,2.22,1.361,2.22s-3.111-1.059-7.428,2.145a11.625,11.625,0,0,0-3.851,5.451,6.48,6.48,0,0,1,1.953-.113,8.445,8.445,0,0,1,3.491,1.22,9.429,9.429,0,0,0-5.509-.928,24.542,24.542,0,0,0-1.2,5.17c.973,0,2.008.044,2.939.133.665.065,1.278.151,1.775.25a3.819,3.819,0,0,1,1.117.356c.2.117.274.251.219.4-.048-.51-1.709-.71-3.138-.85-.7-.068-1.428-.038-2.168-.059-.168-.007-.442-.017-.771-.02a46.813,46.813,0,0,0-.326,6.05c.459-.017.919-.02,1.374-.013a27.023,27.023,0,0,1,6.664,1.028,36.2,36.2,0,0,0-6.667-.788c-.25-.007-.74-.007-1.367.014.013,1.319.065,2.71.165,4.169.041.655.085,1.3.126,1.936.884-.116,1.771-.2,2.669-.243a38.713,38.713,0,0,1,8.058.49,52.523,52.523,0,0,0-8.041-.254c-.431.024-1.442.1-2.672.233.123,1.881.239,3.673.346,5.345a21.879,21.879,0,0,1,2.412-.274,27.033,27.033,0,0,1,6.722.49,36.721,36.721,0,0,0-6.708-.254c-.381.024-1.3.1-2.412.257.151,2.367.285,4.485.394,6.256a25.4,25.4,0,0,1,4.933-.237,16.916,16.916,0,0,1,1.771.154,3.652,3.652,0,0,1,1.12.292c.192.106.271.236.216.394-.044-.51-1.71-.617-3.138-.678-.7-.031-1.429.038-2.169.059a21.652,21.652,0,0,0-2.724.2c.079,1.268.144,2.354.2,3.224a13.673,13.673,0,0,1,3.351-.387,12.354,12.354,0,0,1,4.372.867,16.941,16.941,0,0,0-4.382-.631,13.064,13.064,0,0,0-3.327.4l.052.836a5.687,5.687,0,0,1,1.645.288,5.752,5.752,0,0,1,2.491,1.675,7.6,7.6,0,0,0-2.563-1.453,5.454,5.454,0,0,0-1.229-.254,6.1,6.1,0,0,1,1.977,1.36,5.758,5.758,0,0,1,1.412,2.648,7.54,7.54,0,0,0-1.583-2.484,5.941,5.941,0,0,0-2.1-1.391,10.244,10.244,0,0,1,1.391,4.539c-.466-1.569-.469-2.922-1.4-4.183.021.37.034.568.034.568s-2.1-2.312-3.049-1.322a.894.894,0,0,0-.141,1,3.254,3.254,0,0,1,1.764,2.522,3.131,3.131,0,0,1-.068,1.257,1.835,1.835,0,0,1-.63.959,1.915,1.915,0,0,1-.949.381,2.259,2.259,0,0,1-.888-.068,2.317,2.317,0,0,0,1.148-.164,1.931,1.931,0,0,1-.942-.237.835.835,0,0,1-.364-.415,1.082,1.082,0,0,1,.093-.843,3.25,3.25,0,0,1,.613-.856,4.373,4.373,0,0,1,.5-.446,13.311,13.311,0,0,0-3.693,1.48,5.168,5.168,0,0,0,1.175,2.586,6.1,6.1,0,0,0,3.933,1.994,7.73,7.73,0,0,0,3.07-.271,14.871,14.871,0,0,0,4.008-1.895c6.222-4.019,7.507-17.73,7.74-25.106.017-.538.127-3.093.257-4.8a87.328,87.328,0,0,1-.877,14.564h.01s.058.346.945.445a3.27,3.27,0,0,0,1.477-.185c-.079-.086-.154-.164-.219-.243-1.044-.809.2-4.625.384-5.105a6.023,6.023,0,0,1,2.4-3,3.663,3.663,0,0,1,3.447-.137c-.075-.021-.151-.038-.23-.055a6.349,6.349,0,0,1,.675.774,6.959,6.959,0,0,0-1.487-3.258,15.359,15.359,0,0,0-3.529-2.851,9.564,9.564,0,0,1,3.714,2.7,7.167,7.167,0,0,1,1.6,3.813c.068.1.137.206.205.312a14.7,14.7,0,0,0,1.823-6.839A9.781,9.781,0,0,0,2586.5,572.771Zm-23.989,29.892a4.924,4.924,0,0,1-1.189-1.494,2.986,2.986,0,0,1,1.251,1.48C2562.55,602.653,2562.53,602.66,2562.509,602.663Zm19-33.757a1.829,1.829,0,0,1,.582.542,2.185,2.185,0,0,1,.35,1.316,3.165,3.165,0,0,1-.452,1.466.968.968,0,0,1,.521.216,2.1,2.1,0,0,0-1.391.038,2.961,2.961,0,0,0-1.12.853,1.7,1.7,0,0,1,1.031-1.073,1.945,1.945,0,0,1,.789-.058,3.265,3.265,0,0,0,.466-1.45,1.987,1.987,0,0,0-.325-1.219,1.66,1.66,0,0,0-.528-.5,2.072,2.072,0,0,0-1.086-.281c-1.285.024-1.654.846-2,1.9a2.4,2.4,0,0,1,.085-.6,1.923,1.923,0,0,1,1.909-1.456A2.208,2.208,0,0,1,2581.51,568.906ZM2579.6,570.8a.723.723,0,0,0,.723.722.74.74,0,0,0,.442-.15c0,.048.007.1.007.15a1.172,1.172,0,1,1-1.172-1.175,1.015,1.015,0,0,1,.151.01A.742.742,0,0,0,2579.6,570.8Zm6.8,1.874a1.317,1.317,0,0,1,.1.1A1.317,1.317,0,0,0,2586.4,572.672Zm-5.777-6.188a4.443,4.443,0,0,1-2.089.161c-.99-.223-1.152-1.062-.761-1.412a1.877,1.877,0,0,1,2.07.23A3.617,3.617,0,0,1,2580.622,566.484Z" transform="translate(-2537.084 -550.905)" fill="#8c7e57"/><path d="M2602.78,599.46c.284.5.476.873.613,1.141.226.449.295.582.4.582a9.458,9.458,0,0,0,2.22-.939,26.966,26.966,0,0,0,2.844-1.713c2.2-1.511,2.312-1.545,2.316-1.545l-.079-.007-.024-.075-1.5-4.782-.182-.569.384.459a19.712,19.712,0,0,0,2.5,2.628c.113,0,.367-.285.644-.658,2.679-3.6,4.708-11.683,5.016-15.551a25.189,25.189,0,0,0-.25-6.3c-.518-2.994-1.439-4.669-1.624-4.782a21.948,21.948,0,0,0-3.642.993l-1.525.514,1.433-.733c.01,0,2.926-1.491,3.1-2.282.109-.5-.61-3.06-2-5.56-1.117-2.021-7.3-8-9.4-6.945-.3.23-1.672,2.9-2.94,5.122,1.374-1.323,3.6-3.316,4.348-3.121,1.114.292,7.424,6.856,7.181,9.682s-5.674,5.4-5.674,5.4l8.093-.719s.486,0,.486,7.476a34.215,34.215,0,0,1-3.635,14.262l-3.943-2.9s.689,7.065,0,8.082C2607.474,597.3,2604.715,598.658,2602.78,599.46Z" transform="translate(-2553.887 -550.905)" fill="#a39469"/><path d="M2593.222,582.789a2.222,2.222,0,0,1-1.2-.226,1.224,1.224,0,0,1-.448-.623,1.17,1.17,0,0,0,2.216-.528c0-.051,0-.1-.007-.15a.74.74,0,0,1-.442.15.723.723,0,0,1-.723-.722.74.74,0,0,1,.151-.442,1.008,1.008,0,0,0-.151-.01,1.174,1.174,0,0,0-1.172,1.175,1.041,1.041,0,0,0,.014.182,3.243,3.243,0,0,1-.093-1.062v.02c.343-1.055.713-1.877,2-1.9a2.073,2.073,0,0,1,1.086.281,1.653,1.653,0,0,1,.528.5,1.984,1.984,0,0,1,.325,1.219,3.262,3.262,0,0,1-.466,1.45,1.607,1.607,0,0,0-1.617.692Z" transform="translate(-2550.105 -560.796)" fill="#fefefe"/><path d="M2556.007,583.712c.045-.154.089-.312.138-.466a.533.533,0,0,1-.237.058c-.377,0-.682-.425-.682-.949a1.4,1.4,0,0,1,.027-.274c.048.161.154.274.274.274.167,0,.3-.212.3-.476a.57.57,0,0,0-.157-.418.494.494,0,0,1,.233-.058.733.733,0,0,1,.634.606c.045-.123.086-.247.13-.367a2.032,2.032,0,0,0-.292-.87.632.632,0,0,0-.27-.274.554.554,0,0,0-.356-.045.745.745,0,0,0-.367.209,1.406,1.406,0,0,0-.36.736,2.817,2.817,0,0,0,.206,1.813c.031.01.062.017.086.027a1.328,1.328,0,0,1,.538.5A.333.333,0,0,0,2556.007,583.712Z" transform="translate(-2535.955 -561.493)" fill="#fefefe"/><path d="M2554.366,563.051a15.2,15.2,0,0,1,4.306-3.409l-.038.014c-.24-.713-.4-1.408-.548-2.039a6.834,6.834,0,0,0-.668-2.038c-.3-.432-.747-.5-1.565.051V557.3l-.213-.3-.647-.9c-.6.312-4.3,2.491-7.9,10.892-3.69,8.6-2.114,15.434-1.9,16.27.448,0,2.425.017,2.621,0h.034c.185-.013.185-.01.339-.021-.51.651-2.309,2.3-2.539,2.515a9.175,9.175,0,0,0,.387,2.247c.339,1.3.956,3.309,1.237,4.214.294-1.788.825-3.792.86-3.926a5.865,5.865,0,0,1,.247-4.289,19.7,19.7,0,0,1,1.933-3.68,26.076,26.076,0,0,1-.23-6.992A18.33,18.33,0,0,1,2554.366,563.051Z" transform="translate(-2531.953 -551.692)" fill="#bfad7c"/><path d="M2557.123,618.322a20.524,20.524,0,0,1-2.6,1.6,4.262,4.262,0,0,1-.747.288c.332.486.668.928,1.007,1.332s.693.788,1.042,1.134c.292-.384.946-1.237,1.3-1.672s.637-.839.76-1.018C2557.613,619.436,2557.359,618.881,2557.123,618.322Z" transform="translate(-2535.491 -576.221)" fill="#bfad7c"/><path d="M2592.675,581.246a1.015,1.015,0,0,1,.151.01.742.742,0,0,0-.151.442.723.723,0,0,0,.723.722.74.74,0,0,0,.442-.15c0,.048.007.1.007.15a1.172,1.172,0,1,1-1.172-1.175Z" transform="translate(-2550.162 -561.805)" fill="#4a422c"/><path d="M2595.108,584.34a1.906,1.906,0,0,1,1.48.182,2.1,2.1,0,0,0-1.391.038,2.963,2.963,0,0,0-1.12.853A1.7,1.7,0,0,1,2595.108,584.34Z" transform="translate(-2551.163 -562.981)" fill="#4a422c"/><path d="M2591.375,580.451a2.4,2.4,0,0,1,.085-.6,1.923,1.923,0,0,1,1.909-1.456,2.207,2.207,0,0,1,1.168.3,1.83,1.83,0,0,1,.583.542,2.187,2.187,0,0,1,.35,1.316,3.127,3.127,0,0,1-.456,1.469l-.167-.02a3.326,3.326,0,0,0,.466-1.456,1.985,1.985,0,0,0-.325-1.219,1.656,1.656,0,0,0-.528-.5,2.072,2.072,0,0,0-1.086-.281C2592.088,578.574,2591.718,579.4,2591.375,580.451Z" transform="translate(-2550.112 -560.696)" fill="#4a422c"/><path d="M2593.158,573.995a4.444,4.444,0,0,1-2.09.161c-.99-.223-1.151-1.062-.761-1.412a1.877,1.877,0,0,1,2.069.23A3.614,3.614,0,0,1,2593.158,573.995Z" transform="translate(-2549.621 -558.416)" fill="#4a422c"/><path d="M2555.757,577.388a3.428,3.428,0,0,0,1.607.123c.764-.171.887-.815.585-1.086a1.436,1.436,0,0,0-1.593.178A2.757,2.757,0,0,0,2555.757,577.388Z" transform="translate(-2536.263 -559.866)" fill="#4a422c"/><path d="M2554.984,584.975c.188.068.583.439.589.661a1.227,1.227,0,0,0-.637-.527,1.755,1.755,0,0,0-.833-.058A1,1,0,0,1,2554.984,584.975Z" transform="translate(-2535.62 -563.229)" fill="#4a422c"/><path d="M2555,583.2a2.977,2.977,0,0,1-.232-1.936,1.592,1.592,0,0,1,.407-.819.906.906,0,0,1,.442-.25.723.723,0,0,1,.46.054.782.782,0,0,1,.339.343,2.229,2.229,0,0,1,.209,1.387,2.829,2.829,0,0,0-.346-1.312.633.633,0,0,0-.27-.274.553.553,0,0,0-.356-.045.743.743,0,0,0-.367.209,1.4,1.4,0,0,0-.36.736,2.809,2.809,0,0,0,.213,1.83Z" transform="translate(-2535.854 -561.393)" fill="#4a422c"/><path d="M2556.074,582.014c.376,0,.681.428.681.952s-.3.949-.681.949-.682-.425-.682-.949a1.4,1.4,0,0,1,.027-.274c.048.161.154.274.274.274.167,0,.3-.212.3-.476a.571.571,0,0,0-.157-.418A.494.494,0,0,1,2556.074,582.014Z" transform="translate(-2536.121 -562.104)" fill="#4a422c"/><path d="M2560.79,608.868a36.676,36.676,0,0,1-5.66-14.832,28.774,28.774,0,0,1,2.535-15.722c-.246,1.011-.932,2.95-1.11,3.491a27.664,27.664,0,0,0-1.189,12.2,36.392,36.392,0,0,0,5.543,14.612c.027.042.13.209.157.251Z" transform="translate(-2535.934 -560.665)" fill="#4a422c"/><path d="M2553.673,581.972a26.078,26.078,0,0,1-.24-7.044,18.332,18.332,0,0,1,4.286-10.285,15.526,15.526,0,0,1,9.291-5.071,19.688,19.688,0,0,1,5.3-.116c-1.271.034-3.416.137-4.029.192-.417.041-.826.092-1.23.161a15.28,15.28,0,0,0-9.151,4.988,18.122,18.122,0,0,0-4.228,10.155,25.882,25.882,0,0,0,.236,6.983Z" transform="translate(-2535.306 -553.284)" fill="#4a422c"/><path d="M2580.489,558.534c2.279-1.929,5.078-2.128,6.674.678a10.914,10.914,0,0,1,2.7,1.069,10.534,10.534,0,0,1,2.076,1.5l-.168.168a10.092,10.092,0,0,0-2.028-1.463,10.606,10.606,0,0,0-2.686-1.055l-.052-.01-.027-.048c-1.487-2.74-4.039-2.607-6.194-.781Z" transform="translate(-2545.879 -552.414)" fill="#4a422c"/><path d="M2554.969,607.464a13.284,13.284,0,0,1-4.423-3.207c-1.028-1.36-.832-3.2-.164-5a22.061,22.061,0,0,1,2.7-4.8l.106.26a20.9,20.9,0,0,0-2.583,4.622c-.644,1.727-.839,3.492.13,4.773a13.043,13.043,0,0,0,4.331,3.135Z" transform="translate(-2533.958 -566.943)" fill="#4a422c"/><path d="M2549.889,609.381c0,.013-1.309,4.91-1,6.26a1.415,1.415,0,0,0,.1.274,1.352,1.352,0,0,0,.973.675,3.542,3.542,0,0,0,1.5-.045,4.264,4.264,0,0,0,.952-.336,20.661,20.661,0,0,0,2.652-1.641l.141.192a20.682,20.682,0,0,1-2.69,1.662,4.472,4.472,0,0,1-1,.353,3.737,3.737,0,0,1-1.6.045,1.564,1.564,0,0,1-1.137-.8,1.515,1.515,0,0,1-.113-.322c-.322-1.411,1-6.362,1-6.376Z" transform="translate(-2533.482 -572.721)" fill="#4a422c"/><path d="M2555.554,624.038a16.552,16.552,0,0,1-1.154-1.25,17.48,17.48,0,0,1-1.137-1.521l.2-.13a18.279,18.279,0,0,0,1.12,1.5,16.008,16.008,0,0,0,1.141,1.23Z" transform="translate(-2535.293 -577.316)" fill="#4a422c"/><path d="M2547.041,592.6c0-.007-.935-2.97-1.384-4.693a8.252,8.252,0,0,1-.4-2.368l0-.048.034-.031c.007,0,1.672-1.771,2.3-2.347.288-.02.261-.013.439-.027-.51.651-2.309,2.3-2.539,2.515a9.181,9.181,0,0,0,.387,2.247c.449,1.71,1.381,4.674,1.384,4.683Zm.641-9.257,0-.041a.262.262,0,0,1-.028.041c-.359.017-2.7,0-2.7,0h-.088l-.024-.086c-.007-.024-2.083-7.263,1.884-16.514s8.1-11.049,8.113-11.056l.085-.042.058.079.49.682v-1.062l.051-.037c.993-.686,1.555-.59,1.946-.024a6.874,6.874,0,0,1,.7,2.118c.147.63.312,1.326.542,2.018l-.223.076c-.24-.713-.4-1.408-.548-2.039a6.842,6.842,0,0,0-.668-2.038c-.3-.432-.747-.5-1.565.051v1.672l-.213-.3-.647-.9c-.6.312-4.3,2.491-7.9,10.892-3.69,8.6-2.114,15.434-1.9,16.27.448,0,2.425.017,2.621,0,.1-.01.092.065.017.2l0,.041h0Z" transform="translate(-2531.802 -551.534)" fill="#4a422c"/><path d="M2563.79,615.561a3.835,3.835,0,0,0-2.32-1.209,3.621,3.621,0,0,0-2.464.713,2.921,2.921,0,0,0-.925,1.281,6.849,6.849,0,0,0-.469,2.093,5.473,5.473,0,0,0,1.233,4.056,6.1,6.1,0,0,0,3.933,1.994,7.729,7.729,0,0,0,3.07-.271,14.872,14.872,0,0,0,4.008-1.895c6.222-4.019,7.507-17.729,7.74-25.106.017-.538.127-3.093.257-4.8,0,.072.884,24.462-7.869,30.1a14.993,14.993,0,0,1-4.073,1.922,7.921,7.921,0,0,1-3.159.277,6.3,6.3,0,0,1-4.084-2.073,5.713,5.713,0,0,1-1.292-4.228,7.06,7.06,0,0,1,.487-2.169,3.118,3.118,0,0,1,1.011-1.381,3.838,3.838,0,0,1,2.621-.757,4.026,4.026,0,0,1,2.463,1.281c1.463,1.487,1.686,4.872,1.686,4.882C2565.112,618.487,2565.184,616.979,2563.79,615.561Z" transform="translate(-2536.885 -566.149)" fill="#4a422c"/><path d="M2562.265,631.086a3.41,3.41,0,0,1,2.473,2.81,3.126,3.126,0,0,1-.069,1.257,1.835,1.835,0,0,1-.63.959,1.916,1.916,0,0,1-.949.381,2.258,2.258,0,0,1-.887-.068,2.186,2.186,0,0,0,1.689-.5,1.579,1.579,0,0,0,.548-.836,2.877,2.877,0,0,0,.062-1.165A3.269,3.269,0,0,0,2562.265,631.086Z" transform="translate(-2538.769 -581.184)" fill="#4a422c"/><path d="M2563.671,637.381a2.163,2.163,0,0,1-1.394-.2.836.836,0,0,1-.364-.415,1.084,1.084,0,0,1,.093-.843,3.251,3.251,0,0,1,.613-.856,3.209,3.209,0,0,1,1.621-1l.017.158a3.647,3.647,0,0,0-2.107,1.764.942.942,0,0,0-.089.723.671.671,0,0,0,.3.333,1.994,1.994,0,0,0,1.281.182Z" transform="translate(-2538.637 -582.344)" fill="#4a422c"/><path d="M2564.563,637.439a.781.781,0,0,1-.822-.538,1.883,1.883,0,0,1,.455-1.532,2.274,2.274,0,0,1,.35-.38.672.672,0,0,1,.335-.178.23.23,0,0,1,.234.1l-.052.034a.175.175,0,0,0-.175-.072.626.626,0,0,0-.3.164,2.112,2.112,0,0,0-.339.37,1.816,1.816,0,0,0-.449,1.47.708.708,0,0,0,.75.5Z" transform="translate(-2539.348 -582.632)" fill="#4a422c"/><path d="M2565.244,637.455a.451.451,0,0,1-.48-.267.542.542,0,0,1-.034-.089,1.642,1.642,0,0,1,.01-.74.924.924,0,0,1,.4-.63.669.669,0,0,1,.083-.034c.562-.164.308.5.308.5l-.062-.021s.213-.548-.226-.421a.514.514,0,0,0-.075.027.878.878,0,0,0-.37.59,1.51,1.51,0,0,0-.01.709.36.36,0,0,0,.027.075.387.387,0,0,0,.411.237Z" transform="translate(-2539.737 -582.966)" fill="#4a422c"/><path d="M2567.957,629.926a6.457,6.457,0,0,1,2.655,1.624,5.761,5.761,0,0,1,1.412,2.648,7.538,7.538,0,0,0-1.583-2.484,6.176,6.176,0,0,0-2.559-1.562Z" transform="translate(-2540.977 -580.733)" fill="#4a422c"/><path d="M2567.82,629.929a6.036,6.036,0,0,1,2.094.292,5.75,5.75,0,0,1,2.49,1.675,7.6,7.6,0,0,0-2.563-1.453,5.608,5.608,0,0,0-1.805-.277Z" transform="translate(-2540.953 -580.734)" fill="#4a422c"/><path d="M2566.4,628.269a14.042,14.042,0,0,1,4.6-.744,12.341,12.341,0,0,1,4.372.867,16.944,16.944,0,0,0-4.382-.631,13.68,13.68,0,0,0-4.43.716Z" transform="translate(-2540.402 -579.799)" fill="#4a422c"/><path d="M2565.241,623.164c.237-.8,3.92-1.1,6.685-.98a16.91,16.91,0,0,1,1.771.154,3.655,3.655,0,0,1,1.12.292c.192.106.271.236.216.394-.045-.51-1.71-.617-3.138-.678-.7-.031-1.429.038-2.169.059S2566.183,622.466,2565.241,623.164Z" transform="translate(-2539.95 -577.713)" fill="#4a422c"/><path d="M2560.757,612.892a21.916,21.916,0,0,1,6.5-1.373,27.036,27.036,0,0,1,6.722.49,36.717,36.717,0,0,0-6.708-.254A31.193,31.193,0,0,0,2560.757,612.892Z" transform="translate(-2538.207 -573.56)" fill="#4a422c"/><path d="M2558.475,603.828a31,31,0,0,1,7.788-1.374,38.7,38.7,0,0,1,8.058.49,52.515,52.515,0,0,0-8.041-.254A44.222,44.222,0,0,0,2558.475,603.828Z" transform="translate(-2537.32 -570.035)" fill="#4a422c"/><path d="M2557.842,593.317a22.044,22.044,0,0,1,6.585-.846,27.017,27.017,0,0,1,6.664,1.028,36.2,36.2,0,0,0-6.667-.788A30.918,30.918,0,0,0,2557.842,593.317Z" transform="translate(-2537.073 -566.168)" fill="#4a422c"/><path d="M2560.824,583c.237-.791,3.916-.887,6.681-.62.665.065,1.278.151,1.775.25a3.817,3.817,0,0,1,1.117.356c.2.117.274.251.219.4-.048-.51-1.709-.71-3.139-.85-.7-.068-1.428-.038-2.168-.059S2561.766,582.346,2560.824,583Z" transform="translate(-2538.233 -562.193)" fill="#4a422c"/><path d="M2566.4,573.947a6.714,6.714,0,0,1,3.553-.658,8.446,8.446,0,0,1,3.491,1.22,10.9,10.9,0,0,0-3.508-.983A9.125,9.125,0,0,0,2566.4,573.947Z" transform="translate(-2540.402 -558.701)" fill="#4a422c"/><path d="M2589.327,616.248s.058.346.945.445a3.189,3.189,0,0,0,1.648-.257l.106.209a3.375,3.375,0,0,1-1.778.281c-1.062-.117-1.155-.631-1.155-.631Z" transform="translate(-2549.225 -575.415)" fill="#4a422c"/><path d="M2595.8,593.976a9.566,9.566,0,0,1,3.714,2.7,7.194,7.194,0,0,1,1.6,3.858l-.237.024a6.953,6.953,0,0,0-1.552-3.734A15.355,15.355,0,0,0,2595.8,593.976Z" transform="translate(-2551.832 -566.755)" fill="#4a422c"/><path d="M2592.827,610.375a3.286,3.286,0,0,0,.809.929,11.3,11.3,0,0,0,3.405,1.929,4.9,4.9,0,0,0,3.625.154,2.187,2.187,0,0,0,.712-.548,1.21,1.21,0,0,0,.1-.13c.891-1.2.634-3.31-.072-5.317a12.479,12.479,0,0,0-2.81-4.738c-.054-.045-.106-.089-.161-.126l.24-.059c.058.042.017-.044.075.007a12.647,12.647,0,0,1,2.878,4.837c.729,2.076.983,4.262.042,5.537a1.755,1.755,0,0,1-.117.144,2.456,2.456,0,0,1-.788.61,5.145,5.145,0,0,1-3.806-.144,11.626,11.626,0,0,1-3.481-1.977,3.571,3.571,0,0,1-.867-1Z" transform="translate(-2550.594 -570.053)" fill="#4a422c"/><path d="M2593.2,605.685a6.023,6.023,0,0,1,2.4-3,3.663,3.663,0,0,1,3.447-.137,4.394,4.394,0,0,0-3.327.339,5.783,5.783,0,0,0-2.3,2.881,9.014,9.014,0,0,0-.6,5.023C2591.768,610,2593.012,606.168,2593.2,605.685Z" transform="translate(-2550.512 -569.94)" fill="#4a422c"/><path d="M2592.5,592.2c.013.01,4.584,3.491,6.1,5.938.712,1.144,1.082,1.874,1.312,2.319s.3.582.4.582a9.449,9.449,0,0,0,2.22-.939,26.942,26.942,0,0,0,2.844-1.713c2.2-1.511,2.312-1.545,2.316-1.545l-.079-.007-.024-.075-1.5-4.782-.182-.569.384.459a19.727,19.727,0,0,0,2.5,2.628c.113,0,.367-.285.644-.658,2.679-3.6,4.708-11.683,5.016-15.551a25.189,25.189,0,0,0-.25-6.3c-.518-2.994-1.439-4.669-1.624-4.782a21.948,21.948,0,0,0-3.642.993l-1.525.514,1.433-.733c.01,0,2.926-1.491,3.1-2.282.109-.5-.61-3.06-2-5.56-1.117-2.021-7.3-8-9.4-6.945-.473.36-3.563,6.7-4.783,7.952.014-.02,4.416-8.034,4.677-8.164,2.275-1.137,8.545,4.927,9.716,7.041,1.411,2.549,2.138,5.19,2.021,5.728s-1.268,1.32-2.158,1.85a8.853,8.853,0,0,1,2.686-.6c.205.123,1.206,1.874,1.733,4.944a25.279,25.279,0,0,1,.254,6.359c-.312,3.906-2.354,12.04-5.061,15.674-.318.432-.637.757-.836.757-.312,0-1.641-1.5-2.305-2.268l1.329,4.224-.045.013c-.045.168-.435.627-2.261,1.881a28.145,28.145,0,0,1-2.868,1.727,9.242,9.242,0,0,1-2.33.963c-.25,0-.332-.164-.613-.709-.226-.442-.593-1.161-1.3-2.3-1.494-2.409-6.249-6.023-6.263-6.034Z" transform="translate(-2550.409 -550.759)" fill="#4a422c"/><path d="M2556.883,623.874s.983-1.3,1.446-1.867.822-1.107.826-1.107l.195.134s-.38.559-.839,1.124-1.436,1.857-1.439,1.86Z" transform="translate(-2536.7 -577.224)" fill="#4a422c"/><path d="M2554.712,624.311c-.01.02-2.785,6.856-1.052,10.007a7.693,7.693,0,0,0,4.485,3.176,18.472,18.472,0,0,0,7.465.733c4.358-.487,4.817-2.23,4.982-2.861l.007-.02a21.642,21.642,0,0,0,.079-3.1l.226-.134a22.744,22.744,0,0,1-.079,3.292l0,.021c-.178.671-.664,2.531-5.187,3.039a18.658,18.658,0,0,1-7.562-.747,7.867,7.867,0,0,1-4.618-3.286c-1.792-3.251,1.028-10.186,1.038-10.206Z" transform="translate(-2535.136 -578.517)" fill="#4a422c"/><path d="M2557.444,642.989a3.427,3.427,0,0,1,.154-.88,6.909,6.909,0,0,1,.657-1.32l.2.127a7.052,7.052,0,0,0-.631,1.257,3.211,3.211,0,0,0-.144.815Z" transform="translate(-2536.919 -584.957)" fill="#4a422c"/><path d="M2566.123,646.352a1.551,1.551,0,0,0,0-.846c-.124-.414-.147-.411-.147-.411l.26-.054s-.051-.147.113.4a1.783,1.783,0,0,1,0,.986Z" transform="translate(-2540.236 -586.603)" fill="#4a422c"/><path d="M2573.189,646.069a1.868,1.868,0,0,0-.144-.856,3.505,3.505,0,0,0-.572-.881l.158-.089a2.632,2.632,0,0,1,.634.88,2.107,2.107,0,0,1,.157.977Z" transform="translate(-2542.762 -586.3)" fill="#4a422c"/><path d="M2554.71,640.917s-.216-.428.675-1.518c.935-1.144,1.428-.513,1.428-.51v.336s-.5-.593-1.247.325c-.8.973-.641,1.265-.641,1.268Z" transform="translate(-2535.847 -584.15)" fill="#4a422c"/><path d="M2587.919,627.947a27.005,27.005,0,0,1-.092,6.619c-.017.076-.027.144-.041.209a4.939,4.939,0,0,0,.685,3.543,5.645,5.645,0,0,0,3.779,2.267c.117.024.23.045.339.062a25.3,25.3,0,0,0,7.986-.113c2.2-.4,4.128-1.12,5.094-2.227a7.149,7.149,0,0,0,1.655-4.944,23.96,23.96,0,0,0-1.685-5.944,11.238,11.238,0,0,1,1.922,5.941,7.405,7.405,0,0,1-1.713,5.105c-1,1.151-2.981,1.9-5.232,2.3a25.511,25.511,0,0,1-8.065.113c-.123-.021-.24-.042-.346-.062a5.869,5.869,0,0,1-3.93-2.371,5.155,5.155,0,0,1-.722-3.71c.013-.079.027-.151.041-.219C2587.834,633.309,2587.851,628.561,2587.919,627.947Z" transform="translate(-2548.595 -579.759)" fill="#4a422c"/><path d="M2595.938,646.04a9.994,9.994,0,0,1,.761-3.07,3.962,3.962,0,0,1,1.1-1.555,1.572,1.572,0,0,1,1.381-.414,2.382,2.382,0,0,1,1.032,1.124,8.854,8.854,0,0,1,.853,2.117c.347,1.381.435,1.991.439,1.991l-.236.034s-.089-.6-.435-1.97a8.6,8.6,0,0,0-.826-2.056,2.23,2.23,0,0,0-.894-1.014,1.347,1.347,0,0,0-1.165.373,3.816,3.816,0,0,0-1.031,1.463,9.844,9.844,0,0,0-.74,2.991Z" transform="translate(-2551.886 -585.024)" fill="#4a422c"/><path d="M2608.79,645.435a10.879,10.879,0,0,0-1.679-2.943,3.993,3.993,0,0,0-1.4-1.145,1.415,1.415,0,0,0-1.23-.045c-.589.295-1.131,1.583-1.131,1.587l-.219-.093s.576-1.373,1.244-1.706a1.668,1.668,0,0,1,1.432.037,4.277,4.277,0,0,1,1.487,1.213,11.214,11.214,0,0,1,1.72,3.011Z" transform="translate(-2554.683 -585.019)" fill="#4a422c"/><path d="M2590.091,644.514a28.038,28.038,0,0,1,1.761-2.586,3.164,3.164,0,0,1,.75-.754,1.373,1.373,0,0,1,.836-.267,1.152,1.152,0,0,1,.631.24,1.413,1.413,0,0,1,.322.336,8.348,8.348,0,0,1,.524.881l-.212.106a8.338,8.338,0,0,0-.507-.853,1.205,1.205,0,0,0-.267-.281.915.915,0,0,0-.5-.192,1.127,1.127,0,0,0-.689.226,2.925,2.925,0,0,0-.7.7,28.163,28.163,0,0,0-1.744,2.56Z" transform="translate(-2549.613 -585.002)" fill="#4a422c"/><path d="M2583.579,634.816s.172-.281,1.21-.26a4.864,4.864,0,0,1,1.682.3l-.093.219a4.562,4.562,0,0,0-1.593-.288c-.942-.017-1.23.263-1.23.263Z" transform="translate(-2547.071 -582.533)" fill="#4a422c"/><path d="M2619.207,627.781s1.237-.343,3.611-3.162a40.741,40.741,0,0,0,3.1-4.2,16.361,16.361,0,0,1-2.923,4.355c-2.422,2.871-3.724,3.234-3.728,3.234Z" transform="translate(-2560.934 -577.036)" fill="#4a422c"/><path d="M2598.37,607.085a12.337,12.337,0,0,0,3.638-.219,3.926,3.926,0,0,0,3.663-4.492c.041-.394.089-.8.154-1.2a13.73,13.73,0,0,1,1.483-3.82c.689-1.456,1.717-3.625,3.272-7.133a34.205,34.205,0,0,0,1.97-19.936,24.344,24.344,0,0,0-9.374-14.88c-.356-.233-.723-.463-1.09-.685a35.107,35.107,0,0,0-22.327-4.8c-6.513.785-11.457,3.282-12.913,5.513-.02.031-.044.068-.068.109l-.126-.171c.02-.034-.031-.027,0-.068,1.487-2.278,6.5-4.824,13.081-5.619a35.334,35.334,0,0,1,22.479,4.831c.366.219.733.449,1.1.692l.007,0a24.564,24.564,0,0,1,9.463,15.023,34.426,34.426,0,0,1-1.984,20.08c-1.552,3.505-2.58,5.677-3.272,7.137a13.649,13.649,0,0,0-1.467,3.762c-.065.394-.109.792-.154,1.185-.151,1.367-.295,2.656-1.309,3.618a5.433,5.433,0,0,1-2.539,1.079,12.675,12.675,0,0,1-3.721.222Z" transform="translate(-2540.495 -549.437)" fill="#4a422c"/><path d="M2622.188,641.558a6.25,6.25,0,0,0-.089-1.977,2.353,2.353,0,0,0-.422-.969.832.832,0,0,0-.63-.35c-.384,0-1.007.521-1.011.521l-.089-.1a2.438,2.438,0,0,1,1.1-.559.973.973,0,0,1,.733.4,2.419,2.419,0,0,1,.449,1.024,6.513,6.513,0,0,1,.1,2.025Z" transform="translate(-2561.221 -583.92)" fill="#4a422c"/><path d="M2604.549,585.052a7.768,7.768,0,0,1,2.227,5.441,15.024,15.024,0,0,1-1.929,7.106l-.209-.109a14.839,14.839,0,0,0,1.9-6.993C2606.56,589.581,2605.964,586.456,2604.549,585.052Z" transform="translate(-2555.234 -563.285)" fill="#4a422c"/><path d="M2560,625.415c-.812-1.315-1.552-2.638-2.207-3.971-.151.213-.408.565-.7.925-.448.555-1.436,1.857-1.439,1.86l-.1-.079-.007.007a.652.652,0,0,0-.048-.051l-.031-.021a0,0,0,0,1,0,0c-.226-.223-.449-.456-.672-.7-.391,1.021-2.573,6.976-.99,9.857a4.733,4.733,0,0,0,.36.551,3.325,3.325,0,0,1,.655-1.1c.558-.685.963-.733,1.2-.661a6.288,6.288,0,0,1-.243-2.316,7.045,7.045,0,0,1,.487-2.169,3.117,3.117,0,0,1,1.011-1.381,3.839,3.839,0,0,1,2.621-.757A1.066,1.066,0,0,1,2560,625.415Z" transform="translate(-2535.284 -577.435)" fill="#80724a"/><path d="M2576,640.182a16.342,16.342,0,0,1-3.169,1.628,2.651,2.651,0,0,1,.572.822,2.206,2.206,0,0,1,.165.864c4.18-.514,4.628-2.217,4.79-2.837l.007-.02a17.548,17.548,0,0,0,.085-2.8A9.67,9.67,0,0,1,2576,640.182Z" transform="translate(-2542.902 -583.809)" fill="#80724a"/><ellipse cx="1.196" cy="1.528" rx="1.196" ry="1.528" transform="translate(26.147 44.951)" fill="#8c7e57"/><ellipse cx="1.196" cy="3.012" rx="1.196" ry="3.012" transform="translate(25.709 38.626)" fill="#8c7e57"/><ellipse cx="1.197" cy="2.599" rx="1.197" ry="2.599" transform="translate(25.126 32.955) rotate(-1.334)" fill="#8c7e57"/><ellipse cx="1.197" cy="3.012" rx="1.197" ry="3.012" transform="translate(24.893 26.623) rotate(-1.077)" fill="#8c7e57"/><ellipse cx="1.197" cy="3.012" rx="1.197" ry="3.012" transform="translate(24.957 20.268) rotate(-1.077)" fill="#8c7e57"/><ellipse cx="2.664" cy="1.214" rx="2.664" ry="1.214" transform="matrix(0.287, -0.958, 0.958, 0.287, 25.026, 19.677)" fill="#8c7e57"/><path d="M2595.91,603.023a5.783,5.783,0,0,0-2.3,2.881,9.5,9.5,0,0,0-.678,4.492v0a3.331,3.331,0,0,0,.809.925,11.3,11.3,0,0,0,3.406,1.929,4.9,4.9,0,0,0,3.624.154,2.186,2.186,0,0,0,.713-.548,1.239,1.239,0,0,0,.1-.13c.891-1.2.634-3.31-.072-5.317a12.479,12.479,0,0,0-2.81-4.738c-.051-.045-.1-.086-.15-.12A4.111,4.111,0,0,0,2595.91,603.023Z" transform="translate(-2550.699 -570.074)" fill="#f0e4c8"/><path d="M2601.131,613.087a14.991,14.991,0,0,1-4.721-4.327c-1.97-2.762-.75-5.534.59-6.1a3.54,3.54,0,0,0-1.09.418,5.783,5.783,0,0,0-2.3,2.881,9.5,9.5,0,0,0-.678,4.492v0a3.331,3.331,0,0,0,.809.925,11.3,11.3,0,0,0,3.406,1.929,4.9,4.9,0,0,0,3.624.154,2.1,2.1,0,0,0,.391-.243A.338.338,0,0,1,2601.131,613.087Z" transform="translate(-2550.699 -570.134)" fill="#ded1b4"/><path d="M2554.621,613.443a13.158,13.158,0,0,1-4.4-3.2,3.393,3.393,0,0,1-.25-.384c-.271,1.048-1.2,4.827-.936,5.989a1.431,1.431,0,0,0,.1.274,1.353,1.353,0,0,0,.973.675,3.541,3.541,0,0,0,1.5-.045,4.26,4.26,0,0,0,.952-.336,20.291,20.291,0,0,0,2.611-1.61Q2554.879,614.131,2554.621,613.443Z" transform="translate(-2533.63 -572.932)" fill="#f0e4c8"/><path d="M2554.692,614.707a16.554,16.554,0,0,1-2.71-1.593v.414a4.7,4.7,0,0,1-1.325,2.957,2.385,2.385,0,0,1-1.487.836c.01.024.021.045.031.068a1.352,1.352,0,0,0,.973.675,3.544,3.544,0,0,0,1.5-.045,4.26,4.26,0,0,0,.952-.336,20.3,20.3,0,0,0,2.611-1.61Q2554.95,615.4,2554.692,614.707Z" transform="translate(-2533.702 -574.196)" fill="#ded1b4"/><path d="M2556.868,639.353c-.178-.123-.6-.281-1.158.4s-.651,1.038-.655,1.182a6.562,6.562,0,0,0,1.473,1.254,3.881,3.881,0,0,1,.141-.685,6.7,6.7,0,0,1,.637-1.285A5.317,5.317,0,0,1,2556.868,639.353Z" transform="translate(-2535.99 -584.357)" fill="#ded1b4"/><path d="M2558.531,641.2a5.922,5.922,0,0,0-.555,1.131,3.24,3.24,0,0,0-.141.757,11.253,11.253,0,0,0,2.244,1,16.6,16.6,0,0,0,2.906.658,1.518,1.518,0,0,0-.028-.733c-.055-.182-.089-.284-.113-.339a6.287,6.287,0,0,1-3.992-2.062C2558.74,641.485,2558.631,641.348,2558.531,641.2Z" transform="translate(-2537.071 -585.119)" fill="#f0e4c8"/><path d="M2569.453,644.676a7.988,7.988,0,0,1-2.984.3c.017.058.041.137.072.24a1.763,1.763,0,0,1,.037.832,18.682,18.682,0,0,0,4.279.048,1.881,1.881,0,0,0-.147-.8,3.556,3.556,0,0,0-.538-.843Q2569.8,644.578,2569.453,644.676Z" transform="translate(-2540.428 -586.381)" fill="#ded1b4"/><path d="M2592.211,642.222c-.939,1.25-1.5,2.159-1.682,2.456a6.393,6.393,0,0,0,2.908,1.3c.117.025.23.045.339.062l.068.01a10.164,10.164,0,0,1,.75-2.953,4.4,4.4,0,0,1,.257-.521,9.167,9.167,0,0,0-.487-.812,1.2,1.2,0,0,0-.267-.281.914.914,0,0,0-.5-.192,1.127,1.127,0,0,0-.689.226A2.925,2.925,0,0,0,2592.211,642.222Z" transform="translate(-2549.783 -585.153)" fill="#ded1b4"/><path d="M2597.069,643.212a10.038,10.038,0,0,0-.733,2.9,25.367,25.367,0,0,0,5.061.158c-.048-.254-.161-.84-.411-1.823a8.6,8.6,0,0,0-.826-2.056,2.23,2.23,0,0,0-.894-1.014,1.347,1.347,0,0,0-1.165.373A3.816,3.816,0,0,0,2597.069,643.212Z" transform="translate(-2552.041 -585.174)" fill="#f0e4c8"/><path d="M2603.523,642.988a9.029,9.029,0,0,1,.49,1.4c.254,1.014.37,1.614.415,1.86a23.385,23.385,0,0,0,2.388-.3,16.158,16.158,0,0,0,2.073-.5,10.9,10.9,0,0,0-1.624-2.8,3.992,3.992,0,0,0-1.4-1.145,1.415,1.415,0,0,0-1.23-.045A3.714,3.714,0,0,0,2603.523,642.988Z" transform="translate(-2554.835 -585.169)" fill="#ded1b4"/><path d="M2619.671,638.8a7.338,7.338,0,0,1-.918,2.877,12.343,12.343,0,0,0,2.984-.137,6.336,6.336,0,0,0-.1-1.867,2.353,2.353,0,0,0-.422-.969.832.832,0,0,0-.63-.35A1.93,1.93,0,0,0,2619.671,638.8Z" transform="translate(-2560.757 -584.009)" fill="#d4c6a7"/><path d="M2535.174,642.469a7.3,7.3,0,0,0,1.686-.356c.376-.172-.761-.055-1.395.017.377-.213.833-.542.586-.565a1.012,1.012,0,0,0-.473.167,2.78,2.78,0,0,0,.911-1.281c.068-.658-1.583,1.651-1.583,1.651s.277-.884.106-.963-.315.935-.315.935.014-1.532-.634-1.7c-.5-.134.034,1.014.294,1.528-.284-.178-.788-.315-.733-.192a1.052,1.052,0,0,0,.356.271c-.192-.045-.356-.058-.339.041.031.185.5.322.675.367-.291-.013-.952-.034-.822.041a.777.777,0,0,0,.281.072l-.476.075,3.139.042Z" transform="translate(-2527.531 -584.78)" fill="#d2e28b"/><path d="M2542.952,643.805a.379.379,0,0,1-.055-.017.25.25,0,0,1-.051-.017c-.007-.014.01-.055.014-.068a.5.5,0,0,1,.017-.076c.01-.051.02-.1.028-.15s.048-.123-.086-.168l-.466-.164a.4.4,0,0,1-.243-.2c-.045-.086.024-.134.1-.164a.086.086,0,0,1,.031-.01.439.439,0,0,1,.394.037.878.878,0,0,1,.292.274c.017.021.031.048.044.062l.055-.309c.014-.068.021-.041-.03-.137-.014-.021-.025-.041-.038-.062l-.124-.188c-.037-.072-.068-.106-.106-.192l-.037-.1a.244.244,0,0,1-.017-.185.1.1,0,0,1,.109-.082.27.27,0,0,1,.083.024.464.464,0,0,1,.27.274.13.13,0,0,0,.01.031,1,1,0,0,1,.031.178,1.2,1.2,0,0,1-.01.219c0,.017,0,.028-.007.041l0,.038a.978.978,0,0,1,.222-.2l.059-.038c.02-.01.041-.017.062-.028a.482.482,0,0,1,.346,0c.065.028.161.075.147.154-.014.1-.154.185-.247.209l-.548.151c-.082.041-.079.116-.092.192l-.024.15,0,0,.181-.1c.048-.024.089-.034.131-.051a.234.234,0,0,1,.031-.007.136.136,0,0,0,.034-.007l.144-.014a.459.459,0,0,1,.148.031c.1.034.253.157.24.243,0,.041-.044.071-.079.092a.743.743,0,0,1-.418.048c-.048,0-.1,0-.147-.01s-.1-.01-.147-.014c-.079,0-.161-.024-.185.076C2542.993,643.648,2542.962,643.743,2542.952,643.805Z" transform="translate(-2530.951 -585.386)" fill="#87ad4a"/><path d="M2585.428,649.842a.208.208,0,0,0,.055-.017.152.152,0,0,0,.051-.017c.007-.013-.01-.055-.014-.068s-.01-.048-.017-.075c-.01-.052-.024-.1-.031-.148s-.048-.123.089-.171l.462-.164a.408.408,0,0,0,.247-.2c.045-.086-.027-.134-.1-.164l-.034-.01a.432.432,0,0,0-.394.041.857.857,0,0,0-.291.271.29.29,0,0,1-.045.062l-.055-.308c-.01-.065-.017-.042.034-.138.01-.017.024-.041.038-.062l.12-.188a1.735,1.735,0,0,0,.11-.192l.037-.1a.252.252,0,0,0,.017-.182.1.1,0,0,0-.109-.086.288.288,0,0,0-.083.024.464.464,0,0,0-.27.274.138.138,0,0,1-.01.031.63.63,0,0,0-.031.178.972.972,0,0,0,.01.223c0,.013,0,.024,0,.038l.007.041a1.064,1.064,0,0,0-.222-.2.684.684,0,0,0-.062-.034.248.248,0,0,0-.059-.027.447.447,0,0,0-.346,0c-.065.024-.161.071-.15.15.013.1.157.185.25.209l.548.151c.082.041.079.117.089.2l.027.147s0,0,0,0l-.185-.1a.712.712,0,0,0-.126-.048.2.2,0,0,0-.031-.01.161.161,0,0,1-.038-.007l-.14-.014a.835.835,0,0,0-.151.031c-.1.034-.254.158-.24.247.007.037.048.068.078.089a.724.724,0,0,0,.422.048c.045,0,.1,0,.147-.007s.092-.014.144-.017c.083,0,.164-.021.185.078C2585.384,649.685,2585.418,649.78,2585.428,649.842Z" transform="translate(-2547.396 -587.734)" fill="#87ad4a"/><path d="M2636.595,646.714a.209.209,0,0,1-.055-.017.311.311,0,0,1-.051-.013.255.255,0,0,1,.014-.072c.007-.024.01-.048.017-.072.01-.055.024-.1.031-.15s.048-.123-.089-.172l-.462-.164a.408.408,0,0,1-.247-.2c-.044-.086.028-.134.1-.164l.034-.01a.432.432,0,0,1,.394.041.831.831,0,0,1,.291.274.377.377,0,0,0,.045.058l.055-.308c.01-.065.017-.042-.034-.138-.01-.017-.024-.041-.038-.061l-.12-.189a1.423,1.423,0,0,1-.11-.192l-.038-.1a.257.257,0,0,1-.017-.182.1.1,0,0,1,.109-.086.292.292,0,0,1,.083.024.468.468,0,0,1,.271.274.093.093,0,0,0,.01.031.631.631,0,0,1,.031.178.972.972,0,0,1-.01.223c0,.014,0,.024,0,.038l-.007.041a1.061,1.061,0,0,1,.223-.2.642.642,0,0,1,.061-.034.23.23,0,0,1,.062-.028.441.441,0,0,1,.343,0c.065.024.161.072.151.15-.014.1-.158.185-.25.209l-.544.151c-.086.045-.082.117-.093.2l-.028.147h0l.185-.1a1.179,1.179,0,0,1,.127-.048.056.056,0,0,1,.031-.007c.017,0,.021-.007.038-.01l.141-.014a.887.887,0,0,1,.15.031c.1.034.254.158.24.247-.007.041-.048.068-.079.089a.751.751,0,0,1-.422.051l-.147-.01c-.048-.007-.092-.014-.144-.017-.083,0-.165-.021-.185.078C2636.64,646.557,2636.605,646.652,2636.595,646.714Z" transform="translate(-2567.361 -586.517)" fill="#87ad4a"/></g></svg>