<svg xmlns="http://www.w3.org/2000/svg" width="197.137" height="211.808" viewBox="0 0 197.137 211.808"><g transform="translate(-129 -83)"><path d="M289.852,185.835a4.224,4.224,0,1,1,0-8.449h36.285A97.959,97.959,0,0,0,312.1,130.737H267.868a4.239,4.239,0,0,1-4.224-4.224h0a4.239,4.239,0,0,1,4.224-4.224h38.523a98.632,98.632,0,0,0-137.133-20.177h25.526a4.224,4.224,0,0,1,0,8.449H159.229a98.559,98.559,0,0,0-24.748,38.558h46.062a4.239,4.239,0,0,1,4.224,4.224h0a4.239,4.239,0,0,1-4.224,4.224H131.956a98.617,98.617,0,1,0,194.169,28.267Z" fill="#6255a7" opacity="0.5"/><circle cx="7.803" cy="7.803" r="7.803" transform="translate(187.891 187.199)" fill="#ffaf8c"/><circle cx="7.803" cy="7.803" r="7.803" transform="translate(248.206 187.199)" fill="#ffaf8c"/><path d="M714.68,647.489h0a30.864,30.864,0,0,1-30.78-30.78V571.88a30.864,30.864,0,0,1,30.78-30.78h0a30.864,30.864,0,0,1,30.78,30.78v44.829A30.872,30.872,0,0,1,714.68,647.489Z" transform="translate(-488.494 -403.278)" fill="#f9cf98"/><path d="M886.946,1023.156l-5.589,9.682a1.557,1.557,0,0,0,1.352,2.333h11.177a1.557,1.557,0,0,0,1.352-2.333l-5.589-9.682A1.561,1.561,0,0,0,886.946,1023.156Z" transform="translate(-662.136 -826.958)" fill="#ffaf8c"/><path d="M347.3,1029.593s39.923-6.761,70.727,9c0,0,30.8-16.575,66.275-7.743v9.394l-65.963,6.259-71.038-9.179Z" transform="translate(-192.175 -832.043)" fill="#fe9"/><path d="M659.569,509.126a39.938,39.938,0,0,1-32.072,19.2A40,40,0,0,1,661.782,471.8,39.955,39.955,0,0,1,659.569,509.126Z" transform="translate(-435.668 -342.271)" fill="#5e372d"/><path d="M946.067,491.16a39.99,39.99,0,0,1,2.25,37.326A40,40,0,0,1,913.958,472,39.931,39.931,0,0,1,946.067,491.16Z" transform="translate(-687.868 -342.447)" fill="#734538"/><circle cx="2.776" cy="2.776" r="2.776" transform="translate(237.758 194.212)" fill="#223441"/><circle cx="2.776" cy="2.776" r="2.776" transform="translate(209.432 193.853)" fill="#223441"/><path d="M771.272,908.344,760.394,911.4a1.238,1.238,0,0,1-1.52-.85h0a1.238,1.238,0,0,1,.85-1.52l10.878-3.052a1.238,1.238,0,0,1,1.52.85h0A1.229,1.229,0,0,1,771.272,908.344Z" transform="translate(-554.457 -724.448)" fill="#223441"/><path d="M1021.153,954.729l-11.07-2.286a1.242,1.242,0,0,1-.957-1.46h0a1.242,1.242,0,0,1,1.46-.957l11.07,2.286a1.242,1.242,0,0,1,.957,1.46h0A1.248,1.248,0,0,1,1021.153,954.729Z" transform="translate(-774.778 -763.246)" fill="#223441"/><path d="M384.358,1129.061,309,1117.692V1034.4l75.358,11.381Z" transform="translate(-158.459 -837.544)" fill="#ff7622"/><path d="M466.417,1226.968l-36.117-5.457V1181.6l36.117,5.445Z" transform="translate(-265.243 -967.128)" fill="#ffb926"/><path d="M939.2,1129.061l75.37-11.369V1034.4l-75.37,11.381Z" transform="translate(-713.241 -837.544)" fill="#ff7622"/><path d="M869.233,1115.4v84.944c0,1.831-4.871,3.315-10.866,3.315s-10.866-1.484-10.866-3.315V1115.4Z" transform="translate(-632.515 -908.85)" fill="#ff6000"/><path d="M869.233,1113.1c0,1.987-4.871,3.59-10.866,3.59s-10.866-1.6-10.866-3.59Z" transform="translate(-632.515 -906.825)" fill="#fe9"/><path d="M869.676,1170v3.315h0c0,1.831-5,3.315-11.01,3.315s-10.866-1.484-10.866-3.315V1170c0,1.831,4.871,3.315,10.866,3.315s10.866-1.484,10.866-3.315Z" transform="translate(-632.779 -956.916)" fill="#00375f"/><path d="M869.176,1225.4v3.315h0c0,1.831-5,3.315-11.01,3.315s-10.866-1.484-10.866-3.315V1225.4c0,1.831,4.871,3.315,10.866,3.315s10.866-1.484,10.866-3.315Z" transform="translate(-632.339 -1005.686)" fill="#00375f"/><path d="M869.076,1630.6v3.315h0c0,1.831-5,3.315-11.01,3.315s-10.866-1.484-10.866-3.315V1630.6c0,1.831,4.871,3.315,10.866,3.315s10.866-1.484,10.866-3.315Z" transform="translate(-632.251 -1362.395)" fill="#00375f"/><path d="M868.576,1686v3.315h0c0,1.831-5,3.315-11.01,3.315s-10.866-1.484-10.866-3.315V1686c0,1.831,4.871,3.315,10.866,3.315s10.866-1.484,10.866-3.315Z" transform="translate(-631.811 -1411.165)" fill="#00375f"/><path d="M1134.3,1191.03l36.117-5.457V1181.6l-36.117,5.445Z" transform="translate(-884.993 -967.128)" fill="#ffb926"/><path d="M1134.3,1240.642l36.117-5.457V1231.2l-36.117,5.457Z" transform="translate(-884.993 -1010.792)" fill="#ffb926"/><path d="M1136,1293.63l36.117-5.445V1284.2L1136,1289.645Z" transform="translate(-886.49 -1057.449)" fill="#ffb926"/><path d="M464.117,1561.142,428,1555.685V1551.7l36.117,5.457Z" transform="translate(-263.218 -1292.937)" fill="#ffb926"/><path d="M1315.779,951.664l-7.24.9L1308,939.015l3.889,4.26,3.291-4.775Z" transform="translate(-1037.906 -753.12)" fill="#00a457"/></g></svg>