<?xml version="1.0" encoding="utf-8"?>
<!-- Generator: Adobe Illustrator 21.0.1, SVG Export Plug-In . SVG Version: 6.00 Build 0)  -->
<svg version="1.1" id="Layer_1" xmlns="http://www.w3.org/2000/svg" xmlns:xlink="http://www.w3.org/1999/xlink" x="0px" y="0px"
	 viewBox="0 0 200 200" style="enable-background:new 0 0 200 200;" xml:space="preserve">
<style type="text/css">
	.st0{fill:#F3E6DD;}
</style>
<path class="st0" d="M100.5,77.6c-12.9,0-23.4,10.1-23.4,22.6s10.5,22.6,23.4,22.6s23.4-10.1,23.4-22.6S113.4,77.6,100.5,77.6
	 M145.4,91.5h-10.2c1,3.2,1.5,6.6,1.5,10c0,19.3-16.2,35-36.2,35s-36.2-15.7-36.2-35c0-3.4,0.5-6.8,1.5-10H55.1v49.1
	c0,2.5,2.1,4.6,4.6,4.6h81c2.5,0,4.6-2.1,4.6-4.6L145.4,91.5z M126.9,55.2c-2.9,0-5.2,2.4-5.2,5.3V73c0,2.9,2.3,5.2,5.2,5.2H140
	c2.9,0,5.2-2.3,5.2-5.2V60.5c0-2.9-2.3-5.2-5.2-5.3H126.9z M57.1,42.3h86.4c8.2,0,14.9,6.7,14.9,14.9v86.4c0,8.2-6.7,14.9-14.9,14.9
	H57.1c-8.2,0-14.9-6.7-14.9-14.9V57.3C42.2,49,48.9,42.4,57.1,42.3"/>
</svg>
