<?xml version="1.0" encoding="utf-8"?>
<!-- Generator: Adobe Illustrator 21.0.1, SVG Export Plug-In . SVG Version: 6.00 Build 0)  -->
<svg version="1.1" id="Layer_1" xmlns="http://www.w3.org/2000/svg" xmlns:xlink="http://www.w3.org/1999/xlink" x="0px" y="0px"
	 viewBox="0 0 300 300" style="enable-background:new 0 0 300 300;" xml:space="preserve">
<style type="text/css">
	.st0{fill:#F3E6DD;}
</style>
<g transform="translate(742.57 507.31)">
	<path class="st0" d="M-501-414.1c-6.7,3-14,5-21.6,5.9c7.8-4.7,13.7-12,16.5-20.8c-7.3,4.3-15.3,7.4-23.9,9.1
		c-6.9-7.3-16.6-11.9-27.4-11.9c-20.8,0-37.6,16.8-37.6,37.6c0,2.9,0.3,5.8,1,8.6c-31.2-1.6-58.9-16.5-77.5-39.3
		c-3.2,5.6-5.1,12-5.1,18.9c0,13,6.6,24.5,16.7,31.3c-6.2-0.2-12-1.9-17-4.7v0.5c0,18.2,13,33.4,30.1,36.9c-3.2,0.9-6.5,1.3-9.9,1.3
		c-2.4,0-4.8-0.2-7.1-0.7c4.8,14.9,18.7,25.8,35.1,26.1c-12.9,10.1-29.1,16.1-46.7,16.1c-3,0-6-0.2-9-0.5
		c16.6,10.7,36.4,16.9,57.6,16.9c69.1,0,106.9-57.3,106.9-106.9c0-1.6,0-3.2-0.1-4.9C-512.4-400-506-406.6-501-414.1"/>
</g>
</svg>
