<svg id="katman_1" data-name="katman 1" xmlns="http://www.w3.org/2000/svg" viewBox="0 0 93.98 93.98"><defs><style>.cls-1,.cls-2{fill:#4677bb;}.cls-2{font-size:69.62px;font-family:BernardMT-Condensed, Bernard MT Condensed;}</style></defs><title>Alif-Yaa Web-Site Design Proposal-3</title><path class="cls-1" d="M91.81.41H2.17A2.18,2.18,0,0,0,0,2.59V92.22a2.17,2.17,0,0,0,2.17,2.17H91.81A2.17,2.17,0,0,0,94,92.22V2.59A2.18,2.18,0,0,0,91.81.41Zm-9.9,79.74a2.17,2.17,0,0,1-2.17,2.17H14.24a2.17,2.17,0,0,1-2.17-2.17V14.65a2.17,2.17,0,0,1,2.17-2.17h65.5a2.17,2.17,0,0,1,2.17,2.17Z"/><text class="cls-2" transform="translate(36.63 78.64) rotate(0.35)">I</text></svg>