<svg id="katman_1" data-name="katman 1" xmlns="http://www.w3.org/2000/svg" viewBox="0 0 93.98 93.98"><defs><style>.cls-1,.cls-2{fill:#4f4999;}.cls-2{font-size:69.62px;font-family:BernardMT-Condensed, Bernard MT Condensed;}</style></defs><title>Alif-Yaa Web-Site Design Proposal-3</title><path class="cls-1" d="M91.81.49H2.17A2.17,2.17,0,0,0,0,2.66V92.29a2.18,2.18,0,0,0,2.17,2.18H91.81A2.18,2.18,0,0,0,94,92.29V2.66A2.17,2.17,0,0,0,91.81.49Zm-9.9,79.74a2.17,2.17,0,0,1-2.17,2.17H14.24a2.17,2.17,0,0,1-2.17-2.17V14.73a2.17,2.17,0,0,1,2.17-2.17h65.5a2.17,2.17,0,0,1,2.17,2.17Z"/><text class="cls-2" transform="translate(27.94 78.48) rotate(0.35)">G</text></svg>