<svg id="katman_1" data-name="katman 1" xmlns="http://www.w3.org/2000/svg" viewBox="0 0 93.98 93.98"><defs><style>.cls-1,.cls-2{fill:#704997;}.cls-2{font-size:69.62px;font-family:BernardMT-Condensed, Bernard MT Condensed;}</style></defs><title>Alif-Yaa Web-Site Design Proposal-3</title><path class="cls-1" d="M91.81.21H2.17A2.18,2.18,0,0,0,0,2.39V92a2.17,2.17,0,0,0,2.17,2.17H91.81A2.17,2.17,0,0,0,94,92V2.39A2.18,2.18,0,0,0,91.81.21ZM81.91,80a2.18,2.18,0,0,1-2.17,2.18H14.24A2.18,2.18,0,0,1,12.07,80V14.46a2.18,2.18,0,0,1,2.17-2.18h65.5a2.18,2.18,0,0,1,2.17,2.18Z"/><text class="cls-2" transform="translate(32.3 78.59) rotate(0.35)">E</text></svg>